EBGaramond12-Bold.ufo
<glyph name="numbersign" format="2">
  <advance width="488"/>
  <unicode hex="0023"/>
  <note>
numbersign
</note>
  <outline>
    <contour>
      <point x="72" y="-96" type="curve" smooth="yes"/>
      <point x="93" y="-96"/>
      <point x="104" y="-93"/>
      <point x="109" y="-72" type="curve" smooth="yes"/>
      <point x="148" y="88" type="line"/>
      <point x="262" y="92" type="line"/>
      <point x="225" y="-56" type="line"/>
      <point x="225" y="-61" type="line" smooth="yes"/>
      <point x="225" y="-70"/>
      <point x="231" y="-80"/>
      <point x="241" y="-80" type="curve" smooth="yes"/>
      <point x="262" y="-80"/>
      <point x="273" y="-77"/>
      <point x="278" y="-56" type="curve" smooth="yes"/>
      <point x="315" y="95" type="line"/>
      <point x="393" y="98" type="line" smooth="yes"/>
      <point x="413" y="99"/>
      <point x="435" y="135"/>
      <point x="435" y="170" type="curve" smooth="yes"/>
      <point x="435" y="183"/>
      <point x="425" y="193"/>
      <point x="408" y="192" type="curve" smooth="yes"/>
      <point x="338" y="189" type="line"/>
      <point x="364" y="296" type="line"/>
      <point x="432" y="299" type="line" smooth="yes"/>
      <point x="452" y="300"/>
      <point x="474" y="336"/>
      <point x="474" y="371" type="curve" smooth="yes"/>
      <point x="474" y="384"/>
      <point x="464" y="394"/>
      <point x="447" y="393" type="curve" smooth="yes"/>
      <point x="388" y="390" type="line"/>
      <point x="423" y="534" type="line"/>
      <point x="423" y="537"/>
      <point x="425" y="538"/>
      <point x="425" y="542" type="curve" smooth="yes"/>
      <point x="425" y="551"/>
      <point x="420" y="561"/>
      <point x="412" y="561" type="curve" smooth="yes"/>
      <point x="389" y="561"/>
      <point x="375" y="556"/>
      <point x="371" y="534" type="curve"/>
      <point x="335" y="387" type="line"/>
      <point x="221" y="383" type="line"/>
      <point x="255" y="523" type="line"/>
      <point x="255" y="526"/>
      <point x="257" y="527"/>
      <point x="257" y="531" type="curve" smooth="yes"/>
      <point x="257" y="540"/>
      <point x="252" y="550"/>
      <point x="244" y="550" type="curve" smooth="yes"/>
      <point x="221" y="550"/>
      <point x="207" y="545"/>
      <point x="203" y="523" type="curve"/>
      <point x="168" y="380" type="line"/>
      <point x="93" y="377" type="line" smooth="yes"/>
      <point x="73" y="376"/>
      <point x="54" y="360"/>
      <point x="54" y="304" type="curve" smooth="yes"/>
      <point x="54" y="295"/>
      <point x="62" y="282"/>
      <point x="77" y="283" type="curve" smooth="yes"/>
      <point x="144" y="286" type="line"/>
      <point x="118" y="180" type="line"/>
      <point x="54" y="177" type="line" smooth="yes"/>
      <point x="34" y="176"/>
      <point x="15" y="160"/>
      <point x="15" y="104" type="curve" smooth="yes"/>
      <point x="15" y="95"/>
      <point x="23" y="82"/>
      <point x="38" y="83" type="curve" smooth="yes"/>
      <point x="95" y="85" type="line"/>
      <point x="56" y="-72" type="line"/>
      <point x="56" y="-77" type="line" smooth="yes"/>
      <point x="56" y="-86"/>
      <point x="62" y="-96"/>
    </contour>
    <contour>
      <point x="171" y="182" type="line"/>
      <point x="198" y="289" type="line"/>
      <point x="311" y="293" type="line"/>
      <point x="285" y="186" type="line"/>
    </contour>
  </outline>
</glyph>
<glyph name="dollar" format="2">
  <advance width="465"/>
  <unicode hex="0024"/>
  <note>
dollar
</note>
  <outline>
    <contour>
      <point x="178" y="-82" type="curve" smooth="yes"/>
      <point x="193" y="-82"/>
      <point x="206" y="-78"/>
      <point x="207" y="-70" type="curve" smooth="yes"/>
      <point x="215" y="4" type="line" smooth="yes"/>
      <point x="216" y="9"/>
      <point x="218" y="10"/>
      <point x="221" y="10" type="curve"/>
      <point x="345" y="16"/>
      <point x="430" y="75"/>
      <point x="430" y="198" type="curve" smooth="yes"/>
      <point x="430" y="279"/>
      <point x="396" y="331"/>
      <point x="290" y="394" type="curve" smooth="yes"/>
      <point x="265" y="410"/>
      <point x="260" y="415"/>
      <point x="261" y="427" type="curve" smooth="yes"/>
      <point x="278" y="572" type="line" smooth="yes"/>
      <point x="279" y="577"/>
      <point x="281" y="579"/>
      <point x="286" y="578" type="curve"/>
      <point x="324" y="565"/>
      <point x="350" y="528"/>
      <point x="369" y="471" type="curve" smooth="yes"/>
      <point x="372" y="462"/>
      <point x="384" y="457"/>
      <point x="394" y="457" type="curve" smooth="yes"/>
      <point x="405" y="457"/>
      <point x="412" y="462"/>
      <point x="412" y="468" type="curve" smooth="yes"/>
      <point x="412" y="515"/>
      <point x="409" y="553"/>
      <point x="402" y="578" type="curve" smooth="yes"/>
      <point x="396" y="598"/>
      <point x="392" y="602"/>
      <point x="377" y="608" type="curve" smooth="yes"/>
      <point x="358" y="616"/>
      <point x="326" y="627"/>
      <point x="293" y="632" type="curve" smooth="yes"/>
      <point x="288" y="633"/>
      <point x="285" y="635"/>
      <point x="285" y="641" type="curve"/>
      <point x="287" y="655"/>
      <point x="288" y="670"/>
      <point x="290" y="684" type="curve" smooth="yes"/>
      <point x="292" y="700"/>
      <point x="287" y="712"/>
      <point x="274" y="712" type="curve" smooth="yes"/>
      <point x="254" y="712"/>
      <point x="238" y="705"/>
      <point x="237" y="693" type="curve" smooth="yes"/>
      <point x="232" y="642" type="line"/>
      <point x="232" y="637"/>
      <point x="228" y="634"/>
      <point x="222" y="633" type="curve" smooth="yes"/>
      <point x="119" y="621"/>
      <point x="38" y="551"/>
      <point x="38" y="454" type="curve" smooth="yes"/>
      <point x="38" y="352"/>
      <point x="107" y="302"/>
      <point x="179" y="261" type="curve"/>
      <point x="187" y="256"/>
      <point x="189" y="251"/>
      <point x="188" y="244" type="curve"/>
      <point x="170" y="81" type="line" smooth="yes"/>
      <point x="169" y="74"/>
      <point x="165" y="73"/>
      <point x="160" y="75" type="curve" smooth="yes"/>
      <point x="114" y="97"/>
      <point x="79" y="148"/>
      <point x="59" y="214" type="curve"/>
      <point x="54" y="222"/>
      <point x="51" y="226"/>
      <point x="39" y="226" type="curve" smooth="yes"/>
      <point x="28" y="226"/>
      <point x="21" y="222"/>
      <point x="21" y="214" type="curve"/>
      <point x="18" y="160"/>
      <point x="23" y="108"/>
      <point x="37" y="74" type="curve" smooth="yes"/>
      <point x="41" y="64"/>
      <point x="48" y="57"/>
      <point x="58" y="51" type="curve" smooth="yes"/>
      <point x="88" y="33"/>
      <point x="121" y="20"/>
      <point x="156" y="14" type="curve" smooth="yes"/>
      <point x="161" y="13"/>
      <point x="162" y="11"/>
      <point x="161" y="7" type="curve" smooth="yes"/>
      <point x="155" y="-54" type="line" smooth="yes"/>
      <point x="154" y="-68"/>
      <point x="160" y="-82"/>
    </contour>
    <contour>
      <point x="234" y="63" type="curve"/>
      <point x="225" y="63"/>
      <point x="222" y="65"/>
      <point x="223" y="74" type="curve" smooth="yes"/>
      <point x="239" y="216" type="line"/>
      <point x="240" y="224"/>
      <point x="242" y="224"/>
      <point x="247" y="221" type="curve" smooth="yes"/>
      <point x="279" y="198"/>
      <point x="293" y="175"/>
      <point x="293" y="138" type="curve" smooth="yes"/>
      <point x="293" y="105"/>
      <point x="277" y="71"/>
    </contour>
    <contour>
      <point x="205" y="451" type="curve" smooth="yes"/>
      <point x="183" y="469"/>
      <point x="172" y="487"/>
      <point x="172" y="508" type="curve" smooth="yes"/>
      <point x="172" y="544"/>
      <point x="187" y="569"/>
      <point x="218" y="578" type="curve" smooth="yes"/>
      <point x="223" y="579"/>
      <point x="225" y="575"/>
      <point x="224" y="569" type="curve" smooth="yes"/>
      <point x="211" y="454" type="line" smooth="yes"/>
      <point x="211" y="449"/>
      <point x="208" y="448"/>
    </contour>
  </outline>
</glyph>
<glyph name="ampersand" format="2">
  <advance width="809"/>
  <unicode hex="0026"/>
  <note>
ampersand
</note>
  <outline>
    <contour>
      <point x="207" y="-16" type="curve" smooth="yes"/>
      <point x="281" y="-16"/>
      <point x="358" y="16"/>
      <point x="416" y="85" type="curve" smooth="yes"/>
      <point x="421" y="91" type="line"/>
      <point x="440" y="70" type="line" smooth="yes"/>
      <point x="492" y="13"/>
      <point x="531" y="-15"/>
      <point x="612" y="-15" type="curve" smooth="yes"/>
      <point x="713" y="-15"/>
      <point x="783" y="48"/>
      <point x="783" y="79" type="curve" smooth="yes"/>
      <point x="783" y="92"/>
      <point x="776" y="94"/>
      <point x="765" y="94" type="curve" smooth="yes"/>
      <point x="757" y="94"/>
      <point x="748" y="89"/>
      <point x="741" y="87" type="curve" smooth="yes"/>
      <point x="713" y="77"/>
      <point x="684" y="73"/>
      <point x="662" y="73" type="curve" smooth="yes"/>
      <point x="623" y="73"/>
      <point x="587" y="114"/>
      <point x="546" y="163" type="curve"/>
      <point x="527" y="185" type="line"/>
      <point x="575" y="228"/>
      <point x="627" y="268"/>
      <point x="673" y="313" type="curve" smooth="yes"/>
      <point x="695" y="335"/>
      <point x="725" y="361"/>
      <point x="769" y="369" type="curve" smooth="yes"/>
      <point x="791" y="373"/>
      <point x="804" y="386"/>
      <point x="804" y="398" type="curve" smooth="yes"/>
      <point x="804" y="404"/>
      <point x="798" y="412"/>
      <point x="787" y="412" type="curve" smooth="yes"/>
      <point x="752" y="412"/>
      <point x="693" y="389"/>
      <point x="650" y="389" type="curve" smooth="yes"/>
      <point x="612" y="389"/>
      <point x="578" y="397"/>
      <point x="549" y="397" type="curve" smooth="yes"/>
      <point x="532" y="397"/>
      <point x="518" y="396"/>
      <point x="518" y="382" type="curve" smooth="yes"/>
      <point x="518" y="370"/>
      <point x="528" y="367"/>
      <point x="540" y="362" type="curve" smooth="yes"/>
      <point x="554" y="356"/>
      <point x="569" y="348"/>
      <point x="569" y="327" type="curve" smooth="yes"/>
      <point x="569" y="303"/>
      <point x="552" y="263"/>
      <point x="515" y="229" type="curve" smooth="yes"/>
      <point x="502" y="217" type="line"/>
      <point x="482" y="237" type="line"/>
      <point x="449" y="270"/>
      <point x="408" y="314"/>
      <point x="375" y="347" type="curve"/>
      <point x="353" y="370" type="line"/>
      <point x="377" y="379" type="line" smooth="yes"/>
      <point x="442" y="403"/>
      <point x="483" y="431"/>
      <point x="483" y="494" type="curve" smooth="yes"/>
      <point x="483" y="557"/>
      <point x="414" y="600"/>
      <point x="322" y="600" type="curve" smooth="yes"/>
      <point x="207" y="600"/>
      <point x="131" y="544"/>
      <point x="131" y="474" type="curve" smooth="yes"/>
      <point x="131" y="415"/>
      <point x="178" y="374"/>
      <point x="199" y="352" type="curve" smooth="yes"/>
      <point x="206" y="345" type="line"/>
      <point x="185" y="335" type="line" smooth="yes"/>
      <point x="85" y="287"/>
      <point x="30" y="204"/>
      <point x="30" y="131" type="curve" smooth="yes"/>
      <point x="30" y="31"/>
      <point x="129" y="-16"/>
    </contour>
    <contour>
      <point x="290" y="85" type="curve" smooth="yes"/>
      <point x="219" y="85"/>
      <point x="174" y="133"/>
      <point x="174" y="215" type="curve" smooth="yes"/>
      <point x="174" y="252"/>
      <point x="186" y="284"/>
      <point x="212" y="301" type="curve" smooth="yes"/>
      <point x="229" y="312" type="line"/>
      <point x="241" y="298" type="line"/>
      <point x="287" y="245"/>
      <point x="329" y="193"/>
      <point x="375" y="140" type="curve"/>
      <point x="391" y="121" type="line"/>
      <point x="384" y="114" type="line" smooth="yes"/>
      <point x="355" y="85"/>
      <point x="317" y="85"/>
    </contour>
    <contour>
      <point x="332" y="396" type="line"/>
      <point x="311" y="416" type="line" smooth="yes"/>
      <point x="300" y="427"/>
      <point x="274" y="454"/>
      <point x="274" y="511" type="curve" smooth="yes"/>
      <point x="274" y="541"/>
      <point x="295" y="562"/>
      <point x="317" y="562" type="curve" smooth="yes"/>
      <point x="352" y="562"/>
      <point x="365" y="526"/>
      <point x="364" y="488" type="curve" smooth="yes"/>
      <point x="364" y="456"/>
      <point x="357" y="421"/>
      <point x="342" y="406" type="curve" smooth="yes"/>
    </contour>
  </outline>
</glyph>
<glyph name="quotesingle" format="2">
  <advance width="245"/>
  <unicode hex="0027"/>
  <note>
quotesingle
</note>
  <outline>
    <contour>
      <point x="81" y="400" type="curve" smooth="yes"/>
      <point x="88" y="400"/>
      <point x="105" y="417"/>
      <point x="113" y="432" type="curve" smooth="yes"/>
      <point x="137" y="478"/>
      <point x="183" y="582"/>
      <point x="183" y="647" type="curve" smooth="yes"/>
      <point x="183" y="667"/>
      <point x="172" y="685"/>
      <point x="156" y="685" type="curve" smooth="yes"/>
      <point x="130" y="685"/>
      <point x="115" y="676"/>
      <point x="91" y="660" type="curve"/>
      <point x="78" y="652"/>
      <point x="61" y="637"/>
      <point x="61" y="617" type="curve" smooth="yes"/>
      <point x="61" y="582"/>
      <point x="67" y="543"/>
      <point x="67" y="496" type="curve" smooth="yes"/>
      <point x="67" y="474"/>
      <point x="70" y="455"/>
      <point x="69" y="429" type="curve"/>
      <point x="69" y="418"/>
      <point x="71" y="400"/>
    </contour>
  </outline>
</glyph>
<glyph name="parenleft" format="2">
  <advance width="302"/>
  <unicode hex="0028"/>
  <note>
parenleft
</note>
  <outline>
    <contour>
      <point x="239" y="-215" type="curve" smooth="yes"/>
      <point x="263" y="-215"/>
      <point x="288" y="-200"/>
      <point x="288" y="-174" type="curve" smooth="yes"/>
      <point x="288" y="-171"/>
      <point x="264" y="-143"/>
      <point x="261" y="-139" type="curve"/>
      <point x="211" y="-75"/>
      <point x="160" y="124"/>
      <point x="160" y="270" type="curve" smooth="yes"/>
      <point x="160" y="441"/>
      <point x="219" y="578"/>
      <point x="269" y="642" type="curve"/>
      <point x="272" y="646"/>
      <point x="292" y="673"/>
      <point x="292" y="677" type="curve" smooth="yes"/>
      <point x="292" y="693"/>
      <point x="265" y="706"/>
      <point x="252" y="706" type="curve" smooth="yes"/>
      <point x="233" y="706"/>
      <point x="213" y="697"/>
      <point x="202" y="686" type="curve" smooth="yes"/>
      <point x="133" y="616"/>
      <point x="35" y="435"/>
      <point x="35" y="267" type="curve" smooth="yes"/>
      <point x="35" y="100"/>
      <point x="139" y="-132"/>
      <point x="208" y="-202" type="curve" smooth="yes"/>
      <point x="217" y="-211"/>
      <point x="228" y="-215"/>
    </contour>
  </outline>
</glyph>
<glyph name="asterisk" format="2">
  <advance width="361"/>
  <unicode hex="002A"/>
  <note>
asterisk
</note>
  <outline>
    <contour>
      <point x="199" y="348" type="curve" smooth="yes"/>
      <point x="222" y="348"/>
      <point x="231" y="367"/>
      <point x="231" y="386" type="curve" smooth="yes"/>
      <point x="231" y="411"/>
      <point x="227" y="449"/>
      <point x="227" y="458" type="curve"/>
      <point x="248" y="451"/>
      <point x="270" y="443"/>
      <point x="291" y="436" type="curve"/>
      <point x="320" y="430"/>
      <point x="341" y="441"/>
      <point x="341" y="466" type="curve" smooth="yes"/>
      <point x="341" y="480"/>
      <point x="330" y="492"/>
      <point x="316" y="499" type="curve" smooth="yes"/>
      <point x="294" y="510"/>
      <point x="262" y="523"/>
      <point x="254" y="528" type="curve"/>
      <point x="306" y="572" type="line" smooth="yes"/>
      <point x="315" y="580"/>
      <point x="321" y="592"/>
      <point x="321" y="603" type="curve" smooth="yes"/>
      <point x="321" y="621"/>
      <point x="307" y="634"/>
      <point x="291" y="634" type="curve" smooth="yes"/>
      <point x="282" y="634"/>
      <point x="273" y="630"/>
      <point x="265" y="625" type="curve" smooth="yes"/>
      <point x="244" y="612"/>
      <point x="216" y="591"/>
      <point x="208" y="587" type="curve"/>
      <point x="199" y="654" type="line" smooth="yes"/>
      <point x="197" y="672"/>
      <point x="183" y="688"/>
      <point x="165" y="689" type="curve"/>
      <point x="142" y="688"/>
      <point x="132" y="668"/>
      <point x="132" y="648" type="curve" smooth="yes"/>
      <point x="132" y="623"/>
      <point x="132" y="603"/>
      <point x="134" y="579" type="curve"/>
      <point x="113" y="587"/>
      <point x="92" y="596"/>
      <point x="71" y="604" type="curve" smooth="yes"/>
      <point x="42" y="614"/>
      <point x="20" y="602"/>
      <point x="20" y="578" type="curve" smooth="yes"/>
      <point x="20" y="563"/>
      <point x="30" y="550"/>
      <point x="43" y="543" type="curve" smooth="yes"/>
      <point x="65" y="531"/>
      <point x="97" y="516"/>
      <point x="104" y="510" type="curve"/>
      <point x="51" y="468" type="line"/>
      <point x="41" y="461"/>
      <point x="34" y="448"/>
      <point x="34" y="436" type="curve" smooth="yes"/>
      <point x="34" y="418"/>
      <point x="48" y="407"/>
      <point x="64" y="407" type="curve" smooth="yes"/>
      <point x="73" y="407"/>
      <point x="81" y="410"/>
      <point x="89" y="414" type="curve" smooth="yes"/>
      <point x="111" y="427"/>
      <point x="142" y="447"/>
      <point x="151" y="450" type="curve"/>
      <point x="164" y="382" type="line"/>
      <point x="167" y="362"/>
      <point x="181" y="348"/>
    </contour>
  </outline>
</glyph>
<glyph name="plus" format="2">
  <advance width="604"/>
  <unicode hex="002B"/>
  <note>
plus
</note>
  <outline>
    <contour>
      <point x="284" y="-12" type="curve" smooth="yes"/>
      <point x="299" y="-12"/>
      <point x="334" y="-4"/>
      <point x="334" y="17" type="curve" smooth="yes"/>
      <point x="334" y="206" type="line" smooth="yes"/>
      <point x="334" y="215"/>
      <point x="338" y="219"/>
      <point x="347" y="219" type="curve" smooth="yes"/>
      <point x="540" y="219" type="line" smooth="yes"/>
      <point x="559" y="219"/>
      <point x="574" y="249"/>
      <point x="574" y="266" type="curve" smooth="yes"/>
      <point x="574" y="276"/>
      <point x="563" y="282"/>
      <point x="551" y="282" type="curve" smooth="yes"/>
      <point x="347" y="282" type="line" smooth="yes"/>
      <point x="338" y="282"/>
      <point x="334" y="286"/>
      <point x="334" y="296" type="curve" smooth="yes"/>
      <point x="334" y="489" type="line" smooth="yes"/>
      <point x="334" y="501"/>
      <point x="328" y="512"/>
      <point x="318" y="512" type="curve" smooth="yes"/>
      <point x="301" y="512"/>
      <point x="271" y="497"/>
      <point x="271" y="478" type="curve" smooth="yes"/>
      <point x="271" y="296" type="line" smooth="yes"/>
      <point x="271" y="286"/>
      <point x="270" y="282"/>
      <point x="257" y="282" type="curve" smooth="yes"/>
      <point x="59" y="282" type="line" smooth="yes"/>
      <point x="38" y="282"/>
      <point x="30" y="247"/>
      <point x="30" y="232" type="curve" smooth="yes"/>
      <point x="30" y="226"/>
      <point x="38" y="219"/>
      <point x="47" y="219" type="curve" smooth="yes"/>
      <point x="258" y="219" type="line" smooth="yes"/>
      <point x="268" y="219"/>
      <point x="271" y="213"/>
      <point x="271" y="206" type="curve" smooth="yes"/>
      <point x="271" y="5" type="line" smooth="yes"/>
      <point x="271" y="-4"/>
      <point x="278" y="-12"/>
    </contour>
  </outline>
</glyph>
<glyph name="comma" format="2">
  <advance width="251"/>
  <unicode hex="002C"/>
  <note>
comma
</note>
  <outline>
    <contour>
      <point x="49" y="-168" type="curve" smooth="yes"/>
      <point x="136" y="-168"/>
      <point x="224" y="-94"/>
      <point x="224" y="15" type="curve" smooth="yes"/>
      <point x="224" y="77"/>
      <point x="182" y="120"/>
      <point x="119" y="120" type="curve" smooth="yes"/>
      <point x="82" y="120"/>
      <point x="46" y="91"/>
      <point x="46" y="55" type="curve" smooth="yes"/>
      <point x="46" y="20"/>
      <point x="66" y="1"/>
      <point x="88" y="-6" type="curve" smooth="yes"/>
      <point x="110" y="-13"/>
      <point x="130" y="-24"/>
      <point x="130" y="-50" type="curve" smooth="yes"/>
      <point x="130" y="-89"/>
      <point x="101" y="-119"/>
      <point x="46" y="-134" type="curve" smooth="yes"/>
      <point x="31" y="-138"/>
      <point x="22" y="-140"/>
      <point x="22" y="-151" type="curve" smooth="yes"/>
      <point x="22" y="-162"/>
      <point x="33" y="-168"/>
    </contour>
  </outline>
</glyph>
<glyph name="hyphen" format="2">
  <advance width="325"/>
  <unicode hex="002D"/>
  <note>
hyphen
</note>
  <outline>
    <contour>
      <point x="36" y="163" type="curve" smooth="yes"/>
      <point x="110" y="170"/>
      <point x="206" y="183"/>
      <point x="280" y="194" type="curve" smooth="yes"/>
      <point x="296" y="197"/>
      <point x="300" y="207"/>
      <point x="300" y="250" type="curve" smooth="yes"/>
      <point x="300" y="261"/>
      <point x="297" y="268"/>
      <point x="283" y="267" type="curve" smooth="yes"/>
      <point x="210" y="261"/>
      <point x="122" y="250"/>
      <point x="49" y="238" type="curve" smooth="yes"/>
      <point x="33" y="235"/>
      <point x="25" y="218"/>
      <point x="25" y="174" type="curve" smooth="yes"/>
      <point x="25" y="167"/>
      <point x="27" y="162"/>
    </contour>
  </outline>
</glyph>
<glyph name="period" format="2">
  <advance width="251"/>
  <unicode hex="002E"/>
  <note>
period
</note>
  <outline>
    <contour>
      <point x="124" y="-34" type="curve" smooth="yes"/>
      <point x="174" y="-34"/>
      <point x="213" y="5"/>
      <point x="213" y="52" type="curve" smooth="yes"/>
      <point x="213" y="102"/>
      <point x="174" y="141"/>
      <point x="124" y="141" type="curve" smooth="yes"/>
      <point x="77" y="141"/>
      <point x="38" y="102"/>
      <point x="38" y="52" type="curve" smooth="yes"/>
      <point x="38" y="5"/>
      <point x="77" y="-34"/>
    </contour>
  </outline>
</glyph>
<glyph name="one" format="2">
  <advance width="540"/>
  <unicode hex="0031"/>
  <note>
one.tablining
</note>
  <guideline x="5" y="269" angle="90"/>
  <guideline x="-699" y="10" angle="90"/>
  <outline>
    <contour>
      <point x="119" y="-3" type="curve" smooth="yes"/>
      <point x="163" y="-3"/>
      <point x="249" y="2"/>
      <point x="289" y="2" type="curve" smooth="yes"/>
      <point x="328" y="2"/>
      <point x="420" y="-2"/>
      <point x="462" y="-2" type="curve" smooth="yes"/>
      <point x="472" y="-2"/>
      <point x="478" y="3"/>
      <point x="478" y="13" type="curve" smooth="yes"/>
      <point x="478" y="26"/>
      <point x="471" y="30"/>
      <point x="459" y="34" type="curve"/>
      <point x="407" y="49"/>
      <point x="364" y="61"/>
      <point x="364" y="98" type="curve" smooth="yes"/>
      <point x="364" y="552" type="line" smooth="yes"/>
      <point x="364" y="589"/>
      <point x="370" y="609"/>
      <point x="370" y="625" type="curve" smooth="yes"/>
      <point x="370" y="632"/>
      <point x="358" y="636"/>
      <point x="348" y="636" type="curve" smooth="yes"/>
      <point x="343" y="636"/>
      <point x="338" y="633"/>
      <point x="336" y="632" type="curve" smooth="yes"/>
      <point x="270" y="599"/>
      <point x="209" y="578"/>
      <point x="126" y="573" type="curve" smooth="yes"/>
      <point x="109" y="572"/>
      <point x="94" y="564"/>
      <point x="94" y="546" type="curve" smooth="yes"/>
      <point x="94" y="530"/>
      <point x="109" y="524"/>
      <point x="120" y="522" type="curve" smooth="yes"/>
      <point x="164" y="514"/>
      <point x="206" y="505"/>
      <point x="206" y="455" type="curve" smooth="yes"/>
      <point x="206" y="97" type="line" smooth="yes"/>
      <point x="206" y="56"/>
      <point x="171" y="47"/>
      <point x="120" y="34" type="curve" smooth="yes"/>
      <point x="108" y="31"/>
      <point x="101" y="24"/>
      <point x="101" y="12" type="curve" smooth="yes"/>
      <point x="101" y="3"/>
      <point x="111" y="-3"/>
    </contour>
  </outline>
</glyph>
<glyph name="less" format="2">
  <advance width="537"/>
  <unicode hex="003C"/>
  <note>
less
</note>
  <outline>
    <contour>
      <point x="478" y="0" type="line"/>
      <point x="489" y="-6"/>
      <point x="502" y="1"/>
      <point x="502" y="22" type="curve" smooth="yes"/>
      <point x="502" y="42"/>
      <point x="487" y="62"/>
      <point x="465" y="72" type="curve" smooth="yes"/>
      <point x="137" y="229" type="line" smooth="yes"/>
      <point x="130" y="232"/>
      <point x="132" y="237"/>
      <point x="137" y="239" type="curve" smooth="yes"/>
      <point x="465" y="397" type="line" smooth="yes"/>
      <point x="487" y="407"/>
      <point x="502" y="427"/>
      <point x="502" y="447" type="curve" smooth="yes"/>
      <point x="502" y="459"/>
      <point x="498" y="471"/>
      <point x="485" y="471" type="curve" smooth="yes"/>
      <point x="483" y="471"/>
      <point x="480" y="470"/>
      <point x="478" y="469" type="curve" smooth="yes"/>
      <point x="75" y="272" type="line"/>
      <point x="51" y="263"/>
      <point x="35" y="230"/>
      <point x="35" y="220" type="curve" smooth="yes"/>
      <point x="35" y="212"/>
      <point x="64" y="198"/>
      <point x="85" y="188" type="curve"/>
    </contour>
  </outline>
</glyph>
<glyph name="question" format="2">
  <advance width="399"/>
  <unicode hex="003F"/>
  <note>
question
</note>
  <outline>
    <contour>
      <point x="148" y="171" type="curve" smooth="yes"/>
      <point x="161" y="171"/>
      <point x="169" y="179"/>
      <point x="171" y="195" type="curve" smooth="yes"/>
      <point x="176" y="235"/>
      <point x="184" y="248"/>
      <point x="213" y="263" type="curve" smooth="yes"/>
      <point x="246" y="281"/>
      <point x="276" y="300"/>
      <point x="304" y="314" type="curve" smooth="yes"/>
      <point x="329" y="326"/>
      <point x="354" y="357"/>
      <point x="354" y="412" type="curve" smooth="yes"/>
      <point x="354" y="472"/>
      <point x="326" y="534"/>
      <point x="281" y="582" type="curve" smooth="yes"/>
      <point x="236" y="630"/>
      <point x="183" y="661"/>
      <point x="126" y="661" type="curve" smooth="yes"/>
      <point x="86" y="661"/>
      <point x="51" y="634"/>
      <point x="51" y="609" type="curve" smooth="yes"/>
      <point x="51" y="573"/>
      <point x="84" y="517"/>
      <point x="114" y="517" type="curve" smooth="yes"/>
      <point x="128" y="517"/>
      <point x="139" y="520"/>
      <point x="149" y="524" type="curve" smooth="yes"/>
      <point x="158" y="528"/>
      <point x="172" y="536"/>
      <point x="204" y="536" type="curve" smooth="yes"/>
      <point x="239" y="536"/>
      <point x="274" y="520"/>
      <point x="274" y="486" type="curve" smooth="yes"/>
      <point x="274" y="449"/>
      <point x="251" y="428"/>
      <point x="209" y="409" type="curve" smooth="yes"/>
      <point x="127" y="372"/>
      <point x="88" y="340"/>
      <point x="88" y="291" type="curve" smooth="yes"/>
      <point x="88" y="254"/>
      <point x="101" y="223"/>
      <point x="113" y="202" type="curve" smooth="yes"/>
      <point x="125" y="182"/>
      <point x="138" y="171"/>
    </contour>
    <contour>
      <point x="144" y="-14" type="curve" smooth="yes"/>
      <point x="185" y="-14"/>
      <point x="219" y="20"/>
      <point x="219" y="61" type="curve" smooth="yes"/>
      <point x="219" y="102"/>
      <point x="185" y="136"/>
      <point x="144" y="136" type="curve" smooth="yes"/>
      <point x="103" y="136"/>
      <point x="69" y="102"/>
      <point x="69" y="61" type="curve" smooth="yes"/>
      <point x="69" y="20"/>
      <point x="103" y="-14"/>
    </contour>
  </outline>
</glyph>
<glyph name="at" format="2">
  <advance width="788"/>
  <unicode hex="0040"/>
  <note>
at
</note>
  <outline>
    <contour>
      <point x="402" y="-158" type="curve" smooth="yes"/>
      <point x="522" y="-158"/>
      <point x="689" y="-63"/>
      <point x="689" y="-29" type="curve" smooth="yes"/>
      <point x="689" y="-17"/>
      <point x="680" y="-10"/>
      <point x="662" y="-10" type="curve" smooth="yes"/>
      <point x="652" y="-10"/>
      <point x="637" y="-20"/>
      <point x="625" y="-28" type="curve" smooth="yes"/>
      <point x="570" y="-66"/>
      <point x="476" y="-96"/>
      <point x="414" y="-96" type="curve" smooth="yes"/>
      <point x="247" y="-96"/>
      <point x="104" y="31"/>
      <point x="104" y="196" type="curve" smooth="yes"/>
      <point x="104" y="371"/>
      <point x="249" y="481"/>
      <point x="415" y="481" type="curve" smooth="yes"/>
      <point x="578" y="481"/>
      <point x="683" y="379"/>
      <point x="683" y="226" type="curve" smooth="yes"/>
      <point x="683" y="144"/>
      <point x="621" y="94"/>
      <point x="551" y="94" type="curve" smooth="yes"/>
      <point x="537" y="94"/>
      <point x="533" y="108"/>
      <point x="533" y="123" type="curve" smooth="yes"/>
      <point x="533" y="132"/>
      <point x="535" y="140"/>
      <point x="536" y="148" type="curve"/>
      <point x="560" y="285" type="line" smooth="yes"/>
      <point x="564" y="306"/>
      <point x="576" y="355"/>
      <point x="588" y="386" type="curve"/>
      <point x="588" y="394"/>
      <point x="558" y="397"/>
      <point x="553" y="397" type="curve" smooth="yes"/>
      <point x="540" y="397"/>
      <point x="535" y="370"/>
      <point x="523" y="370" type="curve" smooth="yes"/>
      <point x="518" y="370"/>
      <point x="505" y="376"/>
      <point x="494" y="379" type="curve" smooth="yes"/>
      <point x="478" y="383"/>
      <point x="446" y="390"/>
      <point x="421" y="390" type="curve" smooth="yes"/>
      <point x="287" y="390"/>
      <point x="177" y="296"/>
      <point x="177" y="148" type="curve" smooth="yes"/>
      <point x="177" y="64"/>
      <point x="241" y="17"/>
      <point x="323" y="17" type="curve" smooth="yes"/>
      <point x="399" y="17"/>
      <point x="452" y="64"/>
      <point x="464" y="64" type="curve" smooth="yes"/>
      <point x="476" y="64"/>
      <point x="487" y="22"/>
      <point x="547" y="22" type="curve" smooth="yes"/>
      <point x="651" y="22"/>
      <point x="758" y="116"/>
      <point x="758" y="244" type="curve" smooth="yes"/>
      <point x="758" y="417"/>
      <point x="606" y="543"/>
      <point x="429" y="543" type="curve" smooth="yes"/>
      <point x="216" y="543"/>
      <point x="30" y="420"/>
      <point x="30" y="185" type="curve" smooth="yes"/>
      <point x="30" y="-18"/>
      <point x="204" y="-158"/>
    </contour>
    <contour>
      <point x="364" y="75" type="curve" smooth="yes"/>
      <point x="328" y="75"/>
      <point x="286" y="106"/>
      <point x="286" y="181" type="curve" smooth="yes"/>
      <point x="286" y="282"/>
      <point x="338" y="342"/>
      <point x="394" y="342" type="curve" smooth="yes"/>
      <point x="434" y="342"/>
      <point x="467" y="314"/>
      <point x="467" y="276" type="curve" smooth="yes"/>
      <point x="467" y="271"/>
      <point x="467" y="266"/>
      <point x="466" y="264" type="curve"/>
      <point x="444" y="147" type="line" smooth="yes"/>
      <point x="439" y="117"/>
      <point x="432" y="104"/>
      <point x="420" y="95" type="curve" smooth="yes"/>
      <point x="402" y="82"/>
      <point x="386" y="75"/>
    </contour>
  </outline>
</glyph>
<glyph name="B" format="2">
  <advance width="635"/>
  <unicode hex="0042"/>
  <anchor x="318" y="-30" name="bottom.cap"/>
  <anchor x="302" y="675" name="top.cap"/>
  <note>
B
</note>
  <outline>
    <contour>
      <point x="35" y="-5" type="curve" smooth="yes"/>
      <point x="74" y="-5"/>
      <point x="138" y="0"/>
      <point x="179" y="0" type="curve" smooth="yes"/>
      <point x="231" y="0"/>
      <point x="275" y="-4"/>
      <point x="326" y="-4" type="curve" smooth="yes"/>
      <point x="403" y="-4"/>
      <point x="457" y="6"/>
      <point x="501" y="27" type="curve" smooth="yes"/>
      <point x="543" y="48"/>
      <point x="607" y="81"/>
      <point x="607" y="194" type="curve" smooth="yes"/>
      <point x="607" y="310"/>
      <point x="515" y="342"/>
      <point x="443" y="355" type="curve" smooth="yes"/>
      <point x="437" y="356"/>
      <point x="438" y="364"/>
      <point x="443" y="365" type="curve" smooth="yes"/>
      <point x="471" y="371"/>
      <point x="496" y="384"/>
      <point x="517" y="402" type="curve" smooth="yes"/>
      <point x="550" y="429"/>
      <point x="571" y="468"/>
      <point x="571" y="508" type="curve" smooth="yes"/>
      <point x="571" y="617"/>
      <point x="486" y="657"/>
      <point x="327" y="657" type="curve" smooth="yes"/>
      <point x="254" y="657"/>
      <point x="226" y="647"/>
      <point x="178" y="647" type="curve" smooth="yes"/>
      <point x="126" y="647"/>
      <point x="100" y="655"/>
      <point x="35" y="655" type="curve" smooth="yes"/>
      <point x="23" y="655"/>
      <point x="15" y="648"/>
      <point x="15" y="639" type="curve" smooth="yes"/>
      <point x="15" y="631"/>
      <point x="20" y="622"/>
      <point x="36" y="618" type="curve" smooth="yes"/>
      <point x="83" y="607"/>
      <point x="96" y="594"/>
      <point x="96" y="551" type="curve" smooth="yes"/>
      <point x="96" y="95" type="line" smooth="yes"/>
      <point x="96" y="54"/>
      <point x="80" y="45"/>
      <point x="36" y="32" type="curve" smooth="yes"/>
      <point x="23" y="28"/>
      <point x="16" y="19"/>
      <point x="16" y="11" type="curve" smooth="yes"/>
      <point x="16" y="3"/>
      <point x="23" y="-5"/>
    </contour>
    <contour>
      <point x="323" y="54" type="curve" smooth="yes"/>
      <point x="287" y="54"/>
      <point x="266" y="76"/>
      <point x="266" y="116" type="curve" smooth="yes"/>
      <point x="266" y="288" type="line" smooth="yes"/>
      <point x="266" y="311"/>
      <point x="293" y="320"/>
      <point x="310" y="320" type="curve" smooth="yes"/>
      <point x="346" y="320"/>
      <point x="371" y="307"/>
      <point x="381" y="298" type="curve" smooth="yes"/>
      <point x="398" y="284"/>
      <point x="426" y="253"/>
      <point x="426" y="186" type="curve" smooth="yes"/>
      <point x="426" y="111"/>
      <point x="379" y="54"/>
    </contour>
    <contour>
      <point x="305" y="368" type="curve" smooth="yes"/>
      <point x="289" y="368"/>
      <point x="266" y="379"/>
      <point x="266" y="403" type="curve" smooth="yes"/>
      <point x="266" y="568" type="line" smooth="yes"/>
      <point x="266" y="596"/>
      <point x="283" y="610"/>
      <point x="317" y="610" type="curve" smooth="yes"/>
      <point x="379" y="610"/>
      <point x="411" y="574"/>
      <point x="411" y="485" type="curve" smooth="yes"/>
      <point x="411" y="431"/>
      <point x="391" y="404"/>
      <point x="382" y="395" type="curve" smooth="yes"/>
      <point x="358" y="374"/>
      <point x="336" y="368"/>
    </contour>
  </outline>
</glyph>
<glyph name="C" format="2">
  <advance width="709"/>
  <unicode hex="0043"/>
  <note>
C
</note>
  <anchor x="412" y="-30" name="bottom.cap"/>
  <anchor x="405" y="675" name="top.cap"/>
  <outline>
    <contour>
      <point x="404" y="-14" type="curve" smooth="yes"/>
      <point x="492" y="-14"/>
      <point x="561" y="1"/>
      <point x="612" y="24" type="curve" smooth="yes"/>
      <point x="624" y="30"/>
      <point x="634" y="39"/>
      <point x="638" y="54" type="curve" smooth="yes"/>
      <point x="652" y="102"/>
      <point x="659" y="143"/>
      <point x="659" y="172" type="curve" smooth="yes"/>
      <point x="659" y="193"/>
      <point x="632" y="196"/>
      <point x="621" y="172" type="curve" smooth="yes"/>
      <point x="580" y="82"/>
      <point x="524" y="43"/>
      <point x="424" y="43" type="curve" smooth="yes"/>
      <point x="278" y="43"/>
      <point x="208" y="165"/>
      <point x="208" y="344" type="curve" smooth="yes"/>
      <point x="208" y="483"/>
      <point x="290" y="609"/>
      <point x="424" y="609" type="curve" smooth="yes"/>
      <point x="493" y="609"/>
      <point x="539" y="588"/>
      <point x="566" y="560" type="curve" smooth="yes"/>
      <point x="588" y="538"/>
      <point x="598" y="507"/>
      <point x="607" y="480" type="curve" smooth="yes"/>
      <point x="615" y="456"/>
      <point x="647" y="456"/>
      <point x="647" y="480" type="curve" smooth="yes"/>
      <point x="647" y="509"/>
      <point x="646" y="553"/>
      <point x="639" y="601" type="curve" smooth="yes"/>
      <point x="637" y="616"/>
      <point x="628" y="623"/>
      <point x="617" y="628" type="curve" smooth="yes"/>
      <point x="570" y="647"/>
      <point x="495" y="664"/>
      <point x="433" y="664" type="curve" smooth="yes"/>
      <point x="174" y="664"/>
      <point x="25" y="495"/>
      <point x="25" y="315" type="curve" smooth="yes"/>
      <point x="25" y="118"/>
      <point x="193" y="-14"/>
    </contour>
  </outline>
</glyph>
<glyph name="D" format="2">
  <advance width="769"/>
  <unicode hex="0044"/>
  <note>
D
</note>
  <anchor x="364" y="-30" name="bottom.cap"/>
  <anchor x="381" y="675" name="top.cap"/>
  <outline>
    <contour>
      <point x="385" y="-7" type="curve" smooth="yes"/>
      <point x="619" y="-7"/>
      <point x="744" y="159"/>
      <point x="744" y="335" type="curve" smooth="yes"/>
      <point x="744" y="528"/>
      <point x="580" y="659"/>
      <point x="394" y="659" type="curve" smooth="yes"/>
      <point x="340" y="659"/>
      <point x="222" y="650"/>
      <point x="183" y="650" type="curve" smooth="yes"/>
      <point x="143" y="650"/>
      <point x="77" y="655"/>
      <point x="33" y="655" type="curve" smooth="yes"/>
      <point x="25" y="655"/>
      <point x="15" y="649"/>
      <point x="15" y="640" type="curve" smooth="yes"/>
      <point x="15" y="628"/>
      <point x="22" y="621"/>
      <point x="34" y="618" type="curve" smooth="yes"/>
      <point x="87" y="606"/>
      <point x="100" y="594"/>
      <point x="100" y="551" type="curve" smooth="yes"/>
      <point x="100" y="97" type="line" smooth="yes"/>
      <point x="100" y="56"/>
      <point x="85" y="45"/>
      <point x="34" y="34" type="curve" smooth="yes"/>
      <point x="22" y="31"/>
      <point x="15" y="24"/>
      <point x="15" y="12" type="curve" smooth="yes"/>
      <point x="15" y="3"/>
      <point x="25" y="-3"/>
      <point x="33" y="-3" type="curve" smooth="yes"/>
      <point x="77" y="-3"/>
      <point x="143" y="0"/>
      <point x="183" y="0" type="curve" smooth="yes"/>
      <point x="209" y="0"/>
      <point x="305" y="-7"/>
    </contour>
    <contour>
      <point x="369" y="48" type="curve" smooth="yes"/>
      <point x="301" y="48"/>
      <point x="270" y="72"/>
      <point x="270" y="134" type="curve" smooth="yes"/>
      <point x="270" y="568" type="line" smooth="yes"/>
      <point x="270" y="599"/>
      <point x="299" y="601"/>
      <point x="359" y="601" type="curve" smooth="yes"/>
      <point x="496" y="601"/>
      <point x="561" y="481"/>
      <point x="561" y="306" type="curve" smooth="yes"/>
      <point x="561" y="149"/>
      <point x="500" y="48"/>
    </contour>
  </outline>
</glyph>
<glyph name="E" format="2">
  <advance width="577"/>
  <unicode hex="0045"/>
  <note>
E
</note>
  <anchor x="296" y="-30" name="bottom.cap"/>
  <anchor x="299" y="675" name="top.cap"/>
  <outline>
    <contour>
      <point x="35" y="-5" type="curve" smooth="yes"/>
      <point x="74" y="-5"/>
      <point x="139" y="0"/>
      <point x="179" y="0" type="curve" smooth="yes"/>
      <point x="300" y="0"/>
      <point x="494" y="-4"/>
      <point x="507" y="-4" type="curve" smooth="yes"/>
      <point x="517" y="-4"/>
      <point x="528" y="-1"/>
      <point x="531" y="8" type="curve"/>
      <point x="545" y="58"/>
      <point x="563" y="104"/>
      <point x="563" y="140" type="curve" smooth="yes"/>
      <point x="563" y="149"/>
      <point x="561" y="160"/>
      <point x="553" y="160" type="curve" smooth="yes"/>
      <point x="545" y="160"/>
      <point x="539" y="158"/>
      <point x="534" y="148" type="curve" smooth="yes"/>
      <point x="519" y="118"/>
      <point x="500" y="87"/>
      <point x="477" y="68" type="curve" smooth="yes"/>
      <point x="458" y="52"/>
      <point x="430" y="45"/>
      <point x="404" y="45" type="curve" smooth="yes"/>
      <point x="315" y="45" type="line" smooth="yes"/>
      <point x="281" y="45"/>
      <point x="266" y="59"/>
      <point x="266" y="96" type="curve" smooth="yes"/>
      <point x="266" y="285" type="line" smooth="yes"/>
      <point x="266" y="299"/>
      <point x="273" y="308"/>
      <point x="288" y="308" type="curve" smooth="yes"/>
      <point x="382" y="308" type="line" smooth="yes"/>
      <point x="407" y="308"/>
      <point x="421" y="285"/>
      <point x="433" y="242" type="curve" smooth="yes"/>
      <point x="437" y="228"/>
      <point x="447" y="218"/>
      <point x="457" y="218" type="curve" smooth="yes"/>
      <point x="464" y="218"/>
      <point x="469" y="226"/>
      <point x="467" y="246" type="curve" smooth="yes"/>
      <point x="464" y="276"/>
      <point x="463" y="302"/>
      <point x="463" y="329" type="curve" smooth="yes"/>
      <point x="463" y="356"/>
      <point x="465" y="383"/>
      <point x="468" y="412" type="curve"/>
      <point x="469" y="427"/>
      <point x="462" y="435"/>
      <point x="456" y="435" type="curve" smooth="yes"/>
      <point x="448" y="435"/>
      <point x="440" y="429"/>
      <point x="435" y="417" type="curve" smooth="yes"/>
      <point x="423" y="385"/>
      <point x="412" y="355"/>
      <point x="377" y="355" type="curve" smooth="yes"/>
      <point x="292" y="355" type="line" smooth="yes"/>
      <point x="276" y="355"/>
      <point x="266" y="361"/>
      <point x="266" y="379" type="curve" smooth="yes"/>
      <point x="266" y="563" type="line" smooth="yes"/>
      <point x="266" y="592"/>
      <point x="290" y="609"/>
      <point x="323" y="609" type="curve" smooth="yes"/>
      <point x="386" y="609" type="line" smooth="yes"/>
      <point x="423" y="609"/>
      <point x="444" y="592"/>
      <point x="459" y="577" type="curve" smooth="yes"/>
      <point x="474" y="562"/>
      <point x="483" y="538"/>
      <point x="498" y="502" type="curve" smooth="yes"/>
      <point x="503" y="490"/>
      <point x="512" y="485"/>
      <point x="519" y="485" type="curve" smooth="yes"/>
      <point x="526" y="485"/>
      <point x="532" y="492"/>
      <point x="532" y="505" type="curve" smooth="yes"/>
      <point x="532" y="541"/>
      <point x="520" y="590"/>
      <point x="515" y="640" type="curve" smooth="yes"/>
      <point x="513" y="656"/>
      <point x="499" y="661"/>
      <point x="489" y="661" type="curve" smooth="yes"/>
      <point x="484" y="661"/>
      <point x="454" y="653"/>
      <point x="412" y="653" type="curve" smooth="yes"/>
      <point x="346" y="651"/>
      <point x="253" y="650"/>
      <point x="179" y="650" type="curve" smooth="yes"/>
      <point x="139" y="650"/>
      <point x="79" y="655"/>
      <point x="35" y="655" type="curve" smooth="yes"/>
      <point x="23" y="655"/>
      <point x="15" y="648"/>
      <point x="15" y="639" type="curve" smooth="yes"/>
      <point x="15" y="631"/>
      <point x="20" y="622"/>
      <point x="36" y="618" type="curve" smooth="yes"/>
      <point x="83" y="607"/>
      <point x="96" y="594"/>
      <point x="96" y="551" type="curve" smooth="yes"/>
      <point x="96" y="95" type="line" smooth="yes"/>
      <point x="96" y="54"/>
      <point x="80" y="45"/>
      <point x="36" y="32" type="curve" smooth="yes"/>
      <point x="23" y="28"/>
      <point x="16" y="19"/>
      <point x="16" y="11" type="curve" smooth="yes"/>
      <point x="16" y="3"/>
      <point x="23" y="-5"/>
    </contour>
  </outline>
</glyph>
<glyph name="F" format="2">
  <advance width="554"/>
  <unicode hex="0046"/>
  <note>
F
</note>
  <anchor x="192" y="-30" name="bottom.cap"/>
  <anchor x="306" y="675" name="top.cap"/>
  <outline>
    <contour>
      <point x="33" y="-3" type="curve" smooth="yes"/>
      <point x="77" y="-3"/>
      <point x="143" y="2"/>
      <point x="183" y="2" type="curve" smooth="yes"/>
      <point x="222" y="2"/>
      <point x="309" y="-2"/>
      <point x="351" y="-2" type="curve" smooth="yes"/>
      <point x="361" y="-2"/>
      <point x="367" y="3"/>
      <point x="367" y="13" type="curve" smooth="yes"/>
      <point x="367" y="26"/>
      <point x="360" y="31"/>
      <point x="348" y="34" type="curve"/>
      <point x="291" y="46"/>
      <point x="270" y="56"/>
      <point x="270" y="98" type="curve" smooth="yes"/>
      <point x="270" y="158"/>
      <point x="268" y="226"/>
      <point x="268" y="286" type="curve" smooth="yes"/>
      <point x="268" y="300"/>
      <point x="275" y="309"/>
      <point x="290" y="309" type="curve" smooth="yes"/>
      <point x="309" y="309"/>
      <point x="329" y="309"/>
      <point x="348" y="309" type="curve" smooth="yes"/>
      <point x="363" y="309"/>
      <point x="379" y="309"/>
      <point x="394" y="309" type="curve" smooth="yes"/>
      <point x="419" y="309"/>
      <point x="433" y="297"/>
      <point x="445" y="256" type="curve" smooth="yes"/>
      <point x="449" y="242"/>
      <point x="459" y="232"/>
      <point x="469" y="232" type="curve" smooth="yes"/>
      <point x="476" y="232"/>
      <point x="481" y="240"/>
      <point x="479" y="260" type="curve" smooth="yes"/>
      <point x="476" y="290"/>
      <point x="475" y="302"/>
      <point x="475" y="329" type="curve" smooth="yes"/>
      <point x="475" y="349"/>
      <point x="477" y="376"/>
      <point x="480" y="405" type="curve"/>
      <point x="481" y="420"/>
      <point x="474" y="428"/>
      <point x="468" y="428" type="curve" smooth="yes"/>
      <point x="460" y="428"/>
      <point x="452" y="422"/>
      <point x="447" y="410" type="curve" smooth="yes"/>
      <point x="435" y="380"/>
      <point x="424" y="356"/>
      <point x="389" y="356" type="curve" smooth="yes"/>
      <point x="358" y="356"/>
      <point x="327" y="356"/>
      <point x="296" y="356" type="curve" smooth="yes"/>
      <point x="280" y="356"/>
      <point x="270" y="362"/>
      <point x="270" y="380" type="curve" smooth="yes"/>
      <point x="270" y="410"/>
      <point x="270" y="447"/>
      <point x="270" y="477" type="curve"/>
      <point x="270" y="500"/>
      <point x="270" y="535"/>
      <point x="270" y="558" type="curve" smooth="yes"/>
      <point x="270" y="587"/>
      <point x="294" y="604"/>
      <point x="327" y="604" type="curve" smooth="yes"/>
      <point x="390" y="604" type="line" smooth="yes"/>
      <point x="425" y="604"/>
      <point x="447" y="595"/>
      <point x="464" y="578" type="curve" smooth="yes"/>
      <point x="482" y="559"/>
      <point x="492" y="530"/>
      <point x="502" y="495" type="curve" smooth="yes"/>
      <point x="505" y="483"/>
      <point x="516" y="478"/>
      <point x="523" y="478" type="curve" smooth="yes"/>
      <point x="530" y="478"/>
      <point x="536" y="485"/>
      <point x="536" y="498" type="curve" smooth="yes"/>
      <point x="536" y="534"/>
      <point x="534" y="589"/>
      <point x="531" y="640" type="curve" smooth="yes"/>
      <point x="530" y="656"/>
      <point x="515" y="661"/>
      <point x="505" y="661" type="curve" smooth="yes"/>
      <point x="475" y="661"/>
      <point x="426" y="650"/>
      <point x="369" y="650" type="curve" smooth="yes"/>
      <point x="309" y="650"/>
      <point x="239" y="650"/>
      <point x="183" y="650" type="curve" smooth="yes"/>
      <point x="143" y="650"/>
      <point x="83" y="655"/>
      <point x="39" y="655" type="curve" smooth="yes"/>
      <point x="27" y="655"/>
      <point x="19" y="648"/>
      <point x="19" y="639" type="curve" smooth="yes"/>
      <point x="19" y="631"/>
      <point x="24" y="622"/>
      <point x="40" y="618" type="curve" smooth="yes"/>
      <point x="87" y="607"/>
      <point x="100" y="594"/>
      <point x="100" y="551" type="curve" smooth="yes"/>
      <point x="100" y="97" type="line" smooth="yes"/>
      <point x="100" y="56"/>
      <point x="85" y="45"/>
      <point x="34" y="34" type="curve" smooth="yes"/>
      <point x="22" y="31"/>
      <point x="15" y="24"/>
      <point x="15" y="12" type="curve" smooth="yes"/>
      <point x="15" y="3"/>
      <point x="25" y="-3"/>
    </contour>
  </outline>
</glyph>
<glyph name="I" format="2">
  <advance width="369"/>
  <unicode hex="0049"/>
  <note>
I
</note>
  <guideline x="70" y="68" angle="90"/>
  <guideline x="352" y="98" angle="0.3603"/>
  <guideline x="268" y="550" angle="0"/>
  <anchor x="183" y="-30" name="bottom.cap"/>
  <anchor x="188" y="675" name="top.cap"/>
  <outline>
    <contour>
      <point x="33" y="-3" type="curve" smooth="yes"/>
      <point x="77" y="-3"/>
      <point x="143" y="2"/>
      <point x="183" y="2" type="curve" smooth="yes"/>
      <point x="222" y="2"/>
      <point x="296" y="-2"/>
      <point x="338" y="-2" type="curve" smooth="yes"/>
      <point x="348" y="-2"/>
      <point x="354" y="3"/>
      <point x="354" y="13" type="curve" smooth="yes"/>
      <point x="354" y="26"/>
      <point x="347" y="30"/>
      <point x="335" y="34" type="curve" smooth="yes"/>
      <point x="283" y="49"/>
      <point x="270" y="61"/>
      <point x="270" y="98" type="curve" smooth="yes"/>
      <point x="270" y="550" type="line" smooth="yes"/>
      <point x="270" y="590"/>
      <point x="280" y="602"/>
      <point x="335" y="618" type="curve" smooth="yes"/>
      <point x="347" y="622"/>
      <point x="354" y="626"/>
      <point x="354" y="639" type="curve" smooth="yes"/>
      <point x="354" y="649"/>
      <point x="348" y="654"/>
      <point x="338" y="654" type="curve" smooth="yes"/>
      <point x="296" y="654"/>
      <point x="222" y="650"/>
      <point x="183" y="650" type="curve" smooth="yes"/>
      <point x="143" y="650"/>
      <point x="77" y="655"/>
      <point x="33" y="655" type="curve" smooth="yes"/>
      <point x="25" y="655"/>
      <point x="15" y="649"/>
      <point x="15" y="640" type="curve" smooth="yes"/>
      <point x="15" y="628"/>
      <point x="22" y="621"/>
      <point x="34" y="618" type="curve" smooth="yes"/>
      <point x="87" y="606"/>
      <point x="100" y="594"/>
      <point x="100" y="551" type="curve" smooth="yes"/>
      <point x="100" y="97" type="line" smooth="yes"/>
      <point x="100" y="56"/>
      <point x="85" y="45"/>
      <point x="34" y="34" type="curve" smooth="yes"/>
      <point x="22" y="31"/>
      <point x="15" y="24"/>
      <point x="15" y="12" type="curve" smooth="yes"/>
      <point x="15" y="3"/>
      <point x="25" y="-3"/>
    </contour>
  </outline>
</glyph>
<glyph name="J" format="2">
  <advance width="376"/>
  <unicode hex="004A"/>
  <anchor x="205" y="675" name="top.cap"/>
  <note>
J
</note>
  <outline>
    <contour>
      <point x="62" y="-200" type="curve" smooth="yes"/>
      <point x="114" y="-200"/>
      <point x="168" y="-155"/>
      <point x="211" y="-97" type="curve" smooth="yes"/>
      <point x="259" y="-33"/>
      <point x="292" y="47"/>
      <point x="292" y="94" type="curve" smooth="yes"/>
      <point x="292" y="550" type="line" smooth="yes"/>
      <point x="292" y="590"/>
      <point x="302" y="602"/>
      <point x="357" y="618" type="curve"/>
      <point x="369" y="622"/>
      <point x="376" y="626"/>
      <point x="376" y="639" type="curve" smooth="yes"/>
      <point x="376" y="649"/>
      <point x="370" y="654"/>
      <point x="360" y="654" type="curve" smooth="yes"/>
      <point x="318" y="654"/>
      <point x="244" y="650"/>
      <point x="205" y="650" type="curve" smooth="yes"/>
      <point x="165" y="650"/>
      <point x="99" y="655"/>
      <point x="55" y="655" type="curve" smooth="yes"/>
      <point x="47" y="655"/>
      <point x="37" y="649"/>
      <point x="37" y="640" type="curve" smooth="yes"/>
      <point x="37" y="628"/>
      <point x="44" y="621"/>
      <point x="56" y="618" type="curve" smooth="yes"/>
      <point x="109" y="606"/>
      <point x="122" y="594"/>
      <point x="122" y="551" type="curve" smooth="yes"/>
      <point x="122" y="9" type="line" smooth="yes"/>
      <point x="122" y="-112"/>
      <point x="98" y="-158"/>
      <point x="60" y="-158" type="curve" smooth="yes"/>
      <point x="45" y="-158"/>
      <point x="37" y="-135"/>
      <point x="10" y="-103" type="curve" smooth="yes"/>
      <point x="-3" y="-89"/>
      <point x="-17" y="-80"/>
      <point x="-31" y="-80" type="curve" smooth="yes"/>
      <point x="-55" y="-80"/>
      <point x="-85" y="-112"/>
      <point x="-85" y="-140" type="curve" smooth="yes"/>
      <point x="-85" y="-178"/>
      <point x="-37" y="-200"/>
    </contour>
  </outline>
</glyph>
<glyph name="K" format="2">
  <advance width="781"/>
  <unicode hex="004B"/>
  <anchor x="381" y="-30" name="bottom.cap"/>
  <anchor x="402" y="675" name="top.cap"/>
  <note>
K
</note>
  <outline>
    <contour>
      <point x="43" y="-6" type="curve" smooth="yes"/>
      <point x="112" y="-6"/>
      <point x="143" y="4"/>
      <point x="183" y="4" type="curve" smooth="yes"/>
      <point x="222" y="4"/>
      <point x="262" y="-4"/>
      <point x="326" y="-4" type="curve" smooth="yes"/>
      <point x="339" y="-4"/>
      <point x="354" y="3"/>
      <point x="354" y="13" type="curve" smooth="yes"/>
      <point x="354" y="26"/>
      <point x="341" y="30"/>
      <point x="329" y="34" type="curve"/>
      <point x="277" y="49"/>
      <point x="274" y="61"/>
      <point x="272" y="98" type="curve" smooth="yes"/>
      <point x="269" y="158"/>
      <point x="269" y="217"/>
      <point x="269" y="277" type="curve" smooth="yes"/>
      <point x="269" y="288"/>
      <point x="274" y="293"/>
      <point x="280" y="293" type="curve" smooth="yes"/>
      <point x="287" y="293"/>
      <point x="295" y="288"/>
      <point x="304" y="277" type="curve"/>
      <point x="456" y="97" type="line"/>
      <point x="467" y="84"/>
      <point x="473" y="73"/>
      <point x="473" y="63" type="curve" smooth="yes"/>
      <point x="472" y="50"/>
      <point x="459" y="40"/>
      <point x="429" y="34" type="curve" smooth="yes"/>
      <point x="417" y="31"/>
      <point x="410" y="24"/>
      <point x="410" y="12" type="curve" smooth="yes"/>
      <point x="410" y="3"/>
      <point x="420" y="-3"/>
      <point x="428" y="-3" type="curve" smooth="yes"/>
      <point x="475" y="-3"/>
      <point x="514" y="2"/>
      <point x="563" y="2" type="curve" smooth="yes"/>
      <point x="627" y="2"/>
      <point x="689" y="-5"/>
      <point x="750" y="-5" type="curve" smooth="yes"/>
      <point x="777" y="-5"/>
      <point x="791" y="3"/>
      <point x="791" y="13" type="curve" smooth="yes"/>
      <point x="791" y="26"/>
      <point x="772" y="30"/>
      <point x="760" y="34" type="curve"/>
      <point x="708" y="49"/>
      <point x="683" y="71"/>
      <point x="659" y="98" type="curve" smooth="yes"/>
      <point x="420" y="368" type="line" smooth="yes"/>
      <point x="410" y="379"/>
      <point x="410" y="391"/>
      <point x="420" y="400" type="curve" smooth="yes"/>
      <point x="479" y="454"/>
      <point x="531" y="513"/>
      <point x="589" y="557" type="curve" smooth="yes"/>
      <point x="626" y="585"/>
      <point x="672" y="609"/>
      <point x="743" y="618" type="curve" smooth="yes"/>
      <point x="755" y="620"/>
      <point x="773" y="626"/>
      <point x="773" y="639" type="curve" smooth="yes"/>
      <point x="773" y="649"/>
      <point x="759" y="654"/>
      <point x="746" y="654" type="curve" smooth="yes"/>
      <point x="664" y="654"/>
      <point x="609" y="651"/>
      <point x="540" y="651" type="curve"/>
      <point x="468" y="651" type="line"/>
      <point x="460" y="651"/>
      <point x="450" y="645"/>
      <point x="450" y="636" type="curve" smooth="yes"/>
      <point x="450" y="624"/>
      <point x="457" y="617"/>
      <point x="469" y="614" type="curve" smooth="yes"/>
      <point x="500" y="607"/>
      <point x="515" y="596"/>
      <point x="515" y="582" type="curve" smooth="yes"/>
      <point x="515" y="573"/>
      <point x="507" y="563"/>
      <point x="496" y="551" type="curve" smooth="yes"/>
      <point x="305" y="343" type="line"/>
      <point x="294" y="334"/>
      <point x="288" y="328"/>
      <point x="281" y="328" type="curve" smooth="yes"/>
      <point x="275" y="328"/>
      <point x="270" y="332"/>
      <point x="270" y="343" type="curve" smooth="yes"/>
      <point x="270" y="550" type="line" smooth="yes"/>
      <point x="270" y="590"/>
      <point x="280" y="602"/>
      <point x="335" y="618" type="curve"/>
      <point x="347" y="622"/>
      <point x="354" y="626"/>
      <point x="354" y="639" type="curve" smooth="yes"/>
      <point x="354" y="649"/>
      <point x="348" y="654"/>
      <point x="338" y="654" type="curve" smooth="yes"/>
      <point x="296" y="654"/>
      <point x="222" y="650"/>
      <point x="183" y="650" type="curve" smooth="yes"/>
      <point x="143" y="650"/>
      <point x="77" y="655"/>
      <point x="33" y="655" type="curve" smooth="yes"/>
      <point x="25" y="655"/>
      <point x="15" y="649"/>
      <point x="15" y="640" type="curve" smooth="yes"/>
      <point x="15" y="628"/>
      <point x="22" y="621"/>
      <point x="34" y="618" type="curve" smooth="yes"/>
      <point x="87" y="606"/>
      <point x="100" y="594"/>
      <point x="100" y="551" type="curve" smooth="yes"/>
      <point x="100" y="97" type="line" smooth="yes"/>
      <point x="100" y="56"/>
      <point x="91" y="44"/>
      <point x="40" y="34" type="curve" smooth="yes"/>
      <point x="24" y="31"/>
      <point x="15" y="24"/>
      <point x="15" y="12" type="curve" smooth="yes"/>
      <point x="15" y="3"/>
      <point x="31" y="-6"/>
    </contour>
  </outline>
</glyph>
<glyph name="L" format="2">
  <advance width="586"/>
  <unicode hex="004C"/>
  <anchor x="313" y="-30" name="bottom.cap"/>
  <anchor x="188" y="675" name="top.cap"/>
  <note>
L
</note>
  <outline>
    <contour>
      <point x="39" y="-5" type="curve" smooth="yes"/>
      <point x="78" y="-5"/>
      <point x="143" y="0"/>
      <point x="183" y="0" type="curve" smooth="yes"/>
      <point x="304" y="0"/>
      <point x="493" y="-5"/>
      <point x="530" y="-5" type="curve" smooth="yes"/>
      <point x="542" y="-5"/>
      <point x="546" y="5"/>
      <point x="547" y="14" type="curve" smooth="yes"/>
      <point x="552" y="64"/>
      <point x="560" y="91"/>
      <point x="577" y="151" type="curve" smooth="yes"/>
      <point x="577" y="157"/>
      <point x="581" y="171"/>
      <point x="581" y="174" type="curve" smooth="yes"/>
      <point x="581" y="183"/>
      <point x="577" y="195"/>
      <point x="567" y="195" type="curve" smooth="yes"/>
      <point x="559" y="195"/>
      <point x="553" y="193"/>
      <point x="539" y="163" type="curve" smooth="yes"/>
      <point x="525" y="133"/>
      <point x="508" y="103"/>
      <point x="485" y="82" type="curve" smooth="yes"/>
      <point x="466" y="65"/>
      <point x="444" y="54"/>
      <point x="416" y="54" type="curve" smooth="yes"/>
      <point x="319" y="54" type="line" smooth="yes"/>
      <point x="285" y="54"/>
      <point x="270" y="68"/>
      <point x="270" y="105" type="curve" smooth="yes"/>
      <point x="270" y="550" type="line" smooth="yes"/>
      <point x="270" y="590"/>
      <point x="280" y="602"/>
      <point x="335" y="618" type="curve"/>
      <point x="347" y="622"/>
      <point x="354" y="626"/>
      <point x="354" y="639" type="curve" smooth="yes"/>
      <point x="354" y="649"/>
      <point x="348" y="654"/>
      <point x="338" y="654" type="curve" smooth="yes"/>
      <point x="296" y="654"/>
      <point x="222" y="650"/>
      <point x="183" y="650" type="curve" smooth="yes"/>
      <point x="143" y="650"/>
      <point x="77" y="655"/>
      <point x="33" y="655" type="curve" smooth="yes"/>
      <point x="25" y="655"/>
      <point x="15" y="649"/>
      <point x="15" y="640" type="curve" smooth="yes"/>
      <point x="15" y="628"/>
      <point x="22" y="621"/>
      <point x="34" y="618" type="curve" smooth="yes"/>
      <point x="87" y="606"/>
      <point x="100" y="594"/>
      <point x="100" y="551" type="curve" smooth="yes"/>
      <point x="100" y="95" type="line" smooth="yes"/>
      <point x="100" y="54"/>
      <point x="84" y="45"/>
      <point x="40" y="32" type="curve" smooth="yes"/>
      <point x="27" y="28"/>
      <point x="20" y="19"/>
      <point x="20" y="11" type="curve" smooth="yes"/>
      <point x="20" y="3"/>
      <point x="27" y="-5"/>
    </contour>
  </outline>
</glyph>
<glyph name="N" format="2">
  <advance width="813"/>
  <unicode hex="004E"/>
  <anchor x="366" y="-30" name="bottom.cap"/>
  <anchor x="429" y="675" name="top.cap"/>
  <note>
N
</note>
  <outline>
    <contour>
      <point x="683" y="-19" type="curve" smooth="yes"/>
      <point x="701" y="-19"/>
      <point x="712" y="-6"/>
      <point x="712" y="30" type="curve" smooth="yes"/>
      <point x="712" y="47"/>
      <point x="700" y="124"/>
      <point x="700" y="170" type="curve" smooth="yes"/>
      <point x="700" y="268"/>
      <point x="712" y="414"/>
      <point x="712" y="556" type="curve" smooth="yes"/>
      <point x="712" y="596"/>
      <point x="732" y="610"/>
      <point x="778" y="619" type="curve" smooth="yes"/>
      <point x="793" y="622"/>
      <point x="803" y="628"/>
      <point x="803" y="640" type="curve" smooth="yes"/>
      <point x="803" y="649"/>
      <point x="793" y="655"/>
      <point x="779" y="655" type="curve" smooth="yes"/>
      <point x="729" y="655"/>
      <point x="712" y="652"/>
      <point x="673" y="652" type="curve" smooth="yes"/>
      <point x="638" y="652"/>
      <point x="621" y="654"/>
      <point x="567" y="654" type="curve" smooth="yes"/>
      <point x="557" y="654"/>
      <point x="546" y="648"/>
      <point x="546" y="639" type="curve" smooth="yes"/>
      <point x="546" y="626"/>
      <point x="557" y="621"/>
      <point x="569" y="618" type="curve" smooth="yes"/>
      <point x="620" y="605"/>
      <point x="645" y="592"/>
      <point x="647" y="553" type="curve" smooth="yes"/>
      <point x="651" y="469"/>
      <point x="650" y="329"/>
      <point x="650" y="236" type="curve" smooth="yes"/>
      <point x="650" y="228"/>
      <point x="647" y="222"/>
      <point x="642" y="222" type="curve" smooth="yes"/>
      <point x="638" y="222"/>
      <point x="632" y="229"/>
      <point x="628" y="234" type="curve"/>
      <point x="505" y="370"/>
      <point x="382" y="507"/>
      <point x="259" y="643" type="curve"/>
      <point x="255" y="649"/>
      <point x="249" y="653"/>
      <point x="239" y="653" type="curve" smooth="yes"/>
      <point x="167" y="653"/>
      <point x="78" y="658"/>
      <point x="36" y="658" type="curve" smooth="yes"/>
      <point x="21" y="658"/>
      <point x="10" y="654"/>
      <point x="10" y="642" type="curve" smooth="yes"/>
      <point x="10" y="630"/>
      <point x="25" y="623"/>
      <point x="37" y="620" type="curve" smooth="yes"/>
      <point x="86" y="601"/>
      <point x="126" y="577"/>
      <point x="126" y="508" type="curve" smooth="yes"/>
      <point x="126" y="344"/>
      <point x="112" y="189"/>
      <point x="105" y="115" type="curve" smooth="yes"/>
      <point x="102" y="75"/>
      <point x="86" y="46"/>
      <point x="55" y="34" type="curve" smooth="yes"/>
      <point x="43" y="29"/>
      <point x="31" y="24"/>
      <point x="31" y="12" type="curve" smooth="yes"/>
      <point x="31" y="3"/>
      <point x="46" y="-3"/>
      <point x="54" y="-3" type="curve" smooth="yes"/>
      <point x="54" y="-3"/>
      <point x="101" y="1"/>
      <point x="147" y="1" type="curve" smooth="yes"/>
      <point x="188" y="1"/>
      <point x="207" y="-2"/>
      <point x="262" y="-2" type="curve" smooth="yes"/>
      <point x="272" y="-2"/>
      <point x="286" y="3"/>
      <point x="286" y="13" type="curve" smooth="yes"/>
      <point x="286" y="26"/>
      <point x="271" y="31"/>
      <point x="259" y="34" type="curve" smooth="yes"/>
      <point x="206" y="47"/>
      <point x="176" y="67"/>
      <point x="176" y="113" type="curve" smooth="yes"/>
      <point x="176" y="210"/>
      <point x="170" y="366"/>
      <point x="170" y="456" type="curve" smooth="yes"/>
      <point x="170" y="463"/>
      <point x="171" y="475"/>
      <point x="177" y="475" type="curve" smooth="yes"/>
      <point x="180" y="475"/>
      <point x="186" y="468"/>
      <point x="188" y="465" type="curve"/>
      <point x="318" y="327"/>
      <point x="447" y="190"/>
      <point x="577" y="52" type="curve"/>
      <point x="621" y="-1"/>
      <point x="664" y="-19"/>
    </contour>
  </outline>
</glyph>
<glyph name="O" format="2">
  <advance width="759"/>
  <unicode hex="004F"/>
  <note>
O
</note>
  <anchor x="382" y="-30" name="bottom.cap"/>
  <anchor x="392" y="675" name="top.cap"/>
  <outline>
    <contour>
      <point x="375" y="-14" type="curve" smooth="yes"/>
      <point x="609" y="-14"/>
      <point x="734" y="155"/>
      <point x="734" y="335" type="curve" smooth="yes"/>
      <point x="734" y="532"/>
      <point x="570" y="664"/>
      <point x="384" y="664" type="curve" smooth="yes"/>
      <point x="150" y="664"/>
      <point x="25" y="495"/>
      <point x="25" y="315" type="curve" smooth="yes"/>
      <point x="25" y="118"/>
      <point x="189" y="-14"/>
    </contour>
    <contour>
      <point x="393" y="33" type="curve" smooth="yes"/>
      <point x="262" y="33"/>
      <point x="206" y="208"/>
      <point x="206" y="367" type="curve" smooth="yes"/>
      <point x="206" y="513"/>
      <point x="259" y="616"/>
      <point x="364" y="616" type="curve" smooth="yes"/>
      <point x="496" y="616"/>
      <point x="553" y="443"/>
      <point x="553" y="283" type="curve" smooth="yes"/>
      <point x="553" y="136"/>
      <point x="499" y="33"/>
    </contour>
  </outline>
</glyph>
<glyph name="P" format="2">
  <advance width="619"/>
  <unicode hex="0050"/>
  <anchor x="192" y="-30" name="bottom.cap"/>
  <anchor x="328" y="675" name="top.cap"/>
  <note>
P
</note>
  <outline>
    <contour>
      <point x="33" y="-3" type="curve" smooth="yes"/>
      <point x="77" y="-3"/>
      <point x="143" y="2"/>
      <point x="183" y="2" type="curve" smooth="yes"/>
      <point x="222" y="2"/>
      <point x="309" y="-2"/>
      <point x="351" y="-2" type="curve" smooth="yes"/>
      <point x="361" y="-2"/>
      <point x="367" y="3"/>
      <point x="367" y="13" type="curve" smooth="yes"/>
      <point x="367" y="26"/>
      <point x="360" y="31"/>
      <point x="348" y="34" type="curve"/>
      <point x="291" y="46"/>
      <point x="270" y="56"/>
      <point x="270" y="98" type="curve" smooth="yes"/>
      <point x="271" y="560" type="line" smooth="yes"/>
      <point x="271" y="596"/>
      <point x="289" y="613"/>
      <point x="327" y="613" type="curve" smooth="yes"/>
      <point x="392" y="613"/>
      <point x="429" y="562"/>
      <point x="429" y="435" type="curve" smooth="yes"/>
      <point x="429" y="336"/>
      <point x="403" y="268"/>
      <point x="352" y="268" type="curve" smooth="yes"/>
      <point x="335" y="268"/>
      <point x="328" y="273"/>
      <point x="312" y="273" type="curve" smooth="yes"/>
      <point x="305" y="273"/>
      <point x="293" y="268"/>
      <point x="293" y="257" type="curve" smooth="yes"/>
      <point x="293" y="241"/>
      <point x="312" y="229"/>
      <point x="348" y="229" type="curve" smooth="yes"/>
      <point x="513" y="229"/>
      <point x="594" y="337"/>
      <point x="594" y="464" type="curve" smooth="yes"/>
      <point x="594" y="585"/>
      <point x="491" y="660"/>
      <point x="327" y="660" type="curve" smooth="yes"/>
      <point x="252" y="660"/>
      <point x="231" y="650"/>
      <point x="183" y="650" type="curve" smooth="yes"/>
      <point x="143" y="650"/>
      <point x="83" y="655"/>
      <point x="39" y="655" type="curve" smooth="yes"/>
      <point x="27" y="655"/>
      <point x="19" y="648"/>
      <point x="19" y="639" type="curve" smooth="yes"/>
      <point x="19" y="631"/>
      <point x="24" y="622"/>
      <point x="40" y="618" type="curve" smooth="yes"/>
      <point x="87" y="607"/>
      <point x="100" y="594"/>
      <point x="100" y="551" type="curve" smooth="yes"/>
      <point x="100" y="97" type="line" smooth="yes"/>
      <point x="100" y="56"/>
      <point x="85" y="45"/>
      <point x="34" y="34" type="curve" smooth="yes"/>
      <point x="22" y="31"/>
      <point x="15" y="24"/>
      <point x="15" y="12" type="curve" smooth="yes"/>
      <point x="15" y="3"/>
      <point x="25" y="-3"/>
    </contour>
  </outline>
</glyph>
<glyph name="Q" format="2">
  <advance width="759"/>
  <unicode hex="0051"/>
  <note>
Q
</note>
  <outline>
    <contour>
      <point x="726" y="-248" type="curve" smooth="yes"/>
      <point x="788" y="-248"/>
      <point x="838" y="-238"/>
      <point x="865" y="-221" type="curve" smooth="yes"/>
      <point x="880" y="-212"/>
      <point x="885" y="-204"/>
      <point x="885" y="-192" type="curve" smooth="yes"/>
      <point x="885" y="-176"/>
      <point x="873" y="-169"/>
      <point x="854" y="-169" type="curve" smooth="yes"/>
      <point x="846" y="-169"/>
      <point x="839" y="-170"/>
      <point x="831" y="-171" type="curve" smooth="yes"/>
      <point x="823" y="-172"/>
      <point x="813" y="-173"/>
      <point x="800" y="-173" type="curve" smooth="yes"/>
      <point x="749" y="-173"/>
      <point x="694" y="-151"/>
      <point x="629" y="-97" type="curve" smooth="yes"/>
      <point x="579" y="-56"/>
      <point x="554" y="-33"/>
      <point x="525" y="-5" type="curve" smooth="yes"/>
      <point x="522" y="-2"/>
      <point x="520" y="0"/>
      <point x="520" y="5" type="curve" smooth="yes"/>
      <point x="520" y="10"/>
      <point x="524" y="14"/>
      <point x="531" y="16" type="curve"/>
      <point x="664" y="73"/>
      <point x="734" y="201"/>
      <point x="734" y="335" type="curve" smooth="yes"/>
      <point x="734" y="532"/>
      <point x="570" y="664"/>
      <point x="384" y="664" type="curve" smooth="yes"/>
      <point x="150" y="664"/>
      <point x="25" y="495"/>
      <point x="25" y="315" type="curve" smooth="yes"/>
      <point x="25" y="122"/>
      <point x="159" y="41"/>
      <point x="243" y="11" type="curve" smooth="yes"/>
      <point x="298" y="-9"/>
      <point x="333" y="-49"/>
      <point x="356" y="-70" type="curve" smooth="yes"/>
      <point x="400" y="-110"/>
      <point x="436" y="-136"/>
      <point x="484" y="-170" type="curve" smooth="yes"/>
      <point x="554" y="-220"/>
      <point x="650" y="-248"/>
    </contour>
    <contour>
      <point x="393" y="36" type="curve" smooth="yes"/>
      <point x="262" y="36"/>
      <point x="206" y="201"/>
      <point x="206" y="367" type="curve" smooth="yes"/>
      <point x="206" y="519"/>
      <point x="259" y="612"/>
      <point x="364" y="612" type="curve" smooth="yes"/>
      <point x="496" y="612"/>
      <point x="553" y="449"/>
      <point x="553" y="283" type="curve" smooth="yes"/>
      <point x="553" y="129"/>
      <point x="499" y="36"/>
    </contour>
  </outline>
</glyph>
<glyph name="R" format="2">
  <advance width="770"/>
  <unicode hex="0052"/>
  <anchor x="382" y="-30" name="bottom.cap"/>
  <anchor x="323" y="675" name="top.cap"/>
  <note>
R
</note>
  <outline>
    <contour>
      <point x="647" y="-21" type="curve" smooth="yes"/>
      <point x="725" y="-21"/>
      <point x="775" y="-2"/>
      <point x="775" y="46" type="curve" smooth="yes"/>
      <point x="775" y="59"/>
      <point x="770" y="65"/>
      <point x="760" y="65" type="curve" smooth="yes"/>
      <point x="713" y="65"/>
      <point x="661" y="66"/>
      <point x="615" y="110" type="curve" smooth="yes"/>
      <point x="557" y="165"/>
      <point x="500" y="244"/>
      <point x="441" y="333" type="curve"/>
      <point x="438" y="337"/>
      <point x="437" y="343"/>
      <point x="442" y="345" type="curve" smooth="yes"/>
      <point x="503" y="363"/>
      <point x="573" y="407"/>
      <point x="573" y="497" type="curve" smooth="yes"/>
      <point x="573" y="605"/>
      <point x="483" y="657"/>
      <point x="326" y="657" type="curve" smooth="yes"/>
      <point x="251" y="657"/>
      <point x="230" y="647"/>
      <point x="182" y="647" type="curve" smooth="yes"/>
      <point x="130" y="647"/>
      <point x="104" y="655"/>
      <point x="39" y="655" type="curve" smooth="yes"/>
      <point x="27" y="655"/>
      <point x="19" y="648"/>
      <point x="19" y="639" type="curve" smooth="yes"/>
      <point x="19" y="631"/>
      <point x="24" y="622"/>
      <point x="40" y="618" type="curve" smooth="yes"/>
      <point x="87" y="607"/>
      <point x="100" y="594"/>
      <point x="100" y="551" type="curve" smooth="yes"/>
      <point x="100" y="97" type="line" smooth="yes"/>
      <point x="100" y="56"/>
      <point x="85" y="45"/>
      <point x="34" y="34" type="curve" smooth="yes"/>
      <point x="22" y="31"/>
      <point x="15" y="24"/>
      <point x="15" y="12" type="curve" smooth="yes"/>
      <point x="15" y="3"/>
      <point x="25" y="-3"/>
      <point x="33" y="-3" type="curve" smooth="yes"/>
      <point x="77" y="-3"/>
      <point x="143" y="2"/>
      <point x="183" y="2" type="curve" smooth="yes"/>
      <point x="222" y="2"/>
      <point x="309" y="-2"/>
      <point x="351" y="-2" type="curve" smooth="yes"/>
      <point x="361" y="-2"/>
      <point x="367" y="3"/>
      <point x="367" y="13" type="curve" smooth="yes"/>
      <point x="367" y="26"/>
      <point x="360" y="31"/>
      <point x="348" y="34" type="curve"/>
      <point x="291" y="46"/>
      <point x="270" y="56"/>
      <point x="270" y="98" type="curve" smooth="yes"/>
      <point x="270" y="292" type="line" smooth="yes"/>
      <point x="270" y="304"/>
      <point x="273" y="312"/>
      <point x="280" y="312" type="curve" smooth="yes"/>
      <point x="287" y="312"/>
      <point x="296" y="310"/>
      <point x="304" y="305" type="curve" smooth="yes"/>
      <point x="314" y="299"/>
      <point x="322" y="288"/>
      <point x="328" y="275" type="curve" smooth="yes"/>
      <point x="366" y="193"/>
      <point x="404" y="136"/>
      <point x="446" y="79" type="curve" smooth="yes"/>
      <point x="486" y="25"/>
      <point x="534" y="-21"/>
    </contour>
    <contour>
      <point x="305" y="346" type="curve" smooth="yes"/>
      <point x="283" y="346"/>
      <point x="270" y="357"/>
      <point x="270" y="384" type="curve" smooth="yes"/>
      <point x="270" y="444"/>
      <point x="270" y="489"/>
      <point x="270" y="518" type="curve" smooth="yes"/>
      <point x="270" y="595"/>
      <point x="282" y="610"/>
      <point x="309" y="610" type="curve" smooth="yes"/>
      <point x="372" y="610"/>
      <point x="410" y="568"/>
      <point x="410" y="473" type="curve" smooth="yes"/>
      <point x="410" y="397"/>
      <point x="376" y="346"/>
    </contour>
  </outline>
</glyph>
<glyph name="U" format="2">
  <advance width="746"/>
  <unicode hex="0055"/>
  <anchor x="387" y="-30" name="bottom.cap"/>
  <anchor x="410" y="675" name="top.cap"/>
  <note>
U
</note>
  <outline>
    <contour>
      <point x="373" y="-14" type="curve" smooth="yes"/>
      <point x="523" y="-14"/>
      <point x="643" y="100"/>
      <point x="643" y="265" type="curve" smooth="yes"/>
      <point x="643" y="352"/>
      <point x="644" y="430"/>
      <point x="648" y="527" type="curve" smooth="yes"/>
      <point x="650" y="577"/>
      <point x="665" y="604"/>
      <point x="712" y="618" type="curve" smooth="yes"/>
      <point x="729" y="623"/>
      <point x="738" y="630"/>
      <point x="738" y="640" type="curve" smooth="yes"/>
      <point x="738" y="652"/>
      <point x="727" y="655"/>
      <point x="713" y="655" type="curve" smooth="yes"/>
      <point x="671" y="655"/>
      <point x="659" y="651"/>
      <point x="621" y="651" type="curve" smooth="yes"/>
      <point x="589" y="651"/>
      <point x="572" y="654"/>
      <point x="520" y="654" type="curve" smooth="yes"/>
      <point x="501" y="654"/>
      <point x="490" y="649"/>
      <point x="490" y="639" type="curve" smooth="yes"/>
      <point x="490" y="625"/>
      <point x="516" y="622"/>
      <point x="531" y="614" type="curve" smooth="yes"/>
      <point x="571" y="593"/>
      <point x="584" y="574"/>
      <point x="587" y="477" type="curve" smooth="yes"/>
      <point x="589" y="419"/>
      <point x="586" y="345"/>
      <point x="586" y="291" type="curve" smooth="yes"/>
      <point x="586" y="146"/>
      <point x="527" y="81"/>
      <point x="410" y="81" type="curve" smooth="yes"/>
      <point x="328" y="81"/>
      <point x="258" y="140"/>
      <point x="258" y="272" type="curve" smooth="yes"/>
      <point x="258" y="530" type="line" smooth="yes"/>
      <point x="258" y="575"/>
      <point x="274" y="598"/>
      <point x="295" y="608" type="curve" smooth="yes"/>
      <point x="316" y="618"/>
      <point x="344" y="623"/>
      <point x="344" y="639" type="curve" smooth="yes"/>
      <point x="344" y="649"/>
      <point x="334" y="654"/>
      <point x="318" y="654" type="curve" smooth="yes"/>
      <point x="276" y="654"/>
      <point x="210" y="650"/>
      <point x="171" y="650" type="curve" smooth="yes"/>
      <point x="131" y="650"/>
      <point x="78" y="655"/>
      <point x="34" y="655" type="curve" smooth="yes"/>
      <point x="19" y="655"/>
      <point x="8" y="649"/>
      <point x="8" y="640" type="curve" smooth="yes"/>
      <point x="8" y="630"/>
      <point x="16" y="623"/>
      <point x="35" y="618" type="curve" smooth="yes"/>
      <point x="71" y="608"/>
      <point x="87" y="570"/>
      <point x="87" y="536" type="curve" smooth="yes"/>
      <point x="87" y="256" type="line" smooth="yes"/>
      <point x="87" y="94"/>
      <point x="183" y="-14"/>
    </contour>
  </outline>
</glyph>
<glyph name="W" format="2">
  <advance width="1043"/>
  <unicode hex="0057"/>
  <anchor x="533" y="-30" name="bottom.cap"/>
  <anchor x="598" y="675" name="top.cap"/>
  <note>
W
</note>
  <outline>
    <contour>
      <point x="378" y="-17" type="curve" smooth="yes"/>
      <point x="390" y="-17"/>
      <point x="394" y="-8"/>
      <point x="400" y="5" type="curve"/>
      <point x="442" y="77"/>
      <point x="488" y="162"/>
      <point x="527" y="234" type="curve" smooth="yes"/>
      <point x="531" y="242"/>
      <point x="538" y="243"/>
      <point x="542" y="234" type="curve" smooth="yes"/>
      <point x="599" y="109"/>
      <point x="636" y="39"/>
      <point x="653" y="4" type="curve" smooth="yes"/>
      <point x="659" y="-9"/>
      <point x="666" y="-15"/>
      <point x="678" y="-15" type="curve" smooth="yes"/>
      <point x="689" y="-15"/>
      <point x="693" y="-10"/>
      <point x="699" y="3" type="curve" smooth="yes"/>
      <point x="944" y="554" type="line" smooth="yes"/>
      <point x="958" y="585"/>
      <point x="976" y="609"/>
      <point x="1016" y="620" type="curve" smooth="yes"/>
      <point x="1028" y="624"/>
      <point x="1047" y="627"/>
      <point x="1047" y="640" type="curve" smooth="yes"/>
      <point x="1047" y="653"/>
      <point x="1030" y="657"/>
      <point x="1012" y="657" type="curve" smooth="yes"/>
      <point x="972" y="657"/>
      <point x="956" y="652"/>
      <point x="936" y="651" type="curve" smooth="yes"/>
      <point x="919" y="650"/>
      <point x="909" y="654"/>
      <point x="867" y="654" type="curve" smooth="yes"/>
      <point x="853" y="654"/>
      <point x="838" y="649"/>
      <point x="838" y="640" type="curve" smooth="yes"/>
      <point x="838" y="628"/>
      <point x="855" y="621"/>
      <point x="868" y="618" type="curve" smooth="yes"/>
      <point x="885" y="614"/>
      <point x="894" y="604"/>
      <point x="896" y="591" type="curve" smooth="yes"/>
      <point x="897" y="584"/>
      <point x="898" y="576"/>
      <point x="883" y="539" type="curve" smooth="yes"/>
      <point x="846" y="446"/>
      <point x="791" y="318"/>
      <point x="738" y="200" type="curve"/>
      <point x="735" y="193"/>
      <point x="730" y="186"/>
      <point x="725" y="199" type="curve"/>
      <point x="654" y="357" type="line"/>
      <point x="646" y="377"/>
      <point x="643" y="393"/>
      <point x="651" y="410" type="curve" smooth="yes"/>
      <point x="672" y="454"/>
      <point x="700" y="510"/>
      <point x="722" y="552" type="curve" smooth="yes"/>
      <point x="738" y="582"/>
      <point x="753" y="607"/>
      <point x="793" y="618" type="curve" smooth="yes"/>
      <point x="805" y="622"/>
      <point x="819" y="625"/>
      <point x="819" y="638" type="curve" smooth="yes"/>
      <point x="819" y="651"/>
      <point x="804" y="655"/>
      <point x="789" y="655" type="curve" smooth="yes"/>
      <point x="748" y="655"/>
      <point x="733" y="651"/>
      <point x="713" y="650" type="curve" smooth="yes"/>
      <point x="694" y="650"/>
      <point x="690" y="653"/>
      <point x="653" y="653" type="curve" smooth="yes"/>
      <point x="632" y="653"/>
      <point x="632" y="647"/>
      <point x="632" y="638" type="curve" smooth="yes"/>
      <point x="632" y="615"/>
      <point x="683" y="619"/>
      <point x="683" y="587" type="curve" smooth="yes"/>
      <point x="683" y="581"/>
      <point x="681" y="571"/>
      <point x="678" y="565" type="curve" smooth="yes"/>
      <point x="668" y="542"/>
      <point x="644" y="477"/>
      <point x="632" y="451" type="curve" smooth="yes"/>
      <point x="627" y="440"/>
      <point x="623" y="431"/>
      <point x="614" y="451" type="curve" smooth="yes"/>
      <point x="601" y="480"/>
      <point x="576" y="550"/>
      <point x="566" y="576" type="curve" smooth="yes"/>
      <point x="559" y="594"/>
      <point x="561" y="612"/>
      <point x="589" y="618" type="curve" smooth="yes"/>
      <point x="613" y="623"/>
      <point x="624" y="628"/>
      <point x="624" y="640" type="curve" smooth="yes"/>
      <point x="624" y="649"/>
      <point x="611" y="654"/>
      <point x="590" y="654" type="curve" smooth="yes"/>
      <point x="546" y="654"/>
      <point x="501" y="650"/>
      <point x="461" y="650" type="curve" smooth="yes"/>
      <point x="422" y="650"/>
      <point x="351" y="654"/>
      <point x="309" y="654" type="curve" smooth="yes"/>
      <point x="299" y="654"/>
      <point x="290" y="649"/>
      <point x="290" y="639" type="curve" smooth="yes"/>
      <point x="290" y="626"/>
      <point x="300" y="622"/>
      <point x="312" y="618" type="curve"/>
      <point x="352" y="607"/>
      <point x="376" y="585"/>
      <point x="388" y="554" type="curve"/>
      <point x="501" y="318" type="line"/>
      <point x="504" y="311"/>
      <point x="506" y="306"/>
      <point x="506" y="301" type="curve" smooth="yes"/>
      <point x="506" y="295"/>
      <point x="503" y="290"/>
      <point x="499" y="283" type="curve"/>
      <point x="449" y="198" type="line"/>
      <point x="441" y="182"/>
      <point x="438" y="184"/>
      <point x="432" y="199" type="curve" smooth="yes"/>
      <point x="383" y="321"/>
      <point x="328" y="442"/>
      <point x="277" y="562" type="curve" smooth="yes"/>
      <point x="275" y="567"/>
      <point x="272" y="582"/>
      <point x="272" y="588" type="curve" smooth="yes"/>
      <point x="272" y="603"/>
      <point x="272" y="613"/>
      <point x="295" y="618" type="curve" smooth="yes"/>
      <point x="315" y="622"/>
      <point x="327" y="626"/>
      <point x="327" y="640" type="curve" smooth="yes"/>
      <point x="327" y="649"/>
      <point x="313" y="655"/>
      <point x="296" y="655" type="curve" smooth="yes"/>
      <point x="252" y="655"/>
      <point x="208" y="650"/>
      <point x="168" y="650" type="curve" smooth="yes"/>
      <point x="129" y="650"/>
      <point x="67" y="654"/>
      <point x="25" y="654" type="curve" smooth="yes"/>
      <point x="15" y="654"/>
      <point x="0" y="649"/>
      <point x="0" y="639" type="curve" smooth="yes"/>
      <point x="0" y="626"/>
      <point x="16" y="622"/>
      <point x="28" y="618" type="curve"/>
      <point x="68" y="607"/>
      <point x="81" y="584"/>
      <point x="95" y="554" type="curve" smooth="yes"/>
      <point x="355" y="8" type="line" smooth="yes"/>
      <point x="361" y="-5"/>
      <point x="365" y="-17"/>
    </contour>
  </outline>
</glyph>
<glyph name="Y" format="2">
  <advance width="671"/>
  <unicode hex="0059"/>
  <anchor x="352" y="-30" name="bottom.cap"/>
  <anchor x="384" y="675" name="top.cap"/>
  <note>
Y
</note>
  <outline>
    <contour>
      <point x="195" y="-6" type="curve" smooth="yes"/>
      <point x="239" y="-6"/>
      <point x="305" y="3"/>
      <point x="345" y="3" type="curve" smooth="yes"/>
      <point x="384" y="3"/>
      <point x="459" y="-5"/>
      <point x="501" y="-5" type="curve" smooth="yes"/>
      <point x="516" y="-5"/>
      <point x="527" y="2"/>
      <point x="527" y="12" type="curve" smooth="yes"/>
      <point x="527" y="25"/>
      <point x="513" y="29"/>
      <point x="498" y="33" type="curve" smooth="yes"/>
      <point x="446" y="47"/>
      <point x="432" y="60"/>
      <point x="432" y="111" type="curve" smooth="yes"/>
      <point x="432" y="256" type="line" smooth="yes"/>
      <point x="432" y="297"/>
      <point x="445" y="329"/>
      <point x="460" y="355" type="curve" smooth="yes"/>
      <point x="500" y="424"/>
      <point x="543" y="489"/>
      <point x="584" y="557" type="curve" smooth="yes"/>
      <point x="600" y="585"/>
      <point x="630" y="609"/>
      <point x="670" y="620" type="curve"/>
      <point x="682" y="624"/>
      <point x="696" y="627"/>
      <point x="696" y="640" type="curve" smooth="yes"/>
      <point x="696" y="653"/>
      <point x="681" y="657"/>
      <point x="666" y="657" type="curve" smooth="yes"/>
      <point x="626" y="657"/>
      <point x="598" y="649"/>
      <point x="565" y="649" type="curve" smooth="yes"/>
      <point x="528" y="649"/>
      <point x="497" y="654"/>
      <point x="457" y="654" type="curve" smooth="yes"/>
      <point x="443" y="654"/>
      <point x="428" y="649"/>
      <point x="428" y="640" type="curve" smooth="yes"/>
      <point x="428" y="628"/>
      <point x="445" y="619"/>
      <point x="458" y="618" type="curve" smooth="yes"/>
      <point x="486" y="616"/>
      <point x="515" y="603"/>
      <point x="515" y="576" type="curve" smooth="yes"/>
      <point x="515" y="564"/>
      <point x="510" y="549"/>
      <point x="505" y="538" type="curve" smooth="yes"/>
      <point x="477" y="476"/>
      <point x="448" y="421"/>
      <point x="416" y="364" type="curve"/>
      <point x="411" y="356"/>
      <point x="406" y="351"/>
      <point x="401" y="351" type="curve" smooth="yes"/>
      <point x="396" y="351"/>
      <point x="390" y="354"/>
      <point x="385" y="364" type="curve" smooth="yes"/>
      <point x="280" y="543" type="line"/>
      <point x="273" y="555"/>
      <point x="269" y="568"/>
      <point x="269" y="578" type="curve" smooth="yes"/>
      <point x="269" y="601"/>
      <point x="285" y="609"/>
      <point x="325" y="618" type="curve" smooth="yes"/>
      <point x="337" y="621"/>
      <point x="353" y="628"/>
      <point x="353" y="640" type="curve" smooth="yes"/>
      <point x="353" y="649"/>
      <point x="337" y="655"/>
      <point x="326" y="655" type="curve" smooth="yes"/>
      <point x="276" y="655"/>
      <point x="237" y="648"/>
      <point x="191" y="648" type="curve" smooth="yes"/>
      <point x="131" y="648"/>
      <point x="82" y="654"/>
      <point x="19" y="654" type="curve" smooth="yes"/>
      <point x="9" y="654"/>
      <point x="0" y="649"/>
      <point x="0" y="639" type="curve" smooth="yes"/>
      <point x="0" y="626"/>
      <point x="10" y="622"/>
      <point x="22" y="618" type="curve"/>
      <point x="62" y="607"/>
      <point x="80" y="582"/>
      <point x="98" y="554" type="curve" smooth="yes"/>
      <point x="229" y="353" type="line" smooth="yes"/>
      <point x="248" y="322"/>
      <point x="262" y="296"/>
      <point x="262" y="246" type="curve" smooth="yes"/>
      <point x="262" y="110" type="line" smooth="yes"/>
      <point x="262" y="69"/>
      <point x="247" y="43"/>
      <point x="196" y="33" type="curve" smooth="yes"/>
      <point x="181" y="30"/>
      <point x="167" y="23"/>
      <point x="167" y="11" type="curve" smooth="yes"/>
      <point x="167" y="2"/>
      <point x="178" y="-6"/>
    </contour>
  </outline>
</glyph>
<glyph name="bracketleft" format="2">
  <advance width="362"/>
  <unicode hex="005B"/>
  <note>
bracketleft
</note>
  <outline>
    <contour>
      <point x="152" y="-201" type="curve" smooth="yes"/>
      <point x="328" y="-200" type="line" smooth="yes"/>
      <point x="338" y="-200"/>
      <point x="348" y="-195"/>
      <point x="348" y="-179" type="curve" smooth="yes"/>
      <point x="348" y="-167"/>
      <point x="327" y="-161"/>
      <point x="309" y="-158" type="curve" smooth="yes"/>
      <point x="233" y="-146" type="line" smooth="yes"/>
      <point x="221" y="-144"/>
      <point x="216" y="-134"/>
      <point x="216" y="-125" type="curve" smooth="yes"/>
      <point x="217" y="626" type="line" smooth="yes"/>
      <point x="217" y="636"/>
      <point x="222" y="647"/>
      <point x="235" y="649" type="curve" smooth="yes"/>
      <point x="316" y="661" type="line" smooth="yes"/>
      <point x="327" y="663"/>
      <point x="352" y="668"/>
      <point x="352" y="683" type="curve" smooth="yes"/>
      <point x="352" y="699"/>
      <point x="338" y="700"/>
      <point x="328" y="700" type="curve" smooth="yes"/>
      <point x="152" y="701" type="line" smooth="yes"/>
      <point x="117" y="701"/>
      <point x="110" y="701"/>
      <point x="110" y="645" type="curve" smooth="yes"/>
      <point x="110" y="-145" type="line" smooth="yes"/>
      <point x="110" y="-201"/>
      <point x="117" y="-201"/>
    </contour>
  </outline>
</glyph>
<glyph name="backslash" format="2">
  <advance width="407"/>
  <unicode hex="005C"/>
  <note>
backslash
</note>
  <outline>
    <contour>
      <point x="371" y="-62" type="curve" smooth="yes"/>
      <point x="386" y="-62"/>
      <point x="396" y="-52"/>
      <point x="392" y="-42" type="curve" smooth="yes"/>
      <point x="80" y="645" type="line" smooth="yes"/>
      <point x="71" y="664"/>
      <point x="55" y="667"/>
      <point x="33" y="667" type="curve" smooth="yes"/>
      <point x="15" y="667"/>
      <point x="7" y="654"/>
      <point x="11" y="645" type="curve" smooth="yes"/>
      <point x="324" y="-42" type="line" smooth="yes"/>
      <point x="332" y="-60"/>
      <point x="352" y="-62"/>
    </contour>
  </outline>
</glyph>
<glyph name="asciicircum" format="2">
  <advance width="517"/>
  <unicode hex="005E"/>
  <guideline x="256" y="242" angle="0"/>
  <note>
asciicircum
</note>
  <outline>
    <contour>
      <point x="54" y="242" type="curve" smooth="yes"/>
      <point x="74" y="242"/>
      <point x="91" y="259"/>
      <point x="104" y="279" type="curve" smooth="yes"/>
      <point x="252" y="500" type="line" smooth="yes"/>
      <point x="255" y="505"/>
      <point x="257" y="507"/>
      <point x="262" y="500" type="curve" smooth="yes"/>
      <point x="413" y="279" type="line" smooth="yes"/>
      <point x="426" y="259"/>
      <point x="443" y="242"/>
      <point x="463" y="242" type="curve" smooth="yes"/>
      <point x="484" y="242"/>
      <point x="491" y="255"/>
      <point x="485" y="266" type="curve"/>
      <point x="261" y="609" type="line"/>
      <point x="253" y="609" type="line"/>
      <point x="32" y="266" type="line"/>
      <point x="31" y="264"/>
      <point x="30" y="261"/>
      <point x="30" y="259" type="curve" smooth="yes"/>
      <point x="30" y="246"/>
      <point x="42" y="242"/>
    </contour>
  </outline>
</glyph>
<glyph name="underscore" format="2">
  <advance width="610"/>
  <unicode hex="005F"/>
  <note>
underscore
</note>
  <outline>
    <contour>
      <point x="585" y="-127" type="curve" smooth="yes"/>
      <point x="29" y="-127" type="line" smooth="yes"/>
      <point x="8" y="-127"/>
      <point x="0" y="-162"/>
      <point x="0" y="-174" type="curve" smooth="yes"/>
      <point x="0" y="-180"/>
      <point x="8" y="-188"/>
      <point x="17" y="-188" type="curve" smooth="yes"/>
      <point x="575" y="-188" type="line" smooth="yes"/>
      <point x="594" y="-188"/>
      <point x="609" y="-160"/>
      <point x="609" y="-143" type="curve" smooth="yes"/>
      <point x="609" y="-134"/>
      <point x="599" y="-127"/>
    </contour>
  </outline>
</glyph>
<glyph name="a" format="2">
  <advance width="447"/>
  <unicode hex="0061"/>
  <note>
a
</note>
  <anchor x="199" y="-30" name="bottom"/>
  <anchor x="227" y="440" name="top"/>
  <outline>
    <contour>
      <point x="132" y="-14" type="curve" smooth="yes"/>
      <point x="171" y="-14"/>
      <point x="202" y="2"/>
      <point x="246" y="44" type="curve"/>
      <point x="248" y="44" type="line"/>
      <point x="275" y="4"/>
      <point x="304" y="-14"/>
      <point x="345" y="-14" type="curve" smooth="yes"/>
      <point x="377" y="-14"/>
      <point x="407" y="-1"/>
      <point x="432" y="24" type="curve" smooth="yes"/>
      <point x="445" y="37"/>
      <point x="452" y="48"/>
      <point x="452" y="56" type="curve" smooth="yes"/>
      <point x="452" y="62"/>
      <point x="446" y="68"/>
      <point x="440" y="68" type="curve" smooth="yes"/>
      <point x="438" y="68"/>
      <point x="436" y="67"/>
      <point x="434" y="65" type="curve"/>
      <point x="424" y="56"/>
      <point x="414" y="52"/>
      <point x="402" y="52" type="curve" smooth="yes"/>
      <point x="385" y="52"/>
      <point x="372" y="77"/>
      <point x="373" y="108" type="curve" smooth="yes"/>
      <point x="378" y="302" type="line" smooth="yes"/>
      <point x="380" y="383"/>
      <point x="331" y="436"/>
      <point x="255" y="436" type="curve" smooth="yes"/>
      <point x="210" y="436"/>
      <point x="133" y="402"/>
      <point x="80" y="359" type="curve" smooth="yes"/>
      <point x="45" y="331"/>
      <point x="32" y="313"/>
      <point x="32" y="292" type="curve" smooth="yes"/>
      <point x="32" y="279"/>
      <point x="40" y="269"/>
      <point x="51" y="269" type="curve" smooth="yes"/>
      <point x="83" y="269"/>
      <point x="145" y="296"/>
      <point x="145" y="310" type="curve" smooth="yes"/>
      <point x="145" y="318"/>
      <point x="143" y="333"/>
      <point x="143" y="341" type="curve" smooth="yes"/>
      <point x="143" y="348"/>
      <point x="144" y="355"/>
      <point x="148" y="360" type="curve" smooth="yes"/>
      <point x="156" y="369"/>
      <point x="176" y="378"/>
      <point x="192" y="378" type="curve" smooth="yes"/>
      <point x="220" y="378"/>
      <point x="233" y="356"/>
      <point x="232" y="318" type="curve" smooth="yes"/>
      <point x="231" y="263" type="line" smooth="yes"/>
      <point x="231" y="237"/>
      <point x="228" y="232"/>
      <point x="201" y="220" type="curve" smooth="yes"/>
      <point x="115" y="182" type="line" smooth="yes"/>
      <point x="57" y="156"/>
      <point x="27" y="127"/>
      <point x="27" y="80" type="curve" smooth="yes"/>
      <point x="27" y="28"/>
      <point x="74" y="-14"/>
    </contour>
    <contour>
      <point x="194" y="55" type="curve" smooth="yes"/>
      <point x="179" y="55"/>
      <point x="160" y="65"/>
      <point x="160" y="104" type="curve" smooth="yes"/>
      <point x="160" y="151"/>
      <point x="177" y="162"/>
      <point x="209" y="179" type="curve" smooth="yes"/>
      <point x="213" y="181"/>
      <point x="216" y="182"/>
      <point x="219" y="182" type="curve" smooth="yes"/>
      <point x="224" y="182"/>
      <point x="229" y="180"/>
      <point x="229" y="168" type="curve" smooth="yes"/>
      <point x="226" y="91" type="line"/>
      <point x="226" y="81"/>
      <point x="224" y="73"/>
      <point x="220" y="68" type="curve" smooth="yes"/>
      <point x="213" y="59"/>
      <point x="206" y="55"/>
    </contour>
  </outline>
</glyph>
<glyph name="c" format="2">
  <advance width="412"/>
  <unicode hex="0063"/>
  <anchor x="229" y="440" name="top"/>
  <note>
c
</note>
  <outline>
    <contour>
      <point x="211" y="-14" type="curve" smooth="yes"/>
      <point x="300" y="-14"/>
      <point x="373" y="61"/>
      <point x="390" y="102" type="curve" smooth="yes"/>
      <point x="395" y="114"/>
      <point x="396" y="123"/>
      <point x="396" y="129" type="curve" smooth="yes"/>
      <point x="396" y="139"/>
      <point x="392" y="145"/>
      <point x="384" y="145" type="curve" smooth="yes"/>
      <point x="377" y="145"/>
      <point x="373" y="140"/>
      <point x="366" y="135" type="curve" smooth="yes"/>
      <point x="334" y="111"/>
      <point x="307" y="97"/>
      <point x="267" y="97" type="curve" smooth="yes"/>
      <point x="185" y="97"/>
      <point x="142" y="155"/>
      <point x="142" y="253" type="curve" smooth="yes"/>
      <point x="142" y="347"/>
      <point x="164" y="381"/>
      <point x="211" y="381" type="curve" smooth="yes"/>
      <point x="238" y="381"/>
      <point x="275" y="362"/>
      <point x="311" y="331" type="curve" smooth="yes"/>
      <point x="322" y="322"/>
      <point x="333" y="312"/>
      <point x="347" y="312" type="curve" smooth="yes"/>
      <point x="362" y="312"/>
      <point x="396" y="348"/>
      <point x="396" y="360" type="curve" smooth="yes"/>
      <point x="396" y="365"/>
      <point x="393" y="372"/>
      <point x="388" y="378" type="curve" smooth="yes"/>
      <point x="353" y="415"/>
      <point x="302" y="436"/>
      <point x="247" y="436" type="curve" smooth="yes"/>
      <point x="121" y="436"/>
      <point x="21" y="334"/>
      <point x="21" y="205" type="curve" smooth="yes"/>
      <point x="21" y="81"/>
      <point x="103" y="-14"/>
    </contour>
  </outline>
</glyph>
<glyph name="d" format="2">
  <advance width="563"/>
  <unicode hex="0064"/>
  <anchor x="252" y="-30" name="bottom"/>
  <note>
d
</note>
  <outline>
    <contour>
      <point x="358" y="-19" type="curve" smooth="yes"/>
      <point x="362" y="-19"/>
      <point x="368" y="-17"/>
      <point x="376" y="-13" type="curve" smooth="yes"/>
      <point x="425" y="5"/>
      <point x="484" y="18"/>
      <point x="535" y="24" type="curve" smooth="yes"/>
      <point x="542" y="24"/>
      <point x="553" y="40"/>
      <point x="553" y="51" type="curve" smooth="yes"/>
      <point x="553" y="61"/>
      <point x="550" y="63"/>
      <point x="540" y="62" type="curve" smooth="yes"/>
      <point x="507" y="59"/>
      <point x="507" y="59"/>
      <point x="501" y="59" type="curve" smooth="yes"/>
      <point x="484" y="59"/>
      <point x="478" y="76"/>
      <point x="478" y="122" type="curve" smooth="yes"/>
      <point x="484" y="638" type="line"/>
      <point x="485" y="659"/>
      <point x="489" y="701"/>
      <point x="489" y="692" type="curve"/>
      <point x="489" y="700"/>
      <point x="484" y="705"/>
      <point x="477" y="705" type="curve" smooth="yes"/>
      <point x="475" y="705"/>
      <point x="471" y="704"/>
      <point x="451" y="695" type="curve" smooth="yes"/>
      <point x="414" y="679"/>
      <point x="350" y="659"/>
      <point x="302" y="649" type="curve" smooth="yes"/>
      <point x="295" y="648"/>
      <point x="291" y="642"/>
      <point x="291" y="634" type="curve" smooth="yes"/>
      <point x="291" y="626"/>
      <point x="295" y="620"/>
      <point x="303" y="618" type="curve" smooth="yes"/>
      <point x="331" y="612"/>
      <point x="340" y="593"/>
      <point x="340" y="546" type="curve" smooth="yes"/>
      <point x="340" y="433" type="line" smooth="yes"/>
      <point x="340" y="425"/>
      <point x="339" y="422"/>
      <point x="336" y="422" type="curve"/>
      <point x="337" y="422"/>
      <point x="333" y="423"/>
      <point x="323" y="425" type="curve" smooth="yes"/>
      <point x="304" y="430"/>
      <point x="283" y="433"/>
      <point x="264" y="433" type="curve" smooth="yes"/>
      <point x="121" y="433"/>
      <point x="21" y="336"/>
      <point x="21" y="196" type="curve" smooth="yes"/>
      <point x="21" y="77"/>
      <point x="106" y="-14"/>
      <point x="216" y="-14" type="curve" smooth="yes"/>
      <point x="268" y="-14"/>
      <point x="320" y="13"/>
      <point x="349" y="57" type="curve"/>
      <point x="349" y="51" type="line"/>
      <point x="348" y="37"/>
      <point x="347" y="22"/>
      <point x="343" y="-1" type="curve" smooth="yes"/>
      <point x="343" y="-6"/>
      <point x="354" y="-19"/>
    </contour>
    <contour>
      <point x="271" y="58" type="curve" smooth="yes"/>
      <point x="215" y="58"/>
      <point x="175" y="126"/>
      <point x="175" y="224" type="curve" smooth="yes"/>
      <point x="175" y="317"/>
      <point x="210" y="384"/>
      <point x="258" y="384" type="curve" smooth="yes"/>
      <point x="292" y="384"/>
      <point x="339" y="344"/>
      <point x="339" y="315" type="curve" smooth="yes"/>
      <point x="340" y="84" type="line"/>
      <point x="322" y="66"/>
      <point x="287" y="58"/>
    </contour>
  </outline>
</glyph>
<glyph name="e" format="2">
  <advance width="423"/>
  <unicode hex="0065"/>
  <anchor x="226" y="-30" name="bottom"/>
  <anchor x="238" y="440" name="top"/>
  <note>
e
</note>
  <outline>
    <contour>
      <point x="211" y="-14" type="curve" smooth="yes"/>
      <point x="307" y="-14"/>
      <point x="373" y="45"/>
      <point x="391" y="100" type="curve" smooth="yes"/>
      <point x="395" y="112"/>
      <point x="397" y="121"/>
      <point x="397" y="127" type="curve" smooth="yes"/>
      <point x="397" y="135"/>
      <point x="393" y="140"/>
      <point x="386" y="140" type="curve" smooth="yes"/>
      <point x="382" y="140"/>
      <point x="376" y="136"/>
      <point x="372" y="133" type="curve" smooth="yes"/>
      <point x="338" y="108"/>
      <point x="307" y="92"/>
      <point x="269" y="92" type="curve" smooth="yes"/>
      <point x="195" y="92"/>
      <point x="144" y="148"/>
      <point x="144" y="221" type="curve" smooth="yes"/>
      <point x="144" y="246"/>
      <point x="152" y="256"/>
      <point x="171" y="256" type="curve" smooth="yes"/>
      <point x="369" y="256" type="line" smooth="yes"/>
      <point x="391" y="256"/>
      <point x="400" y="268"/>
      <point x="400" y="295" type="curve" smooth="yes"/>
      <point x="400" y="374"/>
      <point x="331" y="436"/>
      <point x="245" y="436" type="curve" smooth="yes"/>
      <point x="121" y="436"/>
      <point x="21" y="333"/>
      <point x="21" y="205" type="curve" smooth="yes"/>
      <point x="21" y="81"/>
      <point x="103" y="-14"/>
    </contour>
    <contour>
      <point x="171" y="300" type="line" smooth="yes"/>
      <point x="162" y="300"/>
      <point x="156" y="306"/>
      <point x="156" y="315" type="curve" smooth="yes"/>
      <point x="154" y="354"/>
      <point x="192" y="394"/>
      <point x="232" y="394" type="curve" smooth="yes"/>
      <point x="266" y="394"/>
      <point x="291" y="369"/>
      <point x="291" y="335" type="curve" smooth="yes"/>
      <point x="291" y="321"/>
      <point x="286" y="307"/>
      <point x="280" y="305" type="curve" smooth="yes"/>
      <point x="269" y="301"/>
      <point x="263" y="300"/>
      <point x="224" y="300" type="curve" smooth="yes"/>
    </contour>
  </outline>
</glyph>
<glyph name="f" format="2">
  <advance width="369"/>
  <unicode hex="0066"/>
  <note>
f
</note>
  <outline>
    <contour>
      <point x="40" y="-3" type="curve" smooth="yes"/>
      <point x="80" y="-3"/>
      <point x="120" y="2"/>
      <point x="155" y="2" type="curve" smooth="yes"/>
      <point x="190" y="2"/>
      <point x="253" y="-3"/>
      <point x="293" y="-3" type="curve" smooth="yes"/>
      <point x="301" y="-3"/>
      <point x="309" y="6"/>
      <point x="309" y="14" type="curve" smooth="yes"/>
      <point x="309" y="25"/>
      <point x="303" y="30"/>
      <point x="290" y="33" type="curve" smooth="yes"/>
      <point x="234" y="45"/>
      <point x="225" y="55"/>
      <point x="225" y="91" type="curve" smooth="yes"/>
      <point x="225" y="336" type="line" smooth="yes"/>
      <point x="225" y="354"/>
      <point x="233" y="361"/>
      <point x="265" y="361" type="curve" smooth="yes"/>
      <point x="352" y="361" type="line" smooth="yes"/>
      <point x="354" y="361"/>
      <point x="357" y="364"/>
      <point x="360" y="369" type="curve" smooth="yes"/>
      <point x="365" y="378"/>
      <point x="369" y="394"/>
      <point x="369" y="406" type="curve" smooth="yes"/>
      <point x="369" y="414"/>
      <point x="364" y="423"/>
      <point x="352" y="423" type="curve" smooth="yes"/>
      <point x="242" y="423" type="line" smooth="yes"/>
      <point x="233" y="423"/>
      <point x="225" y="426"/>
      <point x="225" y="438" type="curve" smooth="yes"/>
      <point x="225" y="519" type="line" smooth="yes"/>
      <point x="225" y="617"/>
      <point x="251" y="659"/>
      <point x="303" y="659" type="curve" smooth="yes"/>
      <point x="346" y="659"/>
      <point x="377" y="628"/>
      <point x="401" y="601" type="curve" smooth="yes"/>
      <point x="414" y="584"/>
      <point x="426" y="572"/>
      <point x="438" y="572" type="curve" smooth="yes"/>
      <point x="464" y="572"/>
      <point x="479" y="593"/>
      <point x="479" y="624" type="curve" smooth="yes"/>
      <point x="479" y="681"/>
      <point x="440" y="706"/>
      <point x="345" y="706" type="curve" smooth="yes"/>
      <point x="240" y="706"/>
      <point x="94" y="635"/>
      <point x="80" y="423" type="curve"/>
      <point x="59" y="414"/>
      <point x="40" y="406"/>
      <point x="24" y="400" type="curve" smooth="yes"/>
      <point x="18" y="398"/>
      <point x="14" y="395"/>
      <point x="14" y="390" type="curve" smooth="yes"/>
      <point x="14" y="379"/>
      <point x="20" y="359"/>
      <point x="28" y="358" type="curve" smooth="yes"/>
      <point x="49" y="356"/>
      <point x="67" y="356"/>
      <point x="80" y="356" type="curve"/>
      <point x="80" y="71" type="line" smooth="yes"/>
      <point x="80" y="49"/>
      <point x="76" y="44"/>
      <point x="38" y="32" type="curve" smooth="yes"/>
      <point x="27" y="28"/>
      <point x="20" y="23"/>
      <point x="20" y="12" type="curve" smooth="yes"/>
      <point x="20" y="3"/>
      <point x="32" y="-3"/>
    </contour>
  </outline>
</glyph>
<glyph name="h" format="2">
  <advance width="569"/>
  <unicode hex="0068"/>
  <note>
h
</note>
  <anchor x="281" y="-30" name="bottom"/>
  <outline>
    <contour>
      <point x="36" y="-3" type="curve" smooth="yes"/>
      <point x="76" y="-3"/>
      <point x="110" y="2"/>
      <point x="145" y="2" type="curve" smooth="yes"/>
      <point x="180" y="2"/>
      <point x="216" y="-3"/>
      <point x="256" y="-3" type="curve" smooth="yes"/>
      <point x="267" y="-3"/>
      <point x="273" y="4"/>
      <point x="273" y="13" type="curve" smooth="yes"/>
      <point x="273" y="23"/>
      <point x="263" y="30"/>
      <point x="253" y="34" type="curve" smooth="yes"/>
      <point x="236" y="40"/>
      <point x="221" y="46"/>
      <point x="221" y="73" type="curve" smooth="yes"/>
      <point x="221" y="296" type="line" smooth="yes"/>
      <point x="221" y="312"/>
      <point x="223" y="318"/>
      <point x="231" y="324" type="curve" smooth="yes"/>
      <point x="253" y="340"/>
      <point x="276" y="346"/>
      <point x="295" y="346" type="curve" smooth="yes"/>
      <point x="326" y="346"/>
      <point x="353" y="313"/>
      <point x="353" y="271" type="curve" smooth="yes"/>
      <point x="353" y="75" type="line" smooth="yes"/>
      <point x="353" y="46"/>
      <point x="336" y="38"/>
      <point x="319" y="33" type="curve" smooth="yes"/>
      <point x="309" y="30"/>
      <point x="299" y="24"/>
      <point x="299" y="13" type="curve" smooth="yes"/>
      <point x="299" y="2"/>
      <point x="308" y="-3"/>
      <point x="324" y="-3" type="curve" smooth="yes"/>
      <point x="374" y="-3"/>
      <point x="378" y="2"/>
      <point x="424" y="2" type="curve" smooth="yes"/>
      <point x="467" y="2"/>
      <point x="482" y="-3"/>
      <point x="532" y="-3" type="curve" smooth="yes"/>
      <point x="547" y="-3"/>
      <point x="554" y="4"/>
      <point x="554" y="12" type="curve" smooth="yes"/>
      <point x="554" y="23"/>
      <point x="546" y="28"/>
      <point x="533" y="33" type="curve" smooth="yes"/>
      <point x="514" y="40"/>
      <point x="498" y="45"/>
      <point x="498" y="73" type="curve" smooth="yes"/>
      <point x="498" y="293" type="line" smooth="yes"/>
      <point x="498" y="384"/>
      <point x="442" y="436"/>
      <point x="370" y="436" type="curve" smooth="yes"/>
      <point x="301" y="436"/>
      <point x="255" y="393"/>
      <point x="225" y="367" type="curve"/>
      <point x="221" y="370"/>
      <point x="220" y="382"/>
      <point x="220" y="394" type="curve" smooth="yes"/>
      <point x="220" y="638" type="line"/>
      <point x="221" y="657"/>
      <point x="225" y="682"/>
      <point x="225" y="692" type="curve" smooth="yes"/>
      <point x="225" y="698"/>
      <point x="223" y="705"/>
      <point x="214" y="705" type="curve" smooth="yes"/>
      <point x="210" y="705"/>
      <point x="206" y="704"/>
      <point x="200" y="702" type="curve" smooth="yes"/>
      <point x="169" y="691"/>
      <point x="87" y="659"/>
      <point x="37" y="649" type="curve" smooth="yes"/>
      <point x="31" y="648"/>
      <point x="27" y="643"/>
      <point x="27" y="634" type="curve" smooth="yes"/>
      <point x="27" y="624"/>
      <point x="31" y="619"/>
      <point x="38" y="618" type="curve" smooth="yes"/>
      <point x="71" y="611"/>
      <point x="76" y="582"/>
      <point x="76" y="546" type="curve" smooth="yes"/>
      <point x="76" y="71" type="line" smooth="yes"/>
      <point x="76" y="42"/>
      <point x="59" y="40"/>
      <point x="39" y="33" type="curve" smooth="yes"/>
      <point x="24" y="28"/>
      <point x="16" y="22"/>
      <point x="16" y="12" type="curve" smooth="yes"/>
      <point x="16" y="3"/>
      <point x="23" y="-3"/>
    </contour>
  </outline>
</glyph>
<glyph name="l" format="2">
  <advance width="295"/>
  <unicode hex="006C"/>
  <anchor x="146" y="-30" name="bottom"/>
  <note>
l
</note>
  <outline>
    <contour>
      <point x="35" y="-3" type="curve" smooth="yes"/>
      <point x="75" y="-3"/>
      <point x="109" y="2"/>
      <point x="144" y="2" type="curve" smooth="yes"/>
      <point x="179" y="2"/>
      <point x="220" y="-1"/>
      <point x="260" y="-1" type="curve"/>
      <point x="273" y="-1"/>
      <point x="280" y="5"/>
      <point x="280" y="14" type="curve" smooth="yes"/>
      <point x="280" y="24"/>
      <point x="272" y="30"/>
      <point x="257" y="35" type="curve" smooth="yes"/>
      <point x="237" y="42"/>
      <point x="220" y="44"/>
      <point x="220" y="73" type="curve"/>
      <point x="220" y="638" type="line"/>
      <point x="221" y="657"/>
      <point x="225" y="682"/>
      <point x="225" y="692" type="curve" smooth="yes"/>
      <point x="225" y="698"/>
      <point x="223" y="705"/>
      <point x="214" y="705" type="curve" smooth="yes"/>
      <point x="210" y="705"/>
      <point x="206" y="704"/>
      <point x="200" y="702" type="curve" smooth="yes"/>
      <point x="169" y="691"/>
      <point x="86" y="659"/>
      <point x="36" y="649" type="curve" smooth="yes"/>
      <point x="30" y="648"/>
      <point x="26" y="643"/>
      <point x="26" y="634" type="curve" smooth="yes"/>
      <point x="26" y="624"/>
      <point x="30" y="619"/>
      <point x="37" y="618" type="curve" smooth="yes"/>
      <point x="70" y="611"/>
      <point x="75" y="582"/>
      <point x="75" y="546" type="curve" smooth="yes"/>
      <point x="75" y="71" type="line" smooth="yes"/>
      <point x="75" y="42"/>
      <point x="58" y="40"/>
      <point x="38" y="33" type="curve" smooth="yes"/>
      <point x="23" y="28"/>
      <point x="15" y="22"/>
      <point x="15" y="12" type="curve" smooth="yes"/>
      <point x="15" y="3"/>
      <point x="22" y="-3"/>
    </contour>
  </outline>
</glyph>
<glyph name="m" format="2">
  <advance width="813"/>
  <unicode hex="006D"/>
  <note>
m
</note>
  <anchor x="411" y="-30" name="bottom"/>
  <anchor x="429" y="440" name="top"/>
  <outline>
    <contour>
      <point x="40" y="-3" type="curve" smooth="yes"/>
      <point x="80" y="-3"/>
      <point x="116" y="2"/>
      <point x="151" y="2" type="curve" smooth="yes"/>
      <point x="186" y="2"/>
      <point x="212" y="-3"/>
      <point x="252" y="-3" type="curve" smooth="yes"/>
      <point x="260" y="-3"/>
      <point x="268" y="4"/>
      <point x="268" y="12" type="curve" smooth="yes"/>
      <point x="268" y="22"/>
      <point x="260" y="29"/>
      <point x="249" y="33" type="curve"/>
      <point x="229" y="39"/>
      <point x="225" y="47"/>
      <point x="225" y="70" type="curve" smooth="yes"/>
      <point x="225" y="292" type="line" smooth="yes"/>
      <point x="225" y="308"/>
      <point x="227" y="318"/>
      <point x="235" y="324" type="curve" smooth="yes"/>
      <point x="256" y="339"/>
      <point x="275" y="345"/>
      <point x="289" y="345" type="curve" smooth="yes"/>
      <point x="319" y="344"/>
      <point x="338" y="316"/>
      <point x="338" y="267" type="curve" smooth="yes"/>
      <point x="338" y="63" type="line" smooth="yes"/>
      <point x="338" y="44"/>
      <point x="331" y="38"/>
      <point x="314" y="33" type="curve"/>
      <point x="303" y="29"/>
      <point x="295" y="23"/>
      <point x="295" y="12" type="curve" smooth="yes"/>
      <point x="295" y="3"/>
      <point x="303" y="-3"/>
      <point x="311" y="-3" type="curve" smooth="yes"/>
      <point x="351" y="-3"/>
      <point x="376" y="2"/>
      <point x="411" y="2" type="curve" smooth="yes"/>
      <point x="446" y="2"/>
      <point x="473" y="-3"/>
      <point x="513" y="-3" type="curve" smooth="yes"/>
      <point x="521" y="-3"/>
      <point x="530" y="3"/>
      <point x="530" y="12" type="curve" smooth="yes"/>
      <point x="530" y="23"/>
      <point x="521" y="29"/>
      <point x="510" y="33" type="curve"/>
      <point x="490" y="39"/>
      <point x="483" y="43"/>
      <point x="483" y="70" type="curve" smooth="yes"/>
      <point x="483" y="288" type="line" smooth="yes"/>
      <point x="483" y="305"/>
      <point x="485" y="315"/>
      <point x="494" y="323" type="curve" smooth="yes"/>
      <point x="512" y="339"/>
      <point x="532" y="346"/>
      <point x="546" y="346" type="curve" smooth="yes"/>
      <point x="576" y="345"/>
      <point x="596" y="316"/>
      <point x="596" y="267" type="curve" smooth="yes"/>
      <point x="596" y="63" type="line" smooth="yes"/>
      <point x="596" y="44"/>
      <point x="589" y="38"/>
      <point x="572" y="33" type="curve"/>
      <point x="561" y="29"/>
      <point x="553" y="23"/>
      <point x="553" y="12" type="curve" smooth="yes"/>
      <point x="553" y="3"/>
      <point x="561" y="-3"/>
      <point x="569" y="-3" type="curve" smooth="yes"/>
      <point x="609" y="-3"/>
      <point x="634" y="2"/>
      <point x="669" y="2" type="curve" smooth="yes"/>
      <point x="704" y="2"/>
      <point x="741" y="-3"/>
      <point x="781" y="-3" type="curve" smooth="yes"/>
      <point x="789" y="-3"/>
      <point x="798" y="3"/>
      <point x="798" y="12" type="curve" smooth="yes"/>
      <point x="798" y="23"/>
      <point x="789" y="29"/>
      <point x="778" y="33" type="curve"/>
      <point x="758" y="39"/>
      <point x="741" y="43"/>
      <point x="741" y="70" type="curve" smooth="yes"/>
      <point x="741" y="292" type="line" smooth="yes"/>
      <point x="741" y="384"/>
      <point x="690" y="436"/>
      <point x="628" y="436" type="curve" smooth="yes"/>
      <point x="566" y="436"/>
      <point x="518" y="407"/>
      <point x="479" y="357" type="curve"/>
      <point x="474" y="357" type="line"/>
      <point x="458" y="401"/>
      <point x="419" y="436"/>
      <point x="379" y="436" type="curve" smooth="yes"/>
      <point x="321" y="436"/>
      <point x="275" y="410"/>
      <point x="232" y="368" type="curve"/>
      <point x="230" y="368" type="line"/>
      <point x="229" y="369"/>
      <point x="228" y="374"/>
      <point x="228" y="380" type="curve" smooth="yes"/>
      <point x="228" y="399"/>
      <point x="233" y="428"/>
      <point x="233" y="439" type="curve" smooth="yes"/>
      <point x="233" y="446"/>
      <point x="230" y="451"/>
      <point x="223" y="451" type="curve" smooth="yes"/>
      <point x="219" y="451"/>
      <point x="215" y="448"/>
      <point x="210" y="445" type="curve" smooth="yes"/>
      <point x="172" y="424"/>
      <point x="98" y="404"/>
      <point x="50" y="392" type="curve" smooth="yes"/>
      <point x="42" y="390"/>
      <point x="39" y="385"/>
      <point x="39" y="374" type="curve" smooth="yes"/>
      <point x="39" y="360"/>
      <point x="45" y="356"/>
      <point x="51" y="355" type="curve" smooth="yes"/>
      <point x="73" y="351"/>
      <point x="80" y="329"/>
      <point x="80" y="303" type="curve" smooth="yes"/>
      <point x="80" y="71" type="line" smooth="yes"/>
      <point x="80" y="44"/>
      <point x="63" y="39"/>
      <point x="43" y="33" type="curve"/>
      <point x="32" y="29"/>
      <point x="20" y="23"/>
      <point x="20" y="12" type="curve" smooth="yes"/>
      <point x="20" y="3"/>
      <point x="32" y="-3"/>
    </contour>
  </outline>
</glyph>
<glyph name="o" format="2">
  <advance width="505"/>
  <unicode hex="006F"/>
  <anchor x="250" y="-30" name="bottom"/>
  <anchor x="259" y="440" name="top"/>
  <note>
o
</note>
  <outline>
    <contour>
      <point x="238" y="-14" type="curve" smooth="yes"/>
      <point x="401" y="-14"/>
      <point x="484" y="95"/>
      <point x="484" y="226" type="curve" smooth="yes"/>
      <point x="484" y="339"/>
      <point x="385" y="437"/>
      <point x="260" y="437" type="curve" smooth="yes"/>
      <point x="126" y="437"/>
      <point x="21" y="328"/>
      <point x="21" y="197" type="curve" smooth="yes"/>
      <point x="21" y="74"/>
      <point x="116" y="-14"/>
    </contour>
    <contour>
      <point x="257" y="33" type="curve" smooth="yes"/>
      <point x="208" y="33"/>
      <point x="172" y="127"/>
      <point x="172" y="222" type="curve" smooth="yes"/>
      <point x="172" y="299"/>
      <point x="179" y="349"/>
      <point x="202" y="373" type="curve" smooth="yes"/>
      <point x="213" y="384"/>
      <point x="227" y="390"/>
      <point x="245" y="390" type="curve" smooth="yes"/>
      <point x="297" y="390"/>
      <point x="332" y="313"/>
      <point x="332" y="202" type="curve" smooth="yes"/>
      <point x="332" y="135"/>
      <point x="326" y="89"/>
      <point x="310" y="62" type="curve" smooth="yes"/>
      <point x="298" y="43"/>
      <point x="281" y="33"/>
    </contour>
  </outline>
</glyph>
<glyph name="q" format="2">
  <advance width="539"/>
  <unicode hex="0071"/>
  <note>
q
</note>
  <outline>
    <contour>
      <point x="280" y="-287" type="curve" smooth="yes"/>
      <point x="320" y="-287"/>
      <point x="371" y="-282"/>
      <point x="406" y="-282" type="curve" smooth="yes"/>
      <point x="441" y="-282"/>
      <point x="479" y="-287"/>
      <point x="519" y="-287" type="curve" smooth="yes"/>
      <point x="529" y="-287"/>
      <point x="539" y="-281"/>
      <point x="539" y="-272" type="curve" smooth="yes"/>
      <point x="539" y="-261"/>
      <point x="530" y="-255"/>
      <point x="516" y="-251" type="curve" smooth="yes"/>
      <point x="486" y="-242"/>
      <point x="479" y="-234"/>
      <point x="479" y="-213" type="curve"/>
      <point x="477" y="313" type="line" smooth="yes"/>
      <point x="477" y="371"/>
      <point x="488" y="407"/>
      <point x="488" y="419" type="curve" smooth="yes"/>
      <point x="488" y="426"/>
      <point x="482" y="432"/>
      <point x="469" y="432" type="curve" smooth="yes"/>
      <point x="464" y="432"/>
      <point x="459" y="429"/>
      <point x="453" y="425" type="curve" smooth="yes"/>
      <point x="442" y="417"/>
      <point x="428" y="412"/>
      <point x="415" y="412" type="curve" smooth="yes"/>
      <point x="387" y="412"/>
      <point x="338" y="437"/>
      <point x="268" y="437" type="curve" smooth="yes"/>
      <point x="99" y="437"/>
      <point x="20" y="318"/>
      <point x="20" y="196" type="curve" smooth="yes"/>
      <point x="20" y="80"/>
      <point x="99" y="-14"/>
      <point x="207" y="-14" type="curve" smooth="yes"/>
      <point x="244" y="-14"/>
      <point x="295" y="13"/>
      <point x="323" y="32" type="curve" smooth="yes"/>
      <point x="326" y="34"/>
      <point x="329" y="35"/>
      <point x="332" y="37" type="curve"/>
      <point x="335" y="37"/>
      <point x="339" y="29"/>
      <point x="339" y="15" type="curve" smooth="yes"/>
      <point x="338" y="-202" type="line"/>
      <point x="338" y="-231"/>
      <point x="323" y="-241"/>
      <point x="286" y="-252" type="curve" smooth="yes"/>
      <point x="272" y="-256"/>
      <point x="264" y="-262"/>
      <point x="264" y="-272" type="curve" smooth="yes"/>
      <point x="264" y="-280"/>
      <point x="271" y="-287"/>
    </contour>
    <contour>
      <point x="267" y="56" type="curve" smooth="yes"/>
      <point x="201" y="56"/>
      <point x="174" y="143"/>
      <point x="174" y="223" type="curve" smooth="yes"/>
      <point x="174" y="313"/>
      <point x="203" y="392"/>
      <point x="252" y="392" type="curve" smooth="yes"/>
      <point x="297" y="392"/>
      <point x="339" y="346"/>
      <point x="339" y="281" type="curve" smooth="yes"/>
      <point x="339" y="237"/>
      <point x="339" y="125"/>
      <point x="339" y="81" type="curve"/>
      <point x="322" y="61"/>
      <point x="291" y="56"/>
    </contour>
  </outline>
</glyph>
<glyph name="r" format="2">
  <advance width="432"/>
  <unicode hex="0072"/>
  <anchor x="163" y="-30" name="bottom"/>
  <anchor x="272" y="440" name="top"/>
  <note>
r
</note>
  <outline>
    <contour>
      <point x="40" y="-3" type="curve" smooth="yes"/>
      <point x="80" y="-3"/>
      <point x="120" y="2"/>
      <point x="155" y="2" type="curve" smooth="yes"/>
      <point x="190" y="2"/>
      <point x="243" y="-3"/>
      <point x="283" y="-3" type="curve" smooth="yes"/>
      <point x="292" y="-3"/>
      <point x="299" y="4"/>
      <point x="299" y="12" type="curve" smooth="yes"/>
      <point x="299" y="22"/>
      <point x="291" y="28"/>
      <point x="277" y="32" type="curve" smooth="yes"/>
      <point x="240" y="43"/>
      <point x="225" y="53"/>
      <point x="225" y="82" type="curve" smooth="yes"/>
      <point x="225" y="236" type="line" smooth="yes"/>
      <point x="225" y="313"/>
      <point x="252" y="333"/>
      <point x="287" y="333" type="curve" smooth="yes"/>
      <point x="297" y="333"/>
      <point x="311" y="326"/>
      <point x="325" y="319" type="curve" smooth="yes"/>
      <point x="339" y="312"/>
      <point x="354" y="304"/>
      <point x="367" y="304" type="curve" smooth="yes"/>
      <point x="398" y="304"/>
      <point x="429" y="355"/>
      <point x="429" y="387" type="curve" smooth="yes"/>
      <point x="429" y="416"/>
      <point x="411" y="437"/>
      <point x="362" y="437" type="curve" smooth="yes"/>
      <point x="311" y="437"/>
      <point x="262" y="387"/>
      <point x="232" y="346" type="curve"/>
      <point x="230" y="346"/>
      <point x="228" y="350"/>
      <point x="228" y="356" type="curve" smooth="yes"/>
      <point x="228" y="375"/>
      <point x="231" y="425"/>
      <point x="231" y="436" type="curve" smooth="yes"/>
      <point x="231" y="444"/>
      <point x="228" y="448"/>
      <point x="221" y="448" type="curve" smooth="yes"/>
      <point x="215" y="448"/>
      <point x="203" y="441"/>
      <point x="196" y="437" type="curve" smooth="yes"/>
      <point x="156" y="418"/>
      <point x="96" y="400"/>
      <point x="52" y="390" type="curve" smooth="yes"/>
      <point x="43" y="388"/>
      <point x="39" y="383"/>
      <point x="39" y="372" type="curve" smooth="yes"/>
      <point x="39" y="358"/>
      <point x="46" y="355"/>
      <point x="53" y="353" type="curve" smooth="yes"/>
      <point x="75" y="346"/>
      <point x="80" y="330"/>
      <point x="80" y="304" type="curve" smooth="yes"/>
      <point x="80" y="71" type="line" smooth="yes"/>
      <point x="80" y="50"/>
      <point x="73" y="42"/>
      <point x="43" y="33" type="curve" smooth="yes"/>
      <point x="29" y="29"/>
      <point x="20" y="23"/>
      <point x="20" y="12" type="curve" smooth="yes"/>
      <point x="20" y="3"/>
      <point x="30" y="-3"/>
    </contour>
  </outline>
</glyph>
<glyph name="s" format="2">
  <advance width="368"/>
  <unicode hex="0073"/>
  <anchor x="188" y="-30" name="bottom"/>
  <anchor x="202" y="440" name="top"/>
  <note>
s
</note>
  <outline>
    <contour>
      <point x="170" y="-14" type="curve" smooth="yes"/>
      <point x="284" y="-14"/>
      <point x="342" y="37"/>
      <point x="342" y="127" type="curve" smooth="yes"/>
      <point x="342" y="199"/>
      <point x="308" y="233"/>
      <point x="220" y="279" type="curve" smooth="yes"/>
      <point x="184" y="298"/>
      <point x="152" y="319"/>
      <point x="152" y="346" type="curve" smooth="yes"/>
      <point x="152" y="376"/>
      <point x="179" y="397"/>
      <point x="209" y="397" type="curve" smooth="yes"/>
      <point x="241" y="397"/>
      <point x="269" y="370"/>
      <point x="287" y="317" type="curve" smooth="yes"/>
      <point x="289" y="310"/>
      <point x="302" y="301"/>
      <point x="312" y="301" type="curve" smooth="yes"/>
      <point x="324" y="301"/>
      <point x="332" y="306"/>
      <point x="332" y="312" type="curve" smooth="yes"/>
      <point x="332" y="360"/>
      <point x="326" y="401"/>
      <point x="315" y="415" type="curve"/>
      <point x="300" y="424"/>
      <point x="256" y="437"/>
      <point x="211" y="437" type="curve" smooth="yes"/>
      <point x="120" y="437"/>
      <point x="45" y="385"/>
      <point x="45" y="304" type="curve" smooth="yes"/>
      <point x="45" y="224"/>
      <point x="107" y="184"/>
      <point x="163" y="157" type="curve" smooth="yes"/>
      <point x="196" y="141"/>
      <point x="230" y="119"/>
      <point x="230" y="85" type="curve" smooth="yes"/>
      <point x="230" y="59"/>
      <point x="213" y="34"/>
      <point x="179" y="34" type="curve" smooth="yes"/>
      <point x="129" y="34"/>
      <point x="100" y="83"/>
      <point x="74" y="137" type="curve" smooth="yes"/>
      <point x="71" y="144"/>
      <point x="62" y="154"/>
      <point x="50" y="154" type="curve" smooth="yes"/>
      <point x="38" y="154"/>
      <point x="29" y="149"/>
      <point x="29" y="141" type="curve" smooth="yes"/>
      <point x="27" y="89"/>
      <point x="33" y="40"/>
      <point x="46" y="19" type="curve"/>
      <point x="82" y="-5"/>
      <point x="125" y="-14"/>
    </contour>
  </outline>
</glyph>
<glyph name="t" format="2">
  <advance width="388"/>
  <unicode hex="0074"/>
  <anchor x="226" y="-30" name="bottom"/>
  <anchor x="176" y="480" name="top"/>
  <note>
t
</note>
  <outline>
    <contour>
      <point x="226" y="-14" type="curve" smooth="yes"/>
      <point x="306" y="-14"/>
      <point x="380" y="41"/>
      <point x="380" y="53" type="curve" smooth="yes"/>
      <point x="380" y="65"/>
      <point x="376" y="75"/>
      <point x="369" y="75" type="curve" smooth="yes"/>
      <point x="366" y="75"/>
      <point x="364" y="74"/>
      <point x="362" y="73" type="curve" smooth="yes"/>
      <point x="347" y="67"/>
      <point x="334" y="57"/>
      <point x="297" y="57" type="curve" smooth="yes"/>
      <point x="258" y="57"/>
      <point x="233" y="86"/>
      <point x="233" y="149" type="curve" smooth="yes"/>
      <point x="233" y="336" type="line" smooth="yes"/>
      <point x="233" y="353"/>
      <point x="244" y="361"/>
      <point x="273" y="361" type="curve" smooth="yes"/>
      <point x="365" y="361" type="line" smooth="yes"/>
      <point x="372" y="361"/>
      <point x="378" y="383"/>
      <point x="378" y="404" type="curve" smooth="yes"/>
      <point x="378" y="411"/>
      <point x="373" y="423"/>
      <point x="370" y="423" type="curve" smooth="yes"/>
      <point x="250" y="423" type="line" smooth="yes"/>
      <point x="234" y="423"/>
      <point x="223" y="428"/>
      <point x="225" y="445" type="curve" smooth="yes"/>
      <point x="232" y="507" type="line" smooth="yes"/>
      <point x="234" y="525"/>
      <point x="229" y="529"/>
      <point x="216" y="529" type="curve" smooth="yes"/>
      <point x="205" y="529"/>
      <point x="199" y="523"/>
      <point x="189" y="515" type="curve" smooth="yes"/>
      <point x="155" y="486"/>
      <point x="80" y="424"/>
      <point x="31" y="408" type="curve" smooth="yes"/>
      <point x="26" y="406"/>
      <point x="25" y="402"/>
      <point x="25" y="399" type="curve" smooth="yes"/>
      <point x="25" y="386"/>
      <point x="33" y="364"/>
      <point x="42" y="364" type="curve" smooth="yes"/>
      <point x="57" y="364" type="line" smooth="yes"/>
      <point x="79" y="363"/>
      <point x="88" y="358"/>
      <point x="88" y="346" type="curve" smooth="yes"/>
      <point x="88" y="116" type="line" smooth="yes"/>
      <point x="88" y="33"/>
      <point x="133" y="-14"/>
    </contour>
  </outline>
</glyph>
<glyph name="u" format="2">
  <advance width="556"/>
  <unicode hex="0075"/>
  <note>
u
</note>
  <anchor x="277" y="-30" name="bottom"/>
  <anchor x="289" y="440" name="top"/>
  <outline>
    <contour>
      <point x="342" y="-21" type="curve" smooth="yes"/>
      <point x="350" y="-21"/>
      <point x="359" y="-18"/>
      <point x="369" y="-14" type="curve" smooth="yes"/>
      <point x="407" y="1"/>
      <point x="463" y="21"/>
      <point x="530" y="27" type="curve" smooth="yes"/>
      <point x="545" y="28"/>
      <point x="548" y="37"/>
      <point x="548" y="50" type="curve" smooth="yes"/>
      <point x="548" y="61"/>
      <point x="541" y="69"/>
      <point x="528" y="69" type="curve" smooth="yes"/>
      <point x="524" y="69"/>
      <point x="509" y="70"/>
      <point x="504" y="70" type="curve" smooth="yes"/>
      <point x="495" y="70"/>
      <point x="486" y="76"/>
      <point x="486" y="106" type="curve" smooth="yes"/>
      <point x="486" y="338" type="line" smooth="yes"/>
      <point x="486" y="356"/>
      <point x="491" y="400"/>
      <point x="493" y="408" type="curve" smooth="yes"/>
      <point x="495" y="415"/>
      <point x="497" y="420"/>
      <point x="497" y="425" type="curve" smooth="yes"/>
      <point x="497" y="433"/>
      <point x="491" y="437"/>
      <point x="482" y="437" type="curve" smooth="yes"/>
      <point x="478" y="437"/>
      <point x="472" y="435"/>
      <point x="468" y="434" type="curve" smooth="yes"/>
      <point x="430" y="425"/>
      <point x="399" y="422"/>
      <point x="290" y="415" type="curve" smooth="yes"/>
      <point x="277" y="415"/>
      <point x="265" y="409"/>
      <point x="265" y="394" type="curve" smooth="yes"/>
      <point x="265" y="378"/>
      <point x="274" y="372"/>
      <point x="290" y="371" type="curve" smooth="yes"/>
      <point x="324" y="369"/>
      <point x="341" y="347"/>
      <point x="341" y="314" type="curve" smooth="yes"/>
      <point x="341" y="158" type="line" smooth="yes"/>
      <point x="341" y="124"/>
      <point x="333" y="105"/>
      <point x="327" y="98" type="curve"/>
      <point x="310" y="81"/>
      <point x="289" y="76"/>
      <point x="271" y="76" type="curve" smooth="yes"/>
      <point x="238" y="77"/>
      <point x="215" y="106"/>
      <point x="215" y="155" type="curve" smooth="yes"/>
      <point x="215" y="346" type="line" smooth="yes"/>
      <point x="215" y="376"/>
      <point x="217" y="392"/>
      <point x="223" y="423" type="curve"/>
      <point x="224" y="433"/>
      <point x="218" y="437"/>
      <point x="210" y="437" type="curve" smooth="yes"/>
      <point x="202" y="437"/>
      <point x="193" y="434"/>
      <point x="186" y="432" type="curve" smooth="yes"/>
      <point x="136" y="420"/>
      <point x="89" y="410"/>
      <point x="30" y="407" type="curve" smooth="yes"/>
      <point x="20" y="406"/>
      <point x="15" y="398"/>
      <point x="15" y="389" type="curve" smooth="yes"/>
      <point x="15" y="377"/>
      <point x="23" y="371"/>
      <point x="31" y="370" type="curve" smooth="yes"/>
      <point x="62" y="365"/>
      <point x="70" y="345"/>
      <point x="70" y="314" type="curve" smooth="yes"/>
      <point x="70" y="130" type="line" smooth="yes"/>
      <point x="70" y="49"/>
      <point x="118" y="-15"/>
      <point x="180" y="-15" type="curve" smooth="yes"/>
      <point x="241" y="-15"/>
      <point x="304" y="23"/>
      <point x="336" y="64" type="curve"/>
      <point x="337" y="63"/>
      <point x="338" y="58"/>
      <point x="338" y="52" type="curve" smooth="yes"/>
      <point x="338" y="38"/>
      <point x="333" y="5"/>
      <point x="333" y="-11" type="curve" smooth="yes"/>
      <point x="333" y="-18"/>
      <point x="337" y="-21"/>
    </contour>
  </outline>
</glyph>
<glyph name="v" format="2">
  <advance width="493"/>
  <unicode hex="0076"/>
  <guideline x="297" y="293" angle="90"/>
  <anchor x="260" y="-30" name="bottom"/>
  <anchor x="279" y="440" name="top"/>
  <note>
v
</note>
  <outline>
    <contour>
      <point x="246" y="-21" type="curve" smooth="yes"/>
      <point x="273" y="-21" type="line"/>
      <point x="284" y="0"/>
      <point x="305" y="50"/>
      <point x="313" y="68" type="curve" smooth="yes"/>
      <point x="323" y="89"/>
      <point x="335" y="113"/>
      <point x="344" y="135" type="curve" smooth="yes"/>
      <point x="422" y="333" type="line"/>
      <point x="434" y="364"/>
      <point x="455" y="385"/>
      <point x="480" y="394" type="curve" smooth="yes"/>
      <point x="493" y="399"/>
      <point x="498" y="404"/>
      <point x="498" y="416" type="curve" smooth="yes"/>
      <point x="498" y="427"/>
      <point x="482" y="428"/>
      <point x="473" y="428" type="curve"/>
      <point x="434" y="426"/>
      <point x="418" y="426"/>
      <point x="402" y="426" type="curve" smooth="yes"/>
      <point x="385" y="426"/>
      <point x="374" y="427"/>
      <point x="334" y="428" type="curve"/>
      <point x="325" y="428"/>
      <point x="310" y="425"/>
      <point x="310" y="414" type="curve" smooth="yes"/>
      <point x="310" y="402"/>
      <point x="321" y="399"/>
      <point x="332" y="395" type="curve" smooth="yes"/>
      <point x="354" y="387"/>
      <point x="365" y="368"/>
      <point x="365" y="345" type="curve" smooth="yes"/>
      <point x="365" y="336"/>
      <point x="364" y="325"/>
      <point x="360" y="315" type="curve" smooth="yes"/>
      <point x="304" y="165" type="line"/>
      <point x="303" y="165"/>
      <point x="302" y="165"/>
      <point x="301" y="165" type="curve"/>
      <point x="237" y="320" type="line" smooth="yes"/>
      <point x="232" y="331"/>
      <point x="233" y="341"/>
      <point x="233" y="353" type="curve" smooth="yes"/>
      <point x="233" y="377"/>
      <point x="242" y="390"/>
      <point x="257" y="396" type="curve"/>
      <point x="268" y="401"/>
      <point x="279" y="403"/>
      <point x="279" y="415" type="curve" smooth="yes"/>
      <point x="279" y="426"/>
      <point x="264" y="429"/>
      <point x="255" y="429" type="curve" smooth="yes"/>
      <point x="206" y="429"/>
      <point x="177" y="423"/>
      <point x="134" y="423" type="curve" smooth="yes"/>
      <point x="90" y="423"/>
      <point x="79" y="429"/>
      <point x="30" y="429" type="curve" smooth="yes"/>
      <point x="21" y="429"/>
      <point x="5" y="428"/>
      <point x="5" y="417" type="curve" smooth="yes"/>
      <point x="5" y="405"/>
      <point x="10" y="400"/>
      <point x="23" y="395" type="curve" smooth="yes"/>
      <point x="48" y="386"/>
      <point x="60" y="364"/>
      <point x="74" y="334" type="curve" smooth="yes"/>
      <point x="110" y="257"/>
      <point x="146" y="185"/>
      <point x="181" y="108" type="curve" smooth="yes"/>
      <point x="192" y="83"/>
      <point x="206" y="48"/>
      <point x="217" y="24" type="curve" smooth="yes"/>
      <point x="229" y="-3"/>
      <point x="236" y="-21"/>
    </contour>
  </outline>
</glyph>
<glyph name="w" format="2">
  <advance width="767"/>
  <unicode hex="0077"/>
  <anchor x="382" y="-30" name="bottom"/>
  <anchor x="415" y="440" name="top"/>
  <note>
w
</note>
  <outline>
    <contour>
      <point x="238" y="-32" type="curve" smooth="yes"/>
      <point x="246" y="-32"/>
      <point x="254" y="-28"/>
      <point x="257" y="-21" type="curve" smooth="yes"/>
      <point x="376" y="272" type="line" smooth="yes"/>
      <point x="376" y="273"/>
      <point x="377" y="273"/>
      <point x="378" y="273" type="curve"/>
      <point x="379" y="273"/>
      <point x="380" y="273"/>
      <point x="380" y="272" type="curve" smooth="yes"/>
      <point x="510" y="-21" type="line"/>
      <point x="513" y="-27"/>
      <point x="520" y="-30"/>
      <point x="527" y="-30" type="curve" smooth="yes"/>
      <point x="535" y="-30"/>
      <point x="543" y="-26"/>
      <point x="545" y="-21" type="curve" smooth="yes"/>
      <point x="687" y="331" type="line" smooth="yes"/>
      <point x="699" y="362"/>
      <point x="720" y="383"/>
      <point x="745" y="392" type="curve" smooth="yes"/>
      <point x="758" y="397"/>
      <point x="763" y="402"/>
      <point x="763" y="414" type="curve" smooth="yes"/>
      <point x="763" y="425"/>
      <point x="747" y="426"/>
      <point x="738" y="426" type="curve"/>
      <point x="699" y="424"/>
      <point x="688" y="424"/>
      <point x="672" y="424" type="curve" smooth="yes"/>
      <point x="655" y="424"/>
      <point x="644" y="425"/>
      <point x="604" y="426" type="curve" smooth="yes"/>
      <point x="595" y="426"/>
      <point x="580" y="423"/>
      <point x="580" y="412" type="curve" smooth="yes"/>
      <point x="580" y="400"/>
      <point x="591" y="397"/>
      <point x="602" y="393" type="curve" smooth="yes"/>
      <point x="621" y="386"/>
      <point x="630" y="369"/>
      <point x="630" y="349" type="curve" smooth="yes"/>
      <point x="631" y="336"/>
      <point x="628" y="321"/>
      <point x="623" y="307" type="curve" smooth="yes"/>
      <point x="572" y="171" type="line"/>
      <point x="572" y="170"/>
      <point x="571" y="170"/>
      <point x="570" y="170" type="curve" smooth="yes"/>
      <point x="569" y="170"/>
      <point x="568" y="170"/>
      <point x="568" y="171" type="curve"/>
      <point x="512" y="319" type="line" smooth="yes"/>
      <point x="508" y="330"/>
      <point x="503" y="345"/>
      <point x="503" y="363" type="curve" smooth="yes"/>
      <point x="503" y="381"/>
      <point x="511" y="389"/>
      <point x="526" y="395" type="curve" smooth="yes"/>
      <point x="537" y="400"/>
      <point x="548" y="402"/>
      <point x="548" y="414" type="curve" smooth="yes"/>
      <point x="548" y="425"/>
      <point x="533" y="428"/>
      <point x="524" y="428" type="curve" smooth="yes"/>
      <point x="482" y="428"/>
      <point x="456" y="424"/>
      <point x="421" y="424" type="curve" smooth="yes"/>
      <point x="404" y="424"/>
      <point x="366" y="428"/>
      <point x="330" y="428" type="curve" smooth="yes"/>
      <point x="318" y="428"/>
      <point x="302" y="427"/>
      <point x="302" y="416" type="curve" smooth="yes"/>
      <point x="302" y="404"/>
      <point x="307" y="399"/>
      <point x="320" y="394" type="curve" smooth="yes"/>
      <point x="343" y="385"/>
      <point x="356" y="366"/>
      <point x="356" y="354" type="curve" smooth="yes"/>
      <point x="356" y="345"/>
      <point x="353" y="336"/>
      <point x="351" y="329" type="curve"/>
      <point x="285" y="173" type="line"/>
      <point x="285" y="172"/>
      <point x="284" y="172"/>
      <point x="283" y="172" type="curve"/>
      <point x="282" y="172"/>
      <point x="281" y="172"/>
      <point x="281" y="173" type="curve"/>
      <point x="227" y="319" type="line" smooth="yes"/>
      <point x="223" y="330"/>
      <point x="220" y="345"/>
      <point x="220" y="357" type="curve" smooth="yes"/>
      <point x="220" y="381"/>
      <point x="226" y="390"/>
      <point x="241" y="396" type="curve" smooth="yes"/>
      <point x="252" y="401"/>
      <point x="263" y="403"/>
      <point x="263" y="415" type="curve" smooth="yes"/>
      <point x="263" y="426"/>
      <point x="248" y="429"/>
      <point x="239" y="429" type="curve" smooth="yes"/>
      <point x="190" y="429"/>
      <point x="176" y="423"/>
      <point x="133" y="423" type="curve" smooth="yes"/>
      <point x="89" y="423"/>
      <point x="79" y="429"/>
      <point x="30" y="429" type="curve" smooth="yes"/>
      <point x="21" y="429"/>
      <point x="5" y="428"/>
      <point x="5" y="417" type="curve" smooth="yes"/>
      <point x="5" y="405"/>
      <point x="10" y="400"/>
      <point x="23" y="395" type="curve" smooth="yes"/>
      <point x="48" y="386"/>
      <point x="62" y="364"/>
      <point x="74" y="334" type="curve" smooth="yes"/>
      <point x="220" y="-21" type="line" smooth="yes"/>
      <point x="223" y="-29"/>
      <point x="231" y="-32"/>
    </contour>
  </outline>
</glyph>
<glyph name="x" format="2">
  <advance width="521"/>
  <unicode hex="0078"/>
  <anchor x="299" y="440" name="top"/>
  <note>
x
</note>
  <outline>
    <contour>
      <point x="30" y="-4" type="curve"/>
      <point x="69" y="-2"/>
      <point x="85" y="-2"/>
      <point x="101" y="-2" type="curve" smooth="yes"/>
      <point x="118" y="-2"/>
      <point x="124" y="-3"/>
      <point x="164" y="-4" type="curve" smooth="yes"/>
      <point x="173" y="-4"/>
      <point x="188" y="-1"/>
      <point x="188" y="10" type="curve" smooth="yes"/>
      <point x="188" y="22"/>
      <point x="177" y="24"/>
      <point x="166" y="29" type="curve" smooth="yes"/>
      <point x="152" y="35"/>
      <point x="147" y="45"/>
      <point x="147" y="60" type="curve" smooth="yes"/>
      <point x="147" y="76"/>
      <point x="157" y="94"/>
      <point x="163" y="104" type="curve" smooth="yes"/>
      <point x="206" y="183" type="line"/>
      <point x="207" y="184"/>
      <point x="211" y="184"/>
      <point x="212" y="183" type="curve"/>
      <point x="261" y="113" type="line" smooth="yes"/>
      <point x="273" y="96"/>
      <point x="274" y="87"/>
      <point x="274" y="73" type="curve" smooth="yes"/>
      <point x="274" y="46"/>
      <point x="262" y="37"/>
      <point x="245" y="32" type="curve" smooth="yes"/>
      <point x="232" y="28"/>
      <point x="223" y="25"/>
      <point x="223" y="13" type="curve" smooth="yes"/>
      <point x="223" y="5"/>
      <point x="231" y="-1"/>
      <point x="247" y="-1" type="curve" smooth="yes"/>
      <point x="296" y="-1"/>
      <point x="325" y="5"/>
      <point x="368" y="5" type="curve" smooth="yes"/>
      <point x="412" y="5"/>
      <point x="441" y="-1"/>
      <point x="490" y="-1" type="curve" smooth="yes"/>
      <point x="499" y="-1"/>
      <point x="515" y="0"/>
      <point x="515" y="11" type="curve" smooth="yes"/>
      <point x="515" y="23"/>
      <point x="510" y="28"/>
      <point x="497" y="33" type="curve" smooth="yes"/>
      <point x="472" y="42"/>
      <point x="446" y="66"/>
      <point x="428" y="94" type="curve" smooth="yes"/>
      <point x="347" y="220" type="line" smooth="yes"/>
      <point x="340" y="231"/>
      <point x="337" y="235"/>
      <point x="348" y="250" type="curve" smooth="yes"/>
      <point x="422" y="346" type="line" smooth="yes"/>
      <point x="449" y="381"/>
      <point x="460" y="390"/>
      <point x="473" y="395" type="curve" smooth="yes"/>
      <point x="486" y="400"/>
      <point x="491" y="405"/>
      <point x="491" y="417" type="curve" smooth="yes"/>
      <point x="491" y="428"/>
      <point x="475" y="429"/>
      <point x="466" y="429" type="curve" smooth="yes"/>
      <point x="427" y="427"/>
      <point x="418" y="426"/>
      <point x="402" y="426" type="curve" smooth="yes"/>
      <point x="385" y="426"/>
      <point x="372" y="426"/>
      <point x="334" y="427" type="curve" smooth="yes"/>
      <point x="325" y="427"/>
      <point x="310" y="424"/>
      <point x="310" y="413" type="curve" smooth="yes"/>
      <point x="310" y="401"/>
      <point x="319" y="399"/>
      <point x="330" y="394" type="curve" smooth="yes"/>
      <point x="343" y="389"/>
      <point x="349" y="382"/>
      <point x="349" y="370" type="curve" smooth="yes"/>
      <point x="350" y="355"/>
      <point x="343" y="336"/>
      <point x="335" y="321" type="curve" smooth="yes"/>
      <point x="309" y="273" type="line"/>
      <point x="306" y="267"/>
      <point x="302" y="269"/>
      <point x="300" y="273" type="curve"/>
      <point x="254" y="340" type="line" smooth="yes"/>
      <point x="247" y="351"/>
      <point x="241" y="362"/>
      <point x="241" y="370" type="curve" smooth="yes"/>
      <point x="241" y="385"/>
      <point x="256" y="391"/>
      <point x="270" y="396" type="curve" smooth="yes"/>
      <point x="281" y="401"/>
      <point x="294" y="403"/>
      <point x="294" y="415" type="curve" smooth="yes"/>
      <point x="294" y="426"/>
      <point x="279" y="429"/>
      <point x="270" y="429" type="curve" smooth="yes"/>
      <point x="221" y="429"/>
      <point x="201" y="423"/>
      <point x="158" y="423" type="curve" smooth="yes"/>
      <point x="114" y="423"/>
      <point x="103" y="429"/>
      <point x="54" y="429" type="curve" smooth="yes"/>
      <point x="45" y="429"/>
      <point x="29" y="428"/>
      <point x="29" y="417" type="curve" smooth="yes"/>
      <point x="29" y="405"/>
      <point x="34" y="400"/>
      <point x="47" y="395" type="curve" smooth="yes"/>
      <point x="69" y="387"/>
      <point x="79" y="370"/>
      <point x="97" y="343" type="curve" smooth="yes"/>
      <point x="171" y="235" type="line" smooth="yes"/>
      <point x="178" y="224"/>
      <point x="178" y="219"/>
      <point x="170" y="209" type="curve"/>
      <point x="74" y="79" type="line" smooth="yes"/>
      <point x="48" y="44"/>
      <point x="36" y="35"/>
      <point x="23" y="30" type="curve" smooth="yes"/>
      <point x="10" y="25"/>
      <point x="5" y="20"/>
      <point x="5" y="8" type="curve" smooth="yes"/>
      <point x="5" y="-3"/>
      <point x="21" y="-4"/>
    </contour>
  </outline>
</glyph>
<glyph name="y" format="2">
  <advance width="491"/>
  <unicode hex="0079"/>
  <note>
y
</note>
  <guideline x="288" y="286" angle="90"/>
  <guideline x="288" y="427" angle="0"/>
  <anchor x="286" y="440" name="top"/>
  <outline>
    <contour>
      <point x="90" y="-283" type="curve" smooth="yes"/>
      <point x="134" y="-283"/>
      <point x="171" y="-262"/>
      <point x="189" y="-220" type="curve" smooth="yes"/>
      <point x="215" y="-159"/>
      <point x="242" y="-98"/>
      <point x="268" y="-34" type="curve" smooth="yes"/>
      <point x="420" y="332" type="line" smooth="yes"/>
      <point x="433" y="363"/>
      <point x="453" y="384"/>
      <point x="478" y="393" type="curve" smooth="yes"/>
      <point x="491" y="398"/>
      <point x="496" y="403"/>
      <point x="496" y="415" type="curve" smooth="yes"/>
      <point x="496" y="426"/>
      <point x="480" y="427"/>
      <point x="471" y="427" type="curve"/>
      <point x="432" y="425"/>
      <point x="416" y="423"/>
      <point x="400" y="423" type="curve" smooth="yes"/>
      <point x="383" y="423"/>
      <point x="367" y="426"/>
      <point x="327" y="427" type="curve" smooth="yes"/>
      <point x="318" y="427"/>
      <point x="303" y="424"/>
      <point x="303" y="413" type="curve" smooth="yes"/>
      <point x="303" y="401"/>
      <point x="314" y="398"/>
      <point x="325" y="394" type="curve" smooth="yes"/>
      <point x="339" y="389"/>
      <point x="358" y="374"/>
      <point x="358" y="351" type="curve" smooth="yes"/>
      <point x="358" y="339"/>
      <point x="355" y="322"/>
      <point x="351" y="311" type="curve" smooth="yes"/>
      <point x="303" y="164" type="line"/>
      <point x="302" y="162"/>
      <point x="302" y="162"/>
      <point x="301" y="162" type="curve"/>
      <point x="300" y="162"/>
      <point x="300" y="162"/>
      <point x="299" y="164" type="curve"/>
      <point x="241" y="305" type="line" smooth="yes"/>
      <point x="231" y="329"/>
      <point x="229" y="343"/>
      <point x="229" y="355" type="curve" smooth="yes"/>
      <point x="229" y="379"/>
      <point x="238" y="388"/>
      <point x="253" y="394" type="curve" smooth="yes"/>
      <point x="264" y="399"/>
      <point x="275" y="401"/>
      <point x="275" y="413" type="curve" smooth="yes"/>
      <point x="275" y="424"/>
      <point x="260" y="427"/>
      <point x="251" y="427" type="curve" smooth="yes"/>
      <point x="202" y="427"/>
      <point x="178" y="423"/>
      <point x="135" y="423" type="curve" smooth="yes"/>
      <point x="109" y="423"/>
      <point x="82" y="427"/>
      <point x="33" y="427" type="curve" smooth="yes"/>
      <point x="24" y="427"/>
      <point x="8" y="426"/>
      <point x="8" y="415" type="curve" smooth="yes"/>
      <point x="8" y="403"/>
      <point x="13" y="398"/>
      <point x="26" y="393" type="curve" smooth="yes"/>
      <point x="51" y="384"/>
      <point x="63" y="362"/>
      <point x="77" y="332" type="curve" smooth="yes"/>
      <point x="201" y="55" type="line" smooth="yes"/>
      <point x="209" y="37"/>
      <point x="217" y="20"/>
      <point x="217" y="-1" type="curve" smooth="yes"/>
      <point x="217" y="-17"/>
      <point x="212" y="-35"/>
      <point x="203" y="-55" type="curve" smooth="yes"/>
      <point x="179" y="-108"/>
      <point x="172" y="-116"/>
      <point x="161" y="-135" type="curve" smooth="yes"/>
      <point x="149" y="-158"/>
      <point x="144" y="-165"/>
      <point x="122" y="-167" type="curve" smooth="yes"/>
      <point x="100" y="-169"/>
      <point x="76" y="-156"/>
      <point x="53" y="-156" type="curve" smooth="yes"/>
      <point x="23" y="-156"/>
      <point x="11" y="-189"/>
      <point x="11" y="-215" type="curve" smooth="yes"/>
      <point x="11" y="-253"/>
      <point x="53" y="-283"/>
    </contour>
  </outline>
</glyph>
<glyph name="z" format="2">
  <advance width="450"/>
  <unicode hex="007A"/>
  <note>
z
</note>
  <guideline x="441" y="290" angle="90"/>
  <anchor x="203" y="-30" name="bottom"/>
  <anchor x="242" y="440" name="top"/>
  <outline>
    <contour>
      <point x="45" y="-5" type="curve" smooth="yes"/>
      <point x="64" y="-5"/>
      <point x="103" y="1"/>
      <point x="135" y="1" type="curve" smooth="yes"/>
      <point x="257" y="1"/>
      <point x="344" y="-5"/>
      <point x="377" y="-5" type="curve" smooth="yes"/>
      <point x="386" y="-5"/>
      <point x="394" y="1"/>
      <point x="397" y="11" type="curve" smooth="yes"/>
      <point x="413" y="63"/>
      <point x="430" y="134"/>
      <point x="430" y="154" type="curve" smooth="yes"/>
      <point x="430" y="170"/>
      <point x="402" y="177"/>
      <point x="392" y="159" type="curve" smooth="yes"/>
      <point x="367" y="114"/>
      <point x="360" y="99"/>
      <point x="339" y="76" type="curve" smooth="yes"/>
      <point x="322" y="57"/>
      <point x="307" y="53"/>
      <point x="287" y="53" type="curve" smooth="yes"/>
      <point x="236" y="53" type="line" smooth="yes"/>
      <point x="217" y="53"/>
      <point x="215" y="59"/>
      <point x="221" y="68" type="curve" smooth="yes"/>
      <point x="381" y="329" type="line"/>
      <point x="397" y="351"/>
      <point x="408" y="366"/>
      <point x="424" y="385" type="curve"/>
      <point x="432" y="396"/>
      <point x="421" y="429"/>
      <point x="404" y="429" type="curve"/>
      <point x="336" y="426"/>
      <point x="250" y="425"/>
      <point x="188" y="425" type="curve" smooth="yes"/>
      <point x="178" y="425"/>
      <point x="162" y="424"/>
      <point x="146" y="424" type="curve" smooth="yes"/>
      <point x="125" y="424"/>
      <point x="104" y="425"/>
      <point x="97" y="431" type="curve"/>
      <point x="91" y="437"/>
      <point x="85" y="441"/>
      <point x="77" y="441" type="curve" smooth="yes"/>
      <point x="65" y="441"/>
      <point x="53" y="429"/>
      <point x="53" y="414" type="curve" smooth="yes"/>
      <point x="53" y="372"/>
      <point x="32" y="292"/>
      <point x="27" y="271" type="curve" smooth="yes"/>
      <point x="25" y="259"/>
      <point x="52" y="251"/>
      <point x="60" y="261" type="curve" smooth="yes"/>
      <point x="67" y="270"/>
      <point x="116" y="343"/>
      <point x="128" y="355" type="curve" smooth="yes"/>
      <point x="142" y="369"/>
      <point x="154" y="373"/>
      <point x="173" y="373" type="curve" smooth="yes"/>
      <point x="218" y="373" type="line" smooth="yes"/>
      <point x="235" y="373"/>
      <point x="232" y="366"/>
      <point x="229" y="361" type="curve" smooth="yes"/>
      <point x="150" y="231"/>
      <point x="127" y="197"/>
      <point x="62" y="94" type="curve" smooth="yes"/>
      <point x="49" y="73"/>
      <point x="20" y="39"/>
      <point x="20" y="25" type="curve" smooth="yes"/>
      <point x="20" y="12"/>
      <point x="39" y="-5"/>
    </contour>
  </outline>
</glyph>
<glyph name="braceleft" format="2">
  <advance width="372"/>
  <unicode hex="007B"/>
  <note>
braceleft
</note>
  <outline>
    <contour>
      <point x="335" y="-152" type="curve" smooth="yes"/>
      <point x="349" y="-152"/>
      <point x="361" y="-151"/>
      <point x="361" y="-137" type="curve" smooth="yes"/>
      <point x="361" y="-123"/>
      <point x="343" y="-118"/>
      <point x="327" y="-115" type="curve" smooth="yes"/>
      <point x="267" y="-105"/>
      <point x="258" y="-88"/>
      <point x="258" y="-24" type="curve" smooth="yes"/>
      <point x="258" y="9"/>
      <point x="285" y="87"/>
      <point x="285" y="130" type="curve" smooth="yes"/>
      <point x="285" y="197"/>
      <point x="234" y="244"/>
      <point x="133" y="279" type="curve" smooth="yes"/>
      <point x="130" y="280"/>
      <point x="126" y="282"/>
      <point x="131" y="283" type="curve" smooth="yes"/>
      <point x="204" y="298"/>
      <point x="281" y="353"/>
      <point x="281" y="424" type="curve" smooth="yes"/>
      <point x="281" y="467"/>
      <point x="257" y="545"/>
      <point x="257" y="578" type="curve" smooth="yes"/>
      <point x="257" y="629"/>
      <point x="255" y="652"/>
      <point x="323" y="673" type="curve" smooth="yes"/>
      <point x="339" y="678"/>
      <point x="362" y="682"/>
      <point x="362" y="696" type="curve" smooth="yes"/>
      <point x="362" y="710"/>
      <point x="355" y="714"/>
      <point x="333" y="714" type="curve" smooth="yes"/>
      <point x="223" y="714"/>
      <point x="116" y="653"/>
      <point x="124" y="559" type="curve" smooth="yes"/>
      <point x="128" y="509"/>
      <point x="146" y="461"/>
      <point x="146" y="406" type="curve" smooth="yes"/>
      <point x="146" y="335"/>
      <point x="114" y="324"/>
      <point x="77" y="306" type="curve"/>
      <point x="65" y="301"/>
      <point x="45" y="296"/>
      <point x="45" y="280" type="curve" smooth="yes"/>
      <point x="45" y="264"/>
      <point x="62" y="263"/>
      <point x="77" y="257" type="curve" smooth="yes"/>
      <point x="143" y="231"/>
      <point x="151" y="209"/>
      <point x="151" y="157" type="curve" smooth="yes"/>
      <point x="151" y="102"/>
      <point x="130" y="31"/>
      <point x="126" y="-19" type="curve" smooth="yes"/>
      <point x="118" y="-113"/>
      <point x="218" y="-152"/>
    </contour>
  </outline>
</glyph>
<glyph name="asciitilde" format="2">
  <advance width="555"/>
  <unicode hex="007E"/>
  <note>
asciitilde
</note>
  <outline>
    <contour>
      <point x="371" y="247" type="curve" smooth="yes"/>
      <point x="443" y="247"/>
      <point x="520" y="335"/>
      <point x="520" y="373" type="curve" smooth="yes"/>
      <point x="520" y="386"/>
      <point x="512" y="406"/>
      <point x="497" y="406" type="curve" smooth="yes"/>
      <point x="491" y="406"/>
      <point x="438" y="348"/>
      <point x="385" y="348" type="curve" smooth="yes"/>
      <point x="347" y="348"/>
      <point x="310" y="366"/>
      <point x="274" y="383" type="curve" smooth="yes"/>
      <point x="241" y="399"/>
      <point x="208" y="414"/>
      <point x="176" y="414" type="curve" smooth="yes"/>
      <point x="106" y="414"/>
      <point x="35" y="325"/>
      <point x="35" y="287" type="curve" smooth="yes"/>
      <point x="35" y="280"/>
      <point x="48" y="254"/>
      <point x="58" y="254" type="curve" smooth="yes"/>
      <point x="64" y="254"/>
      <point x="117" y="312"/>
      <point x="170" y="312" type="curve" smooth="yes"/>
      <point x="209" y="312"/>
      <point x="245" y="294"/>
      <point x="280" y="277" type="curve" smooth="yes"/>
      <point x="311" y="261"/>
      <point x="341" y="247"/>
    </contour>
  </outline>
</glyph>
<glyph name="cent" format="2">
  <advance width="437"/>
  <unicode hex="00A2"/>
  <note>
cent
</note>
  <outline>
    <contour>
      <point x="206" y="-105" type="curve" smooth="yes"/>
      <point x="217" y="-105"/>
      <point x="228" y="-97"/>
      <point x="231" y="-85" type="curve"/>
      <point x="237" y="-14" type="line"/>
      <point x="338" y="-8"/>
      <point x="389" y="56"/>
      <point x="415" y="134" type="curve" smooth="yes"/>
      <point x="418" y="143"/>
      <point x="421" y="154"/>
      <point x="421" y="161" type="curve" smooth="yes"/>
      <point x="421" y="171"/>
      <point x="417" y="177"/>
      <point x="408" y="177" type="curve" smooth="yes"/>
      <point x="402" y="177"/>
      <point x="398" y="175"/>
      <point x="393" y="167" type="curve" smooth="yes"/>
      <point x="375" y="136"/>
      <point x="328" y="116"/>
      <point x="278" y="116" type="curve" smooth="yes"/>
      <point x="268" y="116"/>
      <point x="259" y="117"/>
      <point x="250" y="118" type="curve"/>
      <point x="276" y="369" type="line"/>
      <point x="290" y="361"/>
      <point x="304" y="347"/>
      <point x="323" y="323" type="curve" smooth="yes"/>
      <point x="333" y="311"/>
      <point x="345" y="306"/>
      <point x="359" y="306" type="curve" smooth="yes"/>
      <point x="389" y="305"/>
      <point x="420" y="328"/>
      <point x="420" y="360" type="curve" smooth="yes"/>
      <point x="420" y="365"/>
      <point x="417" y="372"/>
      <point x="411" y="378" type="curve" smooth="yes"/>
      <point x="375" y="414"/>
      <point x="326" y="432"/>
      <point x="282" y="436" type="curve"/>
      <point x="289" y="498" type="line" smooth="yes"/>
      <point x="290" y="508"/>
      <point x="282" y="520"/>
      <point x="272" y="520" type="curve" smooth="yes"/>
      <point x="258" y="520"/>
      <point x="244" y="512"/>
      <point x="243" y="498" type="curve"/>
      <point x="236" y="436" type="line"/>
      <point x="109" y="424"/>
      <point x="21" y="321"/>
      <point x="21" y="205" type="curve" smooth="yes"/>
      <point x="21" y="82"/>
      <point x="100" y="4"/>
      <point x="191" y="-11" type="curve"/>
      <point x="185" y="-85" type="line" smooth="yes"/>
      <point x="184" y="-97"/>
      <point x="194" y="-105"/>
    </contour>
    <contour>
      <point x="206" y="132" type="line"/>
      <point x="167" y="153"/>
      <point x="142" y="192"/>
      <point x="142" y="253" type="curve" smooth="yes"/>
      <point x="142" y="331"/>
      <point x="166" y="380"/>
      <point x="230" y="380" type="curve" smooth="yes"/>
      <point x="231" y="380" type="line"/>
    </contour>
  </outline>
</glyph>
<glyph name="sterling" format="2">
  <advance width="585"/>
  <unicode hex="00A3"/>
  <note>
sterling
</note>
  <outline>
    <contour>
      <point x="55" y="293" type="curve" smooth="yes"/>
      <point x="420" y="318" type="line" smooth="yes"/>
      <point x="441" y="319"/>
      <point x="463" y="338"/>
      <point x="463" y="348" type="curve" smooth="yes"/>
      <point x="463" y="355"/>
      <point x="455" y="366"/>
      <point x="445" y="365" type="curve" smooth="yes"/>
      <point x="68" y="340" type="line" smooth="yes"/>
      <point x="50" y="339"/>
      <point x="35" y="322"/>
      <point x="35" y="310" type="curve" smooth="yes"/>
      <point x="35" y="301"/>
      <point x="45" y="292"/>
    </contour>
    <component base="L.script"/>
  </outline>
</glyph>
<glyph name="currency" format="2">
  <advance width="510"/>
  <unicode hex="00A4"/>
  <note>
currency
</note>
  <outline>
    <contour>
      <point x="64" y="42" type="curve" smooth="yes"/>
      <point x="68" y="42"/>
      <point x="71" y="43"/>
      <point x="73" y="46" type="curve"/>
      <point x="128" y="100" type="line"/>
      <point x="165" y="71"/>
      <point x="211" y="54"/>
      <point x="261" y="54" type="curve" smooth="yes"/>
      <point x="308" y="54"/>
      <point x="352" y="69"/>
      <point x="387" y="95" type="curve"/>
      <point x="437" y="46" type="line" smooth="yes"/>
      <point x="439" y="44"/>
      <point x="443" y="42"/>
      <point x="446" y="42" type="curve" smooth="yes"/>
      <point x="463" y="42"/>
      <point x="485" y="64"/>
      <point x="485" y="81" type="curve" smooth="yes"/>
      <point x="485" y="85"/>
      <point x="484" y="87"/>
      <point x="482" y="90" type="curve"/>
      <point x="431" y="140" type="line"/>
      <point x="457" y="175"/>
      <point x="472" y="218"/>
      <point x="472" y="265" type="curve" smooth="yes"/>
      <point x="472" y="313"/>
      <point x="456" y="358"/>
      <point x="429" y="393" type="curve"/>
      <point x="482" y="445" type="line"/>
      <point x="484" y="448"/>
      <point x="485" y="450"/>
      <point x="485" y="454" type="curve" smooth="yes"/>
      <point x="485" y="471"/>
      <point x="463" y="493"/>
      <point x="446" y="493" type="curve" smooth="yes"/>
      <point x="443" y="493"/>
      <point x="439" y="491"/>
      <point x="437" y="489" type="curve" smooth="yes"/>
      <point x="384" y="437" type="line"/>
      <point x="349" y="462"/>
      <point x="307" y="477"/>
      <point x="261" y="477" type="curve" smooth="yes"/>
      <point x="212" y="477"/>
      <point x="167" y="460"/>
      <point x="131" y="432" type="curve"/>
      <point x="73" y="489" type="line"/>
      <point x="71" y="492"/>
      <point x="68" y="493"/>
      <point x="64" y="493" type="curve" smooth="yes"/>
      <point x="47" y="493"/>
      <point x="25" y="470"/>
      <point x="25" y="455" type="curve" smooth="yes"/>
      <point x="25" y="450"/>
      <point x="27" y="448"/>
      <point x="29" y="446" type="curve" smooth="yes"/>
      <point x="88" y="388" type="line"/>
      <point x="64" y="353"/>
      <point x="49" y="311"/>
      <point x="49" y="265" type="curve" smooth="yes"/>
      <point x="49" y="221"/>
      <point x="63" y="179"/>
      <point x="86" y="146" type="curve"/>
      <point x="29" y="89" type="line" smooth="yes"/>
      <point x="27" y="87"/>
      <point x="25" y="85"/>
      <point x="25" y="80" type="curve" smooth="yes"/>
      <point x="25" y="65"/>
      <point x="47" y="42"/>
    </contour>
    <contour>
      <point x="261" y="115" type="curve" smooth="yes"/>
      <point x="177" y="115"/>
      <point x="110" y="182"/>
      <point x="110" y="265" type="curve" smooth="yes"/>
      <point x="110" y="349"/>
      <point x="177" y="416"/>
      <point x="261" y="416" type="curve" smooth="yes"/>
      <point x="344" y="416"/>
      <point x="411" y="349"/>
      <point x="411" y="265" type="curve" smooth="yes"/>
      <point x="411" y="182"/>
      <point x="344" y="115"/>
    </contour>
  </outline>
</glyph>
<glyph name="brokenbar" format="2">
  <advance width="281"/>
  <unicode hex="00A6"/>
  <note>
brokenbar
</note>
  <outline>
    <contour>
      <point x="106" y="-290" type="curve" smooth="yes"/>
      <point x="124" y="-290"/>
      <point x="201" y="-284"/>
      <point x="201" y="-242" type="curve" smooth="yes"/>
      <point x="201" y="159" type="line" smooth="yes"/>
      <point x="201" y="173"/>
      <point x="187" y="185"/>
      <point x="173" y="185" type="curve" smooth="yes"/>
      <point x="161" y="185"/>
      <point x="82" y="167"/>
      <point x="82" y="124" type="curve" smooth="yes"/>
      <point x="82" y="-262" type="line" smooth="yes"/>
      <point x="82" y="-276"/>
      <point x="93" y="-290"/>
    </contour>
    <contour>
      <point x="104" y="251" type="curve" smooth="yes"/>
      <point x="122" y="251"/>
      <point x="199" y="257"/>
      <point x="199" y="299" type="curve" smooth="yes"/>
      <point x="199" y="679" type="line" smooth="yes"/>
      <point x="199" y="693"/>
      <point x="185" y="705"/>
      <point x="171" y="705" type="curve" smooth="yes"/>
      <point x="159" y="705"/>
      <point x="80" y="687"/>
      <point x="80" y="644" type="curve" smooth="yes"/>
      <point x="80" y="279" type="line" smooth="yes"/>
      <point x="80" y="265"/>
      <point x="91" y="251"/>
    </contour>
  </outline>
</glyph>
<glyph name="section" format="2">
  <advance width="453"/>
  <unicode hex="00A7"/>
  <note>
section
</note>
  <outline>
    <contour>
      <point x="148" y="-148" type="curve" smooth="yes"/>
      <point x="172" y="-148"/>
      <point x="199" y="-143"/>
      <point x="221" y="-134" type="curve" smooth="yes"/>
      <point x="353" y="-83"/>
      <point x="423" y="16"/>
      <point x="423" y="151" type="curve" smooth="yes"/>
      <point x="423" y="260"/>
      <point x="375" y="320"/>
      <point x="313" y="372" type="curve" smooth="yes"/>
      <point x="248" y="427"/>
      <point x="188" y="481"/>
      <point x="188" y="517" type="curve" smooth="yes"/>
      <point x="188" y="548"/>
      <point x="202" y="574"/>
      <point x="246" y="574" type="curve" smooth="yes"/>
      <point x="265" y="574"/>
      <point x="304" y="553"/>
      <point x="328" y="527" type="curve"/>
      <point x="335" y="521"/>
      <point x="339" y="519"/>
      <point x="345" y="519" type="curve" smooth="yes"/>
      <point x="370" y="519"/>
      <point x="397" y="580"/>
      <point x="397" y="587" type="curve" smooth="yes"/>
      <point x="397" y="598"/>
      <point x="389" y="605"/>
      <point x="381" y="612" type="curve"/>
      <point x="366" y="627"/>
      <point x="316" y="640"/>
      <point x="280" y="640" type="curve" smooth="yes"/>
      <point x="203" y="640"/>
      <point x="136" y="578"/>
      <point x="114" y="500" type="curve"/>
      <point x="71" y="460"/>
      <point x="30" y="418"/>
      <point x="30" y="329" type="curve" smooth="yes"/>
      <point x="30" y="270"/>
      <point x="66" y="212"/>
      <point x="139" y="149" type="curve" smooth="yes"/>
      <point x="201" y="95"/>
      <point x="275" y="39"/>
      <point x="275" y="-12" type="curve" smooth="yes"/>
      <point x="275" y="-54"/>
      <point x="257" y="-78"/>
      <point x="224" y="-78" type="curve" smooth="yes"/>
      <point x="193" y="-78"/>
      <point x="154" y="-66"/>
      <point x="131" y="-46" type="curve"/>
      <point x="124" y="-41"/>
      <point x="110" y="-32"/>
      <point x="100" y="-39" type="curve" smooth="yes"/>
      <point x="69" y="-61"/>
      <point x="63" y="-95"/>
      <point x="63" y="-106" type="curve" smooth="yes"/>
      <point x="63" y="-130"/>
      <point x="99" y="-148"/>
    </contour>
    <contour>
      <point x="335" y="66" type="curve"/>
      <point x="319" y="101"/>
      <point x="244" y="175"/>
      <point x="207" y="211" type="curve"/>
      <point x="154" y="259"/>
      <point x="114" y="318"/>
      <point x="114" y="367" type="curve" smooth="yes"/>
      <point x="114" y="389"/>
      <point x="117" y="414"/>
      <point x="130" y="429" type="curve"/>
      <point x="133" y="432"/>
      <point x="138" y="434"/>
      <point x="139" y="429" type="curve"/>
      <point x="155" y="394"/>
      <point x="217" y="325"/>
      <point x="254" y="289" type="curve"/>
      <point x="307" y="241"/>
      <point x="350" y="183"/>
      <point x="350" y="128" type="curve" smooth="yes"/>
      <point x="350" y="106"/>
      <point x="349" y="86"/>
      <point x="344" y="66" type="curve" smooth="yes"/>
      <point x="343" y="62"/>
      <point x="336" y="61"/>
    </contour>
  </outline>
</glyph>
<glyph name="copyright" format="2">
  <advance width="684"/>
  <unicode hex="00A9"/>
  <note>
copyright
</note>
  <outline>
    <contour>
      <point x="341" y="15" type="curve" smooth="yes"/>
      <point x="513" y="15"/>
      <point x="654" y="155"/>
      <point x="654" y="327" type="curve" smooth="yes"/>
      <point x="654" y="499"/>
      <point x="514" y="639"/>
      <point x="342" y="639" type="curve" smooth="yes"/>
      <point x="170" y="639"/>
      <point x="30" y="499"/>
      <point x="30" y="327" type="curve" smooth="yes"/>
      <point x="30" y="155"/>
      <point x="169" y="15"/>
    </contour>
    <contour>
      <point x="355" y="134" type="curve" smooth="yes"/>
      <point x="403" y="134"/>
      <point x="441" y="150"/>
      <point x="468" y="164" type="curve" smooth="yes"/>
      <point x="476" y="168"/>
      <point x="481" y="166"/>
      <point x="484" y="175" type="curve"/>
      <point x="491" y="204"/>
      <point x="495" y="219"/>
      <point x="495" y="247" type="curve" smooth="yes"/>
      <point x="495" y="258"/>
      <point x="489" y="265"/>
      <point x="481" y="267" type="curve" smooth="yes"/>
      <point x="473" y="270"/>
      <point x="463" y="266"/>
      <point x="458" y="254" type="curve" smooth="yes"/>
      <point x="439" y="206"/>
      <point x="414" y="188"/>
      <point x="366" y="188" type="curve" smooth="yes"/>
      <point x="294" y="188"/>
      <point x="271" y="243"/>
      <point x="271" y="331" type="curve" smooth="yes"/>
      <point x="271" y="399"/>
      <point x="299" y="457"/>
      <point x="366" y="457" type="curve" smooth="yes"/>
      <point x="400" y="457"/>
      <point x="421" y="444"/>
      <point x="434" y="429" type="curve" smooth="yes"/>
      <point x="444" y="417"/>
      <point x="448" y="405"/>
      <point x="453" y="390" type="curve"/>
      <point x="456" y="379"/>
      <point x="464" y="374"/>
      <point x="472" y="374" type="curve" smooth="yes"/>
      <point x="482" y="373"/>
      <point x="492" y="381"/>
      <point x="492" y="395" type="curve" smooth="yes"/>
      <point x="492" y="421"/>
      <point x="492" y="440"/>
      <point x="488" y="472" type="curve" smooth="yes"/>
      <point x="487" y="481"/>
      <point x="483" y="485"/>
      <point x="475" y="488" type="curve"/>
      <point x="448" y="502"/>
      <point x="407" y="512"/>
      <point x="370" y="512" type="curve" smooth="yes"/>
      <point x="228" y="512"/>
      <point x="152" y="421"/>
      <point x="152" y="321" type="curve" smooth="yes"/>
      <point x="152" y="211"/>
      <point x="238" y="134"/>
    </contour>
    <contour>
      <point x="341" y="68" type="curve" smooth="yes"/>
      <point x="201" y="68"/>
      <point x="89" y="186"/>
      <point x="89" y="327" type="curve" smooth="yes"/>
      <point x="89" y="466"/>
      <point x="202" y="580"/>
      <point x="342" y="580" type="curve" smooth="yes"/>
      <point x="482" y="580"/>
      <point x="595" y="466"/>
      <point x="595" y="327" type="curve" smooth="yes"/>
      <point x="595" y="185"/>
      <point x="483" y="68"/>
    </contour>
  </outline>
</glyph>
<glyph name="ordfeminine" format="2">
  <advance width="359"/>
  <unicode hex="00AA"/>
  <guideline x="27" y="237" angle="90"/>
  <guideline x="316" y="236" angle="90"/>
  <note>
ordfeminine
</note>
  <outline>
    <contour>
      <point x="298" y="206" type="curve" smooth="yes"/>
      <point x="58" y="206" type="line" smooth="yes"/>
      <point x="42" y="206"/>
      <point x="27" y="186"/>
      <point x="27" y="175" type="curve" smooth="yes"/>
      <point x="27" y="168"/>
      <point x="36" y="159"/>
      <point x="45" y="159" type="curve" smooth="yes"/>
      <point x="275" y="159" type="line" smooth="yes"/>
      <point x="294" y="159"/>
      <point x="306" y="170"/>
      <point x="315" y="186" type="curve"/>
      <point x="315" y="188"/>
      <point x="316" y="189"/>
      <point x="316" y="190" type="curve" smooth="yes"/>
      <point x="316" y="199"/>
      <point x="306" y="206"/>
    </contour>
    <component base="a.ordn" xOffset="10" yOffset="-7"/>
  </outline>
</glyph>
<glyph name="logicalnot" format="2">
  <advance width="626"/>
  <unicode hex="00AC"/>
  <note>
logicalnot
</note>
  <outline>
    <contour>
      <point x="497" y="42" type="curve" smooth="yes"/>
      <point x="515" y="42"/>
      <point x="556" y="51"/>
      <point x="556" y="76" type="curve"/>
      <point x="556" y="368" type="line"/>
      <point x="556" y="380"/>
      <point x="552" y="389"/>
      <point x="538" y="389" type="curve" smooth="yes"/>
      <point x="65" y="389" type="line"/>
      <point x="40" y="389"/>
      <point x="30" y="348"/>
      <point x="30" y="330" type="curve" smooth="yes"/>
      <point x="30" y="323"/>
      <point x="40" y="315"/>
      <point x="50" y="315" type="curve" smooth="yes"/>
      <point x="467" y="315" type="line" smooth="yes"/>
      <point x="478" y="315"/>
      <point x="482" y="308"/>
      <point x="482" y="299" type="curve" smooth="yes"/>
      <point x="482" y="62" type="line" smooth="yes"/>
      <point x="482" y="51"/>
      <point x="490" y="42"/>
    </contour>
  </outline>
</glyph>
<glyph name="registered" format="2">
  <advance width="690"/>
  <unicode hex="00AE"/>
  <note>
registered
</note>
  <outline>
    <contour>
      <point x="344" y="15" type="curve" smooth="yes"/>
      <point x="516" y="15"/>
      <point x="657" y="155"/>
      <point x="657" y="327" type="curve" smooth="yes"/>
      <point x="657" y="499"/>
      <point x="517" y="639"/>
      <point x="345" y="639" type="curve" smooth="yes"/>
      <point x="173" y="639"/>
      <point x="33" y="499"/>
      <point x="33" y="327" type="curve" smooth="yes"/>
      <point x="33" y="155"/>
      <point x="172" y="15"/>
    </contour>
    <contour>
      <point x="344" y="68" type="curve" smooth="yes"/>
      <point x="204" y="68"/>
      <point x="92" y="186"/>
      <point x="92" y="327" type="curve" smooth="yes"/>
      <point x="92" y="466"/>
      <point x="205" y="580"/>
      <point x="345" y="580" type="curve" smooth="yes"/>
      <point x="485" y="580"/>
      <point x="598" y="466"/>
      <point x="598" y="327" type="curve" smooth="yes"/>
      <point x="598" y="185"/>
      <point x="486" y="68"/>
    </contour>
    <contour>
      <point x="469" y="170" type="curve" smooth="yes"/>
      <point x="517" y="170"/>
      <point x="537" y="184"/>
      <point x="537" y="202" type="curve" smooth="yes"/>
      <point x="537" y="208"/>
      <point x="534" y="211"/>
      <point x="530" y="211" type="curve" smooth="yes"/>
      <point x="503" y="211"/>
      <point x="445" y="241"/>
      <point x="409" y="327" type="curve" smooth="yes"/>
      <point x="408" y="330"/>
      <point x="407" y="333"/>
      <point x="410" y="334" type="curve"/>
      <point x="440" y="348"/>
      <point x="471" y="368"/>
      <point x="471" y="413" type="curve" smooth="yes"/>
      <point x="471" y="467"/>
      <point x="426" y="493"/>
      <point x="341" y="493" type="curve" smooth="yes"/>
      <point x="301" y="493"/>
      <point x="292" y="489"/>
      <point x="267" y="489" type="curve" smooth="yes"/>
      <point x="240" y="489"/>
      <point x="226" y="493"/>
      <point x="192" y="493" type="curve" smooth="yes"/>
      <point x="186" y="493"/>
      <point x="182" y="489"/>
      <point x="182" y="486" type="curve" smooth="yes"/>
      <point x="182" y="479"/>
      <point x="185" y="476"/>
      <point x="193" y="475" type="curve" smooth="yes"/>
      <point x="217" y="469"/>
      <point x="224" y="462"/>
      <point x="224" y="441" type="curve" smooth="yes"/>
      <point x="224" y="227" type="line" smooth="yes"/>
      <point x="224" y="207"/>
      <point x="217" y="202"/>
      <point x="190" y="195" type="curve"/>
      <point x="183" y="194"/>
      <point x="178" y="190"/>
      <point x="178" y="182" type="curve" smooth="yes"/>
      <point x="178" y="176"/>
      <point x="185" y="169"/>
      <point x="189" y="169" type="curve" smooth="yes"/>
      <point x="212" y="169"/>
      <point x="246" y="172"/>
      <point x="267" y="172" type="curve" smooth="yes"/>
      <point x="288" y="172"/>
      <point x="333" y="169"/>
      <point x="355" y="169" type="curve" smooth="yes"/>
      <point x="361" y="169"/>
      <point x="366" y="175"/>
      <point x="366" y="182" type="curve" smooth="yes"/>
      <point x="366" y="191"/>
      <point x="360" y="194"/>
      <point x="354" y="195" type="curve"/>
      <point x="324" y="202"/>
      <point x="313" y="207"/>
      <point x="313" y="227" type="curve" smooth="yes"/>
      <point x="313" y="309" type="line" smooth="yes"/>
      <point x="313" y="315"/>
      <point x="315" y="318"/>
      <point x="319" y="318" type="curve" smooth="yes"/>
      <point x="324" y="318"/>
      <point x="329" y="314"/>
      <point x="332" y="308" type="curve" smooth="yes"/>
      <point x="366" y="233"/>
      <point x="428" y="170"/>
    </contour>
    <contour>
      <point x="330" y="355" type="curve" smooth="yes"/>
      <point x="317" y="355"/>
      <point x="310" y="360"/>
      <point x="310" y="370" type="curve" smooth="yes"/>
      <point x="310" y="438" type="line" smooth="yes"/>
      <point x="310" y="450"/>
      <point x="316" y="456"/>
      <point x="336" y="456" type="curve" smooth="yes"/>
      <point x="371" y="456"/>
      <point x="388" y="441"/>
      <point x="388" y="402" type="curve" smooth="yes"/>
      <point x="388" y="376"/>
      <point x="370" y="355"/>
    </contour>
  </outline>
</glyph>
<glyph name="degree" format="2">
  <advance width="359"/>
  <unicode hex="00B0"/>
  <note>
degree
</note>
  <outline>
    <contour>
      <point x="181" y="376" type="curve" smooth="yes"/>
      <point x="272" y="376"/>
      <point x="334" y="452"/>
      <point x="334" y="531" type="curve" smooth="yes"/>
      <point x="334" y="610"/>
      <point x="272" y="675"/>
      <point x="181" y="675" type="curve" smooth="yes"/>
      <point x="88" y="675"/>
      <point x="25" y="610"/>
      <point x="25" y="531" type="curve" smooth="yes"/>
      <point x="25" y="452"/>
      <point x="88" y="376"/>
    </contour>
    <contour>
      <point x="180" y="436" type="curve" smooth="yes"/>
      <point x="133" y="436"/>
      <point x="96" y="473"/>
      <point x="96" y="525" type="curve" smooth="yes"/>
      <point x="96" y="577"/>
      <point x="133" y="613"/>
      <point x="180" y="613" type="curve" smooth="yes"/>
      <point x="225" y="613"/>
      <point x="263" y="577"/>
      <point x="263" y="525" type="curve" smooth="yes"/>
      <point x="263" y="473"/>
      <point x="225" y="436"/>
    </contour>
  </outline>
</glyph>
<glyph name="plusminus" format="2">
  <advance width="602"/>
  <unicode hex="00B1"/>
  <guideline x="30" y="370" angle="90"/>
  <guideline x="570" y="400" angle="90"/>
  <note>
plusminus
</note>
  <outline>
    <contour>
      <point x="284" y="126" type="curve" smooth="yes"/>
      <point x="299" y="126"/>
      <point x="330" y="134"/>
      <point x="330" y="155" type="curve" smooth="yes"/>
      <point x="330" y="344" type="line" smooth="yes"/>
      <point x="330" y="353"/>
      <point x="334" y="357"/>
      <point x="343" y="357" type="curve" smooth="yes"/>
      <point x="536" y="357" type="line" smooth="yes"/>
      <point x="555" y="357"/>
      <point x="570" y="383"/>
      <point x="570" y="400" type="curve" smooth="yes"/>
      <point x="570" y="410"/>
      <point x="559" y="416"/>
      <point x="547" y="416" type="curve" smooth="yes"/>
      <point x="343" y="416" type="line" smooth="yes"/>
      <point x="334" y="416"/>
      <point x="330" y="420"/>
      <point x="330" y="430" type="curve" smooth="yes"/>
      <point x="330" y="611" type="line" smooth="yes"/>
      <point x="330" y="623"/>
      <point x="324" y="634"/>
      <point x="314" y="634" type="curve" smooth="yes"/>
      <point x="297" y="634"/>
      <point x="271" y="619"/>
      <point x="271" y="600" type="curve" smooth="yes"/>
      <point x="271" y="430" type="line" smooth="yes"/>
      <point x="271" y="420"/>
      <point x="270" y="416"/>
      <point x="257" y="416" type="curve" smooth="yes"/>
      <point x="59" y="416" type="line" smooth="yes"/>
      <point x="38" y="416"/>
      <point x="30" y="385"/>
      <point x="30" y="370" type="curve" smooth="yes"/>
      <point x="30" y="364"/>
      <point x="38" y="357"/>
      <point x="47" y="357" type="curve" smooth="yes"/>
      <point x="258" y="357" type="line" smooth="yes"/>
      <point x="268" y="357"/>
      <point x="271" y="351"/>
      <point x="271" y="344" type="curve" smooth="yes"/>
      <point x="271" y="143" type="line" smooth="yes"/>
      <point x="271" y="134"/>
      <point x="278" y="126"/>
    </contour>
    <contour>
      <point x="49" y="29" type="curve" smooth="yes"/>
      <point x="534" y="29" type="line" smooth="yes"/>
      <point x="555" y="29"/>
      <point x="572" y="56"/>
      <point x="572" y="75" type="curve" smooth="yes"/>
      <point x="572" y="85"/>
      <point x="560" y="93"/>
      <point x="545" y="93" type="curve" smooth="yes"/>
      <point x="63" y="93" type="line" smooth="yes"/>
      <point x="39" y="93"/>
      <point x="30" y="58"/>
      <point x="30" y="44" type="curve" smooth="yes"/>
      <point x="30" y="38"/>
      <point x="39" y="29"/>
    </contour>
  </outline>
</glyph>
<glyph name="mu" format="2">
  <advance width="564"/>
  <unicode hex="00B5"/>
  <note>
mu
</note>
  <outline>
    <contour>
      <point x="138" y="-285" type="curve" smooth="yes"/>
      <point x="176" y="-285"/>
      <point x="230" y="-233"/>
      <point x="230" y="-200" type="curve" smooth="yes"/>
      <point x="230" y="-171"/>
      <point x="122" y="-136"/>
      <point x="122" y="-94" type="curve" smooth="yes"/>
      <point x="122" y="-60"/>
      <point x="117" y="35"/>
      <point x="117" y="59" type="curve" smooth="yes"/>
      <point x="117" y="77"/>
      <point x="122" y="84"/>
      <point x="131" y="84" type="curve" smooth="yes"/>
      <point x="138" y="84"/>
      <point x="155" y="63"/>
      <point x="164" y="54" type="curve" smooth="yes"/>
      <point x="189" y="29"/>
      <point x="222" y="-13"/>
      <point x="254" y="-13" type="curve" smooth="yes"/>
      <point x="287" y="-13"/>
      <point x="358" y="116"/>
      <point x="365" y="132" type="curve"/>
      <point x="368" y="131" type="line"/>
      <point x="367" y="120"/>
      <point x="366" y="110"/>
      <point x="367" y="99" type="curve" smooth="yes"/>
      <point x="372" y="39"/>
      <point x="405" y="-14"/>
      <point x="446" y="-15" type="curve" smooth="yes"/>
      <point x="496" y="-16"/>
      <point x="559" y="34"/>
      <point x="559" y="127" type="curve" smooth="yes"/>
      <point x="559" y="133"/>
      <point x="552" y="139"/>
      <point x="546" y="139" type="curve" smooth="yes"/>
      <point x="539" y="139"/>
      <point x="511" y="110"/>
      <point x="476" y="110" type="curve" smooth="yes"/>
      <point x="433" y="110"/>
      <point x="397" y="135"/>
      <point x="397" y="173" type="curve"/>
      <point x="430" y="247"/>
      <point x="461" y="317"/>
      <point x="461" y="379" type="curve" smooth="yes"/>
      <point x="461" y="408"/>
      <point x="427" y="436"/>
      <point x="347" y="436" type="curve" smooth="yes"/>
      <point x="330" y="436"/>
      <point x="321" y="429"/>
      <point x="317" y="408" type="curve" smooth="yes"/>
      <point x="312" y="384"/>
      <point x="312" y="340"/>
      <point x="310" y="266" type="curve"/>
      <point x="279" y="148"/>
      <point x="243" y="98"/>
      <point x="203" y="98" type="curve" smooth="yes"/>
      <point x="180" y="98"/>
      <point x="157" y="114"/>
      <point x="157" y="149" type="curve" smooth="yes"/>
      <point x="157" y="177"/>
      <point x="210" y="315"/>
      <point x="210" y="390" type="curve" smooth="yes"/>
      <point x="210" y="426"/>
      <point x="179" y="436"/>
      <point x="124" y="436" type="curve" smooth="yes"/>
      <point x="71" y="436"/>
      <point x="65" y="417"/>
      <point x="65" y="382" type="curve" smooth="yes"/>
      <point x="65" y="268"/>
      <point x="72" y="224"/>
      <point x="72" y="0" type="curve" smooth="yes"/>
      <point x="74" y="-75"/>
      <point x="73" y="-184"/>
      <point x="75" y="-208" type="curve" smooth="yes"/>
      <point x="78" y="-240"/>
      <point x="100" y="-285"/>
    </contour>
  </outline>
</glyph>
<glyph name="paragraph" format="2">
  <advance width="635"/>
  <unicode hex="00B6"/>
  <note>
paragraph
</note>
  <outline>
    <contour>
      <point x="314" y="-317" type="curve" smooth="yes"/>
      <point x="422" y="-317"/>
      <point x="464" y="-229"/>
      <point x="464" y="-168" type="curve" smooth="yes"/>
      <point x="464" y="559" type="line" smooth="yes"/>
      <point x="464" y="572"/>
      <point x="473" y="586"/>
      <point x="485" y="586" type="curve" smooth="yes"/>
      <point x="544" y="586"/>
      <point x="597" y="570"/>
      <point x="604" y="570" type="curve" smooth="yes"/>
      <point x="613" y="570"/>
      <point x="620" y="595"/>
      <point x="620" y="609" type="curve" smooth="yes"/>
      <point x="620" y="622"/>
      <point x="614" y="636"/>
      <point x="603" y="639" type="curve"/>
      <point x="585" y="642"/>
      <point x="510" y="648"/>
      <point x="446" y="648" type="curve" smooth="yes"/>
      <point x="181" y="648"/>
      <point x="10" y="575"/>
      <point x="10" y="349" type="curve" smooth="yes"/>
      <point x="10" y="169"/>
      <point x="196" y="54"/>
      <point x="396" y="54" type="curve" smooth="yes"/>
      <point x="409" y="54"/>
      <point x="412" y="37"/>
      <point x="412" y="26" type="curve" smooth="yes"/>
      <point x="412" y="-171" type="line" smooth="yes"/>
      <point x="412" y="-243"/>
      <point x="363" y="-275"/>
      <point x="319" y="-275" type="curve" smooth="yes"/>
      <point x="249" y="-275"/>
      <point x="219" y="-233"/>
      <point x="219" y="-196" type="curve" smooth="yes"/>
      <point x="219" y="-161"/>
      <point x="238" y="-142"/>
      <point x="254" y="-142" type="curve" smooth="yes"/>
      <point x="261" y="-142"/>
      <point x="270" y="-152"/>
      <point x="281" y="-163" type="curve" smooth="yes"/>
      <point x="293" y="-175"/>
      <point x="306" y="-187"/>
      <point x="323" y="-187" type="curve" smooth="yes"/>
      <point x="350" y="-187"/>
      <point x="374" y="-161"/>
      <point x="374" y="-125" type="curve" smooth="yes"/>
      <point x="374" y="-84"/>
      <point x="338" y="-66"/>
      <point x="296" y="-65" type="curve" smooth="yes"/>
      <point x="240" y="-64"/>
      <point x="166" y="-108"/>
      <point x="166" y="-187" type="curve" smooth="yes"/>
      <point x="166" y="-262"/>
      <point x="228" y="-317"/>
    </contour>
  </outline>
</glyph>
<glyph name="ordmasculine" format="2">
  <advance width="331"/>
  <unicode hex="00BA"/>
  <guideline x="12" y="276" angle="90"/>
  <guideline x="320" y="269" angle="90"/>
  <guideline x="164" y="267" angle="0"/>
  <note>
ordmasculine
</note>
  <outline>
    <contour>
      <point x="301" y="206" type="curve" smooth="yes"/>
      <point x="45" y="206" type="line" smooth="yes"/>
      <point x="29" y="206"/>
      <point x="14" y="186"/>
      <point x="14" y="175" type="curve" smooth="yes"/>
      <point x="14" y="168"/>
      <point x="23" y="159"/>
      <point x="32" y="159" type="curve" smooth="yes"/>
      <point x="278" y="159" type="line" smooth="yes"/>
      <point x="297" y="159"/>
      <point x="309" y="170"/>
      <point x="318" y="186" type="curve"/>
      <point x="318" y="188"/>
      <point x="319" y="189"/>
      <point x="319" y="190" type="curve" smooth="yes"/>
      <point x="319" y="199"/>
      <point x="309" y="206"/>
    </contour>
    <component base="o.ordn" yOffset="-7"/>
  </outline>
</glyph>
<glyph name="AE" format="2">
  <advance width="917"/>
  <unicode hex="00C6"/>
  <anchor x="576" y="675" name="top.cap"/>
  <note>
AE
</note>
  <outline>
    <contour>
      <point x="21" y="-5" type="curve" smooth="yes"/>
      <point x="63" y="-5"/>
      <point x="96" y="1"/>
      <point x="135" y="1" type="curve" smooth="yes"/>
      <point x="175" y="1"/>
      <point x="215" y="-2"/>
      <point x="259" y="-2" type="curve" smooth="yes"/>
      <point x="273" y="-2"/>
      <point x="280" y="3"/>
      <point x="280" y="12" type="curve" smooth="yes"/>
      <point x="280" y="24"/>
      <point x="271" y="31"/>
      <point x="258" y="34" type="curve" smooth="yes"/>
      <point x="212" y="43"/>
      <point x="195" y="56"/>
      <point x="195" y="79" type="curve" smooth="yes"/>
      <point x="195" y="87"/>
      <point x="197" y="97"/>
      <point x="201" y="109" type="curve" smooth="yes"/>
      <point x="212" y="141"/>
      <point x="231" y="195"/>
      <point x="253" y="236" type="curve" smooth="yes"/>
      <point x="261" y="251"/>
      <point x="267" y="253"/>
      <point x="278" y="253" type="curve" smooth="yes"/>
      <point x="419" y="253" type="line" smooth="yes"/>
      <point x="433" y="253"/>
      <point x="436" y="243"/>
      <point x="436" y="235" type="curve" smooth="yes"/>
      <point x="436" y="95" type="line" smooth="yes"/>
      <point x="436" y="54"/>
      <point x="420" y="45"/>
      <point x="376" y="32" type="curve" smooth="yes"/>
      <point x="363" y="28"/>
      <point x="356" y="19"/>
      <point x="356" y="11" type="curve" smooth="yes"/>
      <point x="356" y="3"/>
      <point x="363" y="-5"/>
      <point x="375" y="-5" type="curve" smooth="yes"/>
      <point x="414" y="-5"/>
      <point x="479" y="0"/>
      <point x="519" y="0" type="curve" smooth="yes"/>
      <point x="640" y="0"/>
      <point x="834" y="-4"/>
      <point x="847" y="-4" type="curve" smooth="yes"/>
      <point x="857" y="-4"/>
      <point x="868" y="-1"/>
      <point x="871" y="8" type="curve"/>
      <point x="885" y="58"/>
      <point x="903" y="124"/>
      <point x="903" y="160" type="curve" smooth="yes"/>
      <point x="903" y="169"/>
      <point x="896" y="175"/>
      <point x="888" y="175" type="curve" smooth="yes"/>
      <point x="880" y="175"/>
      <point x="877" y="168"/>
      <point x="872" y="158" type="curve" smooth="yes"/>
      <point x="856" y="121"/>
      <point x="839" y="87"/>
      <point x="812" y="66" type="curve" smooth="yes"/>
      <point x="794" y="53"/>
      <point x="772" y="45"/>
      <point x="744" y="45" type="curve" smooth="yes"/>
      <point x="655" y="45" type="line" smooth="yes"/>
      <point x="621" y="45"/>
      <point x="606" y="59"/>
      <point x="606" y="96" type="curve" smooth="yes"/>
      <point x="606" y="285" type="line" smooth="yes"/>
      <point x="606" y="299"/>
      <point x="613" y="308"/>
      <point x="628" y="308" type="curve" smooth="yes"/>
      <point x="659" y="308"/>
      <point x="691" y="308"/>
      <point x="722" y="308" type="curve" smooth="yes"/>
      <point x="747" y="308"/>
      <point x="761" y="285"/>
      <point x="773" y="242" type="curve" smooth="yes"/>
      <point x="777" y="228"/>
      <point x="787" y="218"/>
      <point x="797" y="218" type="curve" smooth="yes"/>
      <point x="804" y="218"/>
      <point x="809" y="226"/>
      <point x="807" y="246" type="curve" smooth="yes"/>
      <point x="804" y="276"/>
      <point x="803" y="302"/>
      <point x="803" y="329" type="curve" smooth="yes"/>
      <point x="803" y="356"/>
      <point x="805" y="383"/>
      <point x="808" y="412" type="curve"/>
      <point x="809" y="427"/>
      <point x="802" y="435"/>
      <point x="796" y="435" type="curve" smooth="yes"/>
      <point x="788" y="435"/>
      <point x="780" y="429"/>
      <point x="775" y="417" type="curve"/>
      <point x="763" y="385"/>
      <point x="752" y="354"/>
      <point x="717" y="354" type="curve" smooth="yes"/>
      <point x="689" y="354"/>
      <point x="660" y="354"/>
      <point x="632" y="354" type="curve" smooth="yes"/>
      <point x="616" y="354"/>
      <point x="606" y="360"/>
      <point x="606" y="378" type="curve" smooth="yes"/>
      <point x="606" y="563" type="line" smooth="yes"/>
      <point x="606" y="592"/>
      <point x="630" y="609"/>
      <point x="663" y="609" type="curve" smooth="yes"/>
      <point x="726" y="609" type="line" smooth="yes"/>
      <point x="757" y="609"/>
      <point x="777" y="602"/>
      <point x="791" y="587" type="curve" smooth="yes"/>
      <point x="811" y="568"/>
      <point x="821" y="537"/>
      <point x="838" y="495" type="curve" smooth="yes"/>
      <point x="843" y="483"/>
      <point x="852" y="478"/>
      <point x="859" y="478" type="curve" smooth="yes"/>
      <point x="866" y="478"/>
      <point x="872" y="485"/>
      <point x="872" y="498" type="curve" smooth="yes"/>
      <point x="872" y="534"/>
      <point x="864" y="583"/>
      <point x="855" y="633" type="curve" smooth="yes"/>
      <point x="852" y="649"/>
      <point x="839" y="654"/>
      <point x="829" y="654" type="curve" smooth="yes"/>
      <point x="816" y="654"/>
      <point x="640" y="650"/>
      <point x="519" y="650" type="curve" smooth="yes"/>
      <point x="479" y="650"/>
      <point x="419" y="655"/>
      <point x="375" y="655" type="curve" smooth="yes"/>
      <point x="363" y="655"/>
      <point x="355" y="648"/>
      <point x="355" y="639" type="curve" smooth="yes"/>
      <point x="355" y="631"/>
      <point x="360" y="622"/>
      <point x="376" y="618" type="curve"/>
      <point x="397" y="612" type="line" smooth="yes"/>
      <point x="405" y="610"/>
      <point x="405" y="605"/>
      <point x="402" y="599" type="curve" smooth="yes"/>
      <point x="104" y="98" type="line" smooth="yes"/>
      <point x="88" y="71"/>
      <point x="55" y="46"/>
      <point x="17" y="34" type="curve" smooth="yes"/>
      <point x="5" y="30"/>
      <point x="-5" y="25"/>
      <point x="-5" y="12" type="curve" smooth="yes"/>
      <point x="-5" y="-1"/>
      <point x="6" y="-5"/>
    </contour>
    <contour>
      <point x="327" y="311" type="line" smooth="yes"/>
      <point x="321" y="311"/>
      <point x="313" y="312"/>
      <point x="311" y="316" type="curve" smooth="yes"/>
      <point x="309" y="320"/>
      <point x="309" y="323"/>
      <point x="312" y="329" type="curve" smooth="yes"/>
      <point x="425" y="547" type="line" smooth="yes"/>
      <point x="434" y="564"/>
      <point x="436" y="550"/>
      <point x="436" y="541" type="curve" smooth="yes"/>
      <point x="436" y="324" type="line" smooth="yes"/>
      <point x="436" y="318"/>
      <point x="428" y="311"/>
      <point x="421" y="311" type="curve" smooth="yes"/>
    </contour>
  </outline>
</glyph>
<glyph name="Eth" format="2">
  <advance width="769"/>
  <unicode hex="00D0"/>
  <anchor x="364" y="-30" name="bottom.cap"/>
  <anchor x="381" y="675" name="top.cap"/>
  <note>
Eth
</note>
  <outline>
    <contour>
      <point x="57" y="304" type="curve" smooth="yes"/>
      <point x="342" y="304" type="line" smooth="yes"/>
      <point x="365" y="304"/>
      <point x="380" y="325"/>
      <point x="384" y="342" type="curve"/>
      <point x="384" y="344"/>
      <point x="385" y="345"/>
      <point x="385" y="347" type="curve" smooth="yes"/>
      <point x="385" y="357"/>
      <point x="375" y="366"/>
      <point x="362" y="366" type="curve" smooth="yes"/>
      <point x="62" y="366" type="line" smooth="yes"/>
      <point x="45" y="366"/>
      <point x="33" y="353"/>
      <point x="33" y="335" type="curve" smooth="yes"/>
      <point x="33" y="321"/>
      <point x="40" y="304"/>
    </contour>
    <component base="D"/>
  </outline>
</glyph>
